<svg xmlns="http://www.w3.org/2000/svg" id="Layer_1" data-name="Layer 1" viewBox="0 0 826 510"><defs><style>      .cls-1, .cls-2 {        letter-spacing: -.04em;      }      .cls-2, .cls-3 {        font-family: Silka-Regular, Silka;      }      .cls-4 {        letter-spacing: -.04em;      }      .cls-4, .cls-5 {        font-family: Silka-SemiBold, Silka;        font-weight: 600;      }      .cls-6 {        fill: #6dabf9;      }      .cls-6, .cls-7 {        stroke-width: 0px;      }      .cls-7 {        fill: #000;      }      .cls-8 {        fill: #fff;        font-size: 41.65px;      }    </style></defs><rect class="cls-6" y="0" width="826" height="510"></rect><g><g><path class="cls-7" d="M156.72,389.95c-.13-2.14.93-3.82,1.83-5.66.39-.78.77-1.66,1.41-2.28.69-.67,1.57-.7,2.48-.63,1.84.15,3.55.89,5.41.91,2.31.02,4.72-.02,7.02-.18s4.23-1.01,6.34-1.79c2.35-.87,4.77-.97,7.25-.92,4.96.11,9.86.54,14.82-.06,4.86-.59,9.39-2.59,14.21-3.34,2.48-.39,5-.47,7.48-.78s5.12-.63,7.68-.93c10.25-1.17,20.39-3.17,30.53-5.01,2.41-.44,4.8-1.01,7.21-1.4,2.7-.43,4.77.35,7.2,1.42,1.89.84,3.85,1.51,5.56,2.72,1.9,1.35,3.19,3.24,4.6,5.06.5.65.82,1.27,1.09,2.04.35.99.86,1.95,1.13,2.96.69,2.58-1.9,3.61-3.95,4.01s-3.86.61-5.77,1.19c-2.17.66-4.29,1.52-6.52,1.99-2.48.52-5.01.27-7.52.23-2.5-.04-5,.02-7.48.39-2.44.36-4.75.25-7.21.18-1.07-.03-2.13.03-3.19.02-1.24-.01-2.35-.5-3.56-.66-2.47-.32-5.05-.25-7.53-.24-2.35.01-4.82-.07-7.15.29-1.26.19-2.46.6-3.75.58-1.19-.02-2.34-.15-3.52.1s-2.1.52-3.26.54-2.27.2-3.42.44c-2.31.48-4.71.25-7.05.52s-4.87.62-7.29.98c-2.27.33-4.61.65-6.84,1.2s-4.45,1.25-6.74,1.6c-1.12.17-2.25.25-3.38.27-1.26.02-2.59.19-3.85.04-1.07-.13-2.06-.6-3.08-.91-1.08-.34-2.21-.47-3.34-.56-2.43-.19-4.77-.29-7.18-.73-2.08-.38-4.22-.34-5.87-1.81-.68-.6-1.34-1.15-2.19-1.49-.55-.22-1.58-.35-1.88-.91-.72-1.38-2.8-.16-2.08,1.22.83,1.6,2.88,1.58,4.15,2.68.76.66,1.43,1.31,2.37,1.7,1.04.44,2.14.61,3.26.77,2.4.34,4.71.82,7.15.93,1.31.06,2.65.06,3.94.32,1.18.24,2.26.78,3.42,1.06s2.4.25,3.63.2,2.47-.03,3.71-.15c2.47-.24,4.78-.9,7.18-1.5,4.97-1.26,10.24-2,15.35-2.49,2.42-.23,4.87-.07,7.27-.58,1.16-.24,2.22-.34,3.41-.38,1.32-.04,2.5-.57,3.79-.7,1.22-.12,2.44.13,3.67-.02,1.4-.18,2.73-.6,4.15-.67,2.69-.13,5.38-.18,8.08-.14,1.26.02,2.52.06,3.77.12,1.32.07,2.53.57,3.84.7,1.2.11,2.41-.02,3.61,0s2.5.12,3.75.15c2.62.05,5.15-.63,7.76-.81s5.45-.09,8.18-.17c4.74-.14,8.92-2.66,13.53-3.44,1.81-.31,3.74-.53,5.31-1.56,1.69-1.11,2.47-2.94,1.9-4.9-.29-1.01-.81-1.96-1.16-2.95-.26-.73-.53-1.43-.99-2.06-1.28-1.79-2.66-3.72-4.36-5.13-1.6-1.33-3.42-2.22-5.34-3-2.07-.84-4.12-2.03-6.37-2.27-2.48-.27-4.99.52-7.4.99-2.73.54-5.47,1.02-8.2,1.5-5.46.95-10.89,2.11-16.36,2.99s-10.89,1.42-16.33,2.15c-2.54.34-5.11.46-7.65.85s-5.24,1.23-7.8,1.99c-5.26,1.55-10.52,1.98-15.99,1.82-2.62-.08-5.25-.26-7.87-.09-2.43.16-4.47.89-6.71,1.77-2.58,1.01-4.99.99-7.72.99-1.14,0-2.28.11-3.42.08s-2.18-.34-3.28-.61c-1.46-.36-3.38-.81-4.77,0-.59.34-1.04.93-1.49,1.42-.6.65-1.19,1.35-1.68,2.08-1.12,1.68-1.88,3.75-1.79,5.79.05,1.21,1.95,1.21,1.88,0h0Z"></path><g><path class="cls-7" d="M153.91,420.67c.22-2.2.5-4.4.9-6.58.91-5.03,2.3-9.92,3.88-14.77.24-.73.47-2.57,1.07-3.48.59.27,1.47-.2,1.28-1.04-.04-.19-.08-.39-.13-.58-.1-.47-.68-.79-1.13-.64-1.5.47-2.08,2.08-2.51,3.45-.65,2.09-1.39,4.14-2.03,6.24-1.58,5.21-2.78,10.52-3.48,15.92-.05.41-.09.82-.13,1.23.77-.08,1.56,0,2.28.25Z"></path><path class="cls-7" d="M302.92,452.08c-.66-1.59-2.31-2.44-3.89-2.88-.8-.22-1.66-.31-2.43-.63-1.2-.5-1.14-1.58-1.11-2.74.06-2.39.24-4.78.29-7.17.06-2.62-.35-5.05-1.2-7.52-.87-2.54-1.67-5.06-2.43-7.63-.73-2.48-1.98-4.76-2.73-7.24-.75-2.51-1.69-4.86-2.74-7.26-.97-2.21-1.81-4.48-2.42-6.81-.7-2.69-.56-5.24-.5-8,.02-1.12.09-2.28,0-3.39-.07-1.05-.47-2.02-.65-3.04-.24-1.32-2.27-.77-2.02.56.18.98.57,1.9.6,2.9.04,1.29.02,2.59-.02,3.88-.07,2.33-.09,4.55.42,6.83,1.08,4.77,3.55,8.96,4.92,13.61.69,2.33,1.69,4.48,2.52,6.75.88,2.39,1.38,4.89,2.25,7.27.87,2.37,1.78,4.75,1.9,7.29.11,2.36-.02,4.79-.16,7.15-.11,1.73-.49,4.07.81,5.47,1.15,1.23,2.9,1.28,4.41,1.74.78.24,1.72.62,2.2,1.33.49.74.47,2.05-.39,2.48-.58.29-1.38.19-2.01.18-1.11-.02-2.22.14-3.33.14-1.17,0-2.12-.55-3.24-.73-1.16-.19-2.37-.1-3.53-.05-2.48.12-4.95.03-7.43.06-2.38.03-4.62.28-6.86,1.12-2.36.89-4.72,1.44-7.2,1.92-10.65,2.05-21.71,1.46-32.49,1.38-10.85-.07-21.7-.06-32.55-.06-5.45,0-10.9,0-16.35-.03-4.18-.02-8.3.63-12.45.58,0,.55-.02,1.11-.08,1.68,0,.09-.03.18-.04.27.2,0,.41.03.61.03,2.75.08,5.42-.5,8.16-.62,2.7-.12,5.41-.01,8.11,0,11.49.05,22.98.03,34.47,0,5.76,0,11.52-.08,17.27-.12,5.66-.04,11.32.04,16.97-.48,5.23-.48,10.55-1.43,15.48-3.27,2.64-.98,5.08-1.14,7.87-.98,2.64.16,5.21.21,7.85.19,1.34,0,2.38.3,3.64.67,1.12.33,2.26.23,3.41.17,1.57-.09,3.48.32,4.9-.54,1.46-.89,1.8-2.99,1.17-4.49Z"></path></g><path class="cls-7" d="M244.59,449.56c-11.46-.59-22.88,1.11-34.33,1.23-5.67.06-11.34-.11-17.01-.15-5.56-.04-11.13.17-16.69.13-1.49-.01-2.99-.04-4.48-.1.2.48.34.99.39,1.51.02.17.04.34.06.52.61.03,1.23.05,1.85.07,5.65.15,11.29-.07,16.94-.04,5.67.03,11.33.24,17,.25,5.63.01,11.2-.38,16.81-.75,6.48-.43,12.98-.63,19.47-.98,1.08-.06,1.08-1.63,0-1.68Z"></path><path class="cls-7" d="M251.46,451c3.74.09,7.52.22,11.26-.09,1.47-.12,1.47-2.17,0-2.29-3.73-.31-7.51-.18-11.26-.09-1.58.04-1.59,2.42,0,2.46h0Z"></path><path class="cls-7" d="M197.68,410c1.4.15,2.72-.41,4.08-.66,1.48-.27,2.98-.38,4.48-.49,3.32-.24,6.62-.63,9.94-.94s6.71-.62,10.05-1.11c3.39-.49,6.79-1.09,10.22-1.17,1.36-.03,1.34-2.02,0-2.1-3.27-.18-6.47.28-9.7.78-3.51.54-7.04.9-10.57,1.24-3.24.32-6.47.74-9.72,1.02-1.48.13-2.97.26-4.44.5s-2.92,1.01-4.35,1c-1.26,0-1.21,1.8,0,1.93h0Z"></path><path class="cls-7" d="M219.32,407.13c0,2.54.36,5.08-.4,7.55-.68,2.22-2.06,4.32-3.57,6.07-1.29,1.48-2.84,2.57-4.59,3.46-.97.49-2.03,1.24-3.08,1.52-1.13.3-2.23.3-3.35.69-.79.28-1.12,1.08-.74,1.83.77,1.53,2.67,2.3,4.13,3.01,2.31,1.13,4.66,2.16,7.01,3.2,4.58,2.04,9.22,3.83,13.92,5.59,1.21.45,1.99-1.46.87-2.07-4.15-2.26-8.68-3.76-13-5.65-2.14-.94-4.3-1.84-6.42-2.83-1.64-.77-3.27-1.45-4.55-2.76v1.76c.46-.41,1.41-.34,2-.42.55-.08,1.06-.21,1.57-.45,1.1-.51,2.19-1.15,3.25-1.74,1.94-1.08,3.62-2.46,4.98-4.21,1.46-1.88,2.74-3.97,3.42-6.27.81-2.73.38-5.48.31-8.27-.03-1.13-1.75-1.13-1.76,0h0Z"></path><path class="cls-7" d="M203.31,417.47c10.81.91,21.7-.41,32.52-.26,1.51.02,1.51-2.33,0-2.34-5.41-.05-10.81.24-16.21.49s-10.9.06-16.31.52c-1.02.09-1.02,1.5,0,1.58h0Z"></path></g><g><path class="cls-7" d="M677.93,389.95c.09-2.04-.67-4.1-1.79-5.79-.46-.69-1.01-1.35-1.57-1.96-.49-.53-.97-1.17-1.6-1.54-1.38-.81-3.31-.36-4.77,0-1.03.25-2,.56-3.07.6-1.21.05-2.43-.07-3.64-.07-2.72,0-5.14.02-7.72-.99-2.24-.88-4.29-1.61-6.71-1.77-5.32-.34-10.63.37-15.96-.11s-10.51-2.83-15.93-3.64c-2.54-.38-5.12-.51-7.67-.85s-5.25-.68-7.88-1c-5.59-.68-11.08-1.66-16.61-2.69-5.47-1.02-10.96-1.88-16.42-2.96-2.36-.47-4.83-1.23-7.26-.93-2.27.28-4.36,1.49-6.46,2.33-1.92.78-3.72,1.7-5.3,3.05-1.66,1.42-3.16,3.4-4.36,5.22-.37.57-.6,1.2-.83,1.84-.39,1.1-1,2.17-1.26,3.32-.43,1.9.52,3.62,2.13,4.63s3.53,1.18,5.34,1.49c2.3.4,4.48,1.22,6.68,1.98s4.52,1.39,6.91,1.44c2.73.06,5.47-.02,8.19.18s5.11.86,7.74.79c1.18-.03,2.35-.13,3.53-.14,1.27-.02,2.56.13,3.83-.02,1.15-.14,2.23-.58,3.39-.66,1.41-.1,2.83-.12,4.24-.14,2.69-.03,5.39,0,8.07.16,1.28.08,2.49.46,3.75.63,1.37.19,2.76-.14,4.13.07,1.13.18,2.12.61,3.28.67,1.33.07,2.52.17,3.83.43,2.4.47,4.86.3,7.28.55,2.67.28,5.37.66,8.02,1.11,2.38.4,4.76.77,7.11,1.36s4.7,1.26,7.18,1.5c1.16.11,2.32.1,3.48.14,1.3.05,2.58.13,3.86-.18,1.09-.27,2.12-.77,3.22-1.02,1.35-.3,2.77-.3,4.15-.36,2.43-.11,4.75-.58,7.15-.93,1.06-.15,2.11-.31,3.11-.71s1.71-1.07,2.52-1.76c1.27-1.1,3.32-1.08,4.15-2.68.72-1.38-1.37-2.6-2.08-1.22-.29.56-1.33.69-1.88.91-.85.34-1.51.89-2.19,1.49-1.66,1.47-3.79,1.43-5.87,1.81-2.41.44-4.75.54-7.18.73-1.05.08-2.12.2-3.14.5-1.18.35-2.31.92-3.55,1.01-4.8.34-9.3-.88-13.91-1.99-2.24-.54-4.59-.85-6.87-1.18-2.41-.35-4.85-.72-7.27-.97s-4.74-.04-7.05-.54c-1.01-.22-1.97-.38-3.01-.4-1.24-.02-2.27-.28-3.47-.54-1.1-.24-2.17-.14-3.29-.11-1.38.04-2.64-.37-3.98-.57-2.41-.37-4.96-.28-7.39-.29s-5.02-.1-7.45.26c-1.08.16-2.09.59-3.19.64-1.21.05-2.42-.06-3.62-.01-2.48.09-4.77.12-7.23-.22s-4.98-.39-7.48-.35-4.88.27-7.28-.23c-2.23-.47-4.35-1.33-6.52-1.99-1.91-.58-3.83-.81-5.77-1.19s-4.67-1.43-3.95-4.01c.28-1.01.79-1.97,1.13-2.96.27-.77.59-1.39,1.09-2.04,1.4-1.82,2.69-3.71,4.6-5.06,1.71-1.21,3.66-1.89,5.56-2.72,2.43-1.07,4.5-1.85,7.2-1.42,5.07.81,10.12,1.91,15.19,2.78,5.13.88,10.23,2.01,15.39,2.74,4.94.69,9.9,1.19,14.85,1.82,2.49.32,5,.4,7.48.78s4.94,1.14,7.36,1.83c4.8,1.37,9.53,1.92,14.53,1.86,4.84-.06,9.94-1.05,14.59.7,2.11.8,4.08,1.59,6.36,1.72s4.56.19,6.8.17c1.87-.02,3.57-.76,5.41-.91.91-.08,1.8-.04,2.48.63.63.62,1.02,1.5,1.41,2.28.91,1.84,1.96,3.52,1.83,5.66-.07,1.2,1.83,1.21,1.88,0h0Z"></path><g><path class="cls-7" d="M673,395.85c.23.42.37.97.47,1.28.24.75.42,1.53.67,2.28.76,2.36,1.52,4.71,2.15,7.11,1,3.84,1.78,7.72,2.31,11.64.74-.19,1.51-.23,2.26-.1-.34-2.4-.75-4.78-1.29-7.14-1.09-4.77-2.61-9.38-4.09-14.03-.42-1.33-1.02-2.85-2.47-3.31-.45-.14-1.03.17-1.13.64-.04.19-.08.39-.12.58-.18.82.66,1.29,1.25,1.05Z"></path><path class="cls-7" d="M643.78,458.95c-1.6.02-3.2.04-4.8.04-10.93,0-21.86-.07-32.78,0-5.43.04-10.86.09-16.29.11-5.33.02-10.66.06-15.97-.41-5.29-.47-10.54-1.18-15.54-3.03-4.53-1.67-9.57-.9-14.3-1.12-1.09-.05-2.22-.12-3.31.06-1.2.19-2.19.75-3.44.73-1-.02-1.99-.15-2.99-.14-.68,0-1.64.15-2.26-.22-.78-.47-.73-1.76-.28-2.44.5-.75,1.5-1.13,2.33-1.37,1.47-.43,3.16-.51,4.28-1.7,1.35-1.45.9-3.89.8-5.67-.13-2.29-.26-4.65-.15-6.95.12-2.63,1.09-5.06,1.98-7.51.87-2.39,1.36-4.89,2.25-7.27.86-2.27,1.8-4.43,2.51-6.76.73-2.38,1.84-4.61,2.78-6.91.85-2.1,1.58-4.27,2.08-6.48.53-2.36.49-4.66.42-7.06-.03-1.15-.02-2.29-.02-3.44,0-1.09.41-2.05.6-3.11.24-1.32-1.78-1.88-2.02-.56-.17.96-.54,1.88-.63,2.85-.11,1.24-.04,2.55,0,3.8.07,2.68.18,5.15-.51,7.77-.63,2.41-1.5,4.74-2.51,7.02-1.06,2.4-1.93,4.77-2.71,7.26-.78,2.47-2.01,4.76-2.73,7.25-.75,2.58-1.58,5.08-2.43,7.62-.81,2.4-1.18,4.78-1.13,7.31.06,2.52.3,5.05.3,7.57,0,.96-.01,1.83-.98,2.29-.8.38-1.73.45-2.58.69-1.61.45-3.32,1.33-3.94,3-.57,1.52-.18,3.59,1.33,4.43,1.45.81,3.42.39,5,.48,1.08.06,2.16.12,3.2-.18.51-.15.99-.4,1.51-.53.76-.18,1.58-.15,2.35-.14,2.56.03,5.06-.04,7.62-.19,1.35-.08,2.73-.15,4.08-.04,1.39.12,2.69.61,3.99,1.09,2.42.9,4.94,1.52,7.47,2.05,11,2.3,22.49,1.61,33.66,1.68,11.51.08,23.01.05,34.52.05,3.22,0,6.47-.09,9.71-.11-.31-.6-.48-1.24-.48-1.84Z"></path></g><path class="cls-7" d="M644.06,450.65c-.86,0-1.73-.02-2.6-.02-5.67,0-11.33.19-17,.18-5.62-.01-11.2-.4-16.81-.76-6.48-.42-12.98-.82-19.47-.48-1.08.06-1.08,1.62,0,1.68,5.75.31,11.5.48,17.25.83,5.7.35,11.37.85,17.08.89,5.67.04,11.34-.16,17.01-.23,1.44-.02,2.88-.02,4.33,0-.08-.75,0-1.45.2-2.08Z"></path><path class="cls-7" d="M581.31,448.54c-3.74-.09-7.52-.22-11.26.09-1.47.12-1.47,2.17,0,2.29,3.73.31,7.51.18,11.26.09,1.58-.04,1.59-2.42,0-2.46h0Z"></path></g><path class="cls-7" d="M580.07,410c1.4.15,2.72-.41,4.08-.66,1.48-.27,2.98-.38,4.48-.49,3.32-.24,6.62-.63,9.94-.94s6.71-.62,10.05-1.11c3.39-.49,6.79-1.09,10.22-1.17,1.36-.03,1.34-2.02,0-2.1-3.27-.18-6.47.28-9.7.78-3.51.54-7.04.9-10.57,1.24-3.24.32-6.47.74-9.72,1.02-1.48.13-2.97.26-4.44.5s-2.92,1.01-4.35,1c-1.26,0-1.21,1.8,0,1.93h0Z"></path><path class="cls-7" d="M601.7,407.13c0,2.54.36,5.08-.4,7.55-.68,2.22-2.06,4.32-3.57,6.07-1.29,1.48-2.84,2.57-4.59,3.46-.97.49-2.03,1.24-3.08,1.52-1.13.3-2.23.3-3.35.69-.79.28-1.12,1.08-.74,1.83.77,1.53,2.67,2.3,4.13,3.01,2.31,1.13,4.66,2.16,7.01,3.2,4.58,2.04,9.22,3.83,13.92,5.59,1.21.45,1.99-1.46.87-2.07-4.15-2.26-8.68-3.76-13-5.65-2.14-.94-4.3-1.84-6.42-2.83-1.64-.77-3.27-1.45-4.55-2.76v1.76c.46-.41,1.41-.34,2-.42.55-.08,1.06-.21,1.57-.45,1.1-.51,2.19-1.15,3.25-1.74,1.94-1.08,3.62-2.46,4.98-4.21,1.46-1.88,2.74-3.97,3.42-6.27.81-2.73.38-5.48.31-8.27-.03-1.13-1.75-1.13-1.76,0h0Z"></path><path class="cls-7" d="M585.7,417.47c10.81.91,21.7-.41,32.52-.26,1.51.02,1.51-2.33,0-2.34-5.41-.05-10.81.24-16.21.49-5.43.25-10.9.06-16.31.52-1.02.09-1.02,1.5,0,1.58h0Z"></path><g><path class="cls-7" d="M115.7,425.83c12.52-2.4,24.78-4.5,37.56-4.76,3-.06,6.13-.08,9.06.66,2.31.58,4.6,1.53,6.82,2.4,3.16,1.25,4.13,3.98,1.08,6.19-2.06,1.49-4.41,2.63-6.85,3.32-5.51,1.56-11.47,1.97-17.16,2.29-6.33.35-12.48.97-18.81.18-3.23-.4-6.44-1.04-9.61-1.8-1.85-.44-4.49-.48-6.12-1.52-3.97-2.53,1.31-5.52,3.45-6.47,2.31-1.03,4.79-1.57,7.23-2.17,13.8-3.37,28.71-4.08,42.67-1.3,1.1.22,1.57-1.4.47-1.7-14.38-3.85-30.49-2.22-44.79,1.31-3.69.91-11.44,2.63-12.28,7.26-.95,5.26,6.11,5.52,9.44,6.27,7.68,1.71,15.23,2.38,23.07,1.68,7.21-.65,14.48-.6,21.58-2.21,3.47-.79,10.13-2.99,11.33-6.99,1.41-4.69-4.48-6.13-7.64-7.3-7.8-2.9-16.85-1.96-24.99-1.18-8.73.83-17.32,2.68-25.91,4.36-.97.19-.56,1.67.41,1.48h0Z"></path><g><path class="cls-7" d="M109.65,441.26c.99,0,.99-1.54,0-1.54s-.99,1.54,0,1.54h0Z"></path><path class="cls-7" d="M172.69,435.58c.02,3.2-4.59,5.31-7.15,6.29-3.01,1.15-6.2,1.49-9.36,1.95-5.67.82-11.48,1.34-17.21,1.47-9.94.22-19.99-1.56-29.18-5.29-.54-.22-.9.67-.4.94,8.79,4.69,20.5,5.85,30.36,5.19,7.27-.49,14.66-.63,21.83-2.13,3.88-.81,12.07-3.3,12.01-8.42,0-.58-.9-.58-.9,0h0Z"></path><path class="cls-7" d="M172.53,428.59c-.01,2.49-.12,5.01,0,7.5.03.66.99.66,1.03,0,.13-2.49.02-5.01,0-7.5,0-.67-1.04-.67-1.04,0h0Z"></path><path class="cls-7" d="M108.85,432.11c-.31,2.64-.27,5.32-.35,7.97-.02.73,1.16.73,1.14,0-.08-2.65-.04-5.33-.35-7.97-.03-.28-.41-.28-.44,0h0Z"></path></g><g><path class="cls-7" d="M109.65,449.84c.99,0,.99-1.54,0-1.54s-.99,1.54,0,1.54h0Z"></path><path class="cls-7" d="M172.69,444.16c.02,3.2-4.59,5.31-7.15,6.29-3.01,1.15-6.2,1.49-9.36,1.95-5.67.82-11.48,1.34-17.21,1.47-9.94.22-19.99-1.56-29.18-5.29-.54-.22-.9.67-.4.94,8.79,4.69,20.5,5.85,30.36,5.19,7.27-.49,14.66-.63,21.83-2.13,3.88-.81,12.07-3.3,12.01-8.42,0-.58-.9-.58-.9,0h0Z"></path><path class="cls-7" d="M172.53,437.16c-.01,2.49-.12,5.01,0,7.5.03.66.99.66,1.03,0,.13-2.49.02-5.01,0-7.5,0-.67-1.04-.67-1.04,0h0Z"></path><path class="cls-7" d="M108.85,440.68c-.31,2.64-.27,5.32-.35,7.97-.02.73,1.16.73,1.14,0-.08-2.65-.04-5.33-.35-7.97-.03-.28-.41-.28-.44,0h0Z"></path></g><g><path class="cls-7" d="M109.65,458.41c.99,0,.99-1.54,0-1.54s-.99,1.54,0,1.54h0Z"></path><path class="cls-7" d="M172.69,452.73c.02,3.2-4.59,5.31-7.15,6.29-3.01,1.15-6.2,1.49-9.36,1.95-5.67.82-11.48,1.34-17.21,1.47-9.94.22-19.99-1.56-29.18-5.29-.54-.22-.9.67-.4.94,8.79,4.69,20.5,5.85,30.36,5.19,7.27-.49,14.66-.63,21.83-2.13,3.88-.81,12.07-3.3,12.01-8.42,0-.58-.9-.58-.9,0h0Z"></path><path class="cls-7" d="M172.53,445.74c-.01,2.49-.12,5.01,0,7.5.03.66.99.66,1.03,0,.13-2.49.02-5.01,0-7.5,0-.67-1.04-.67-1.04,0h0Z"></path><path class="cls-7" d="M108.85,449.25c-.31,2.64-.27,5.32-.35,7.97-.02.73,1.16.73,1.14,0-.08-2.65-.04-5.33-.35-7.97-.03-.28-.41-.28-.44,0h0Z"></path></g><g><path class="cls-7" d="M109.65,466.99c.99,0,.99-1.54,0-1.54s-.99,1.54,0,1.54h0Z"></path><path class="cls-7" d="M172.69,461.3c.02,3.2-4.59,5.31-7.15,6.29-3.01,1.15-6.2,1.49-9.36,1.95-5.67.82-11.48,1.34-17.21,1.47-9.94.22-19.99-1.56-29.18-5.29-.54-.22-.9.67-.4.94,8.79,4.69,20.5,5.85,30.36,5.19,7.27-.49,14.66-.63,21.83-2.13,3.88-.81,12.07-3.3,12.01-8.42,0-.58-.9-.58-.9,0h0Z"></path><path class="cls-7" d="M172.53,454.31c-.01,2.49-.12,5.01,0,7.5.03.66.99.66,1.03,0,.13-2.49.02-5.01,0-7.5,0-.67-1.04-.67-1.04,0h0Z"></path><path class="cls-7" d="M108.85,457.83c-.31,2.64-.27,5.32-.35,7.97-.02.73,1.16.73,1.14,0-.08-2.65-.04-5.33-.35-7.97-.03-.28-.41-.28-.44,0h0Z"></path></g><g><path class="cls-7" d="M109.65,475.56c.99,0,.99-1.54,0-1.54s-.99,1.54,0,1.54h0Z"></path><path class="cls-7" d="M172.69,469.88c.02,3.2-4.59,5.31-7.15,6.29-3.01,1.15-6.2,1.49-9.36,1.95-5.67.82-11.48,1.34-17.21,1.47-9.94.22-19.99-1.56-29.18-5.29-.54-.22-.9.67-.4.94,8.79,4.69,20.5,5.85,30.36,5.19,7.27-.49,14.66-.63,21.83-2.13,3.88-.81,12.07-3.3,12.01-8.42,0-.58-.9-.58-.9,0h0Z"></path><path class="cls-7" d="M172.53,462.89c-.01,2.49-.12,5.01,0,7.5.03.66.99.66,1.03,0,.13-2.49.02-5.01,0-7.5,0-.67-1.04-.67-1.04,0h0Z"></path><path class="cls-7" d="M108.85,466.4c-.31,2.64-.27,5.32-.35,7.97-.02.73,1.16.73,1.14,0-.08-2.65-.04-5.33-.35-7.97-.03-.28-.41-.28-.44,0h0Z"></path></g><g><path class="cls-7" d="M115.31,430.28c3.67-1.26,7.41-2.07,11.17-2.96,3.63-.87,7.22-2.16,10.92-2.69.51-.07.39-.91-.12-.9-3.74.1-7.53,1.42-11.16,2.3-3.83.92-7.62,1.65-11.13,3.52-.4.21-.13.89.31.74h0Z"></path><path class="cls-7" d="M129.03,426.59c1.27-.11,4.12-.88,5.23-.08,2.71,1.96-1.58,3.74-3.14,4.31-.79.29-.69,1.46.2,1.49,5.09.16,10.43-.8,15.49-1.39,4.92-.57,9.83-.87,14.74-1.58.92-.13.71-1.73-.22-1.63-9.99,1.02-19.99,2.43-30,3.08l.2,1.49c1.66-.67,6.5-2.71,5.39-5.35-1.16-2.75-5.98-1.26-7.96-.94-.34.05-.26.63.08.6h0Z"></path><path class="cls-7" d="M123.72,431.15c3.78-1.24,7.65-2.22,11.5-3.23,3.6-.94,7.43-1.51,10.94-2.71.72-.25.42-1.4-.32-1.15-7.34,2.42-15.01,3.81-22.32,6.38-.44.16-.26.86.19.71h0Z"></path></g></g><g><path class="cls-7" d="M650.37,424.49c12.52-2.4,24.78-4.5,37.56-4.76,3-.06,6.13-.08,9.06.66,2.31.58,4.6,1.53,6.82,2.4,3.16,1.25,4.13,3.98,1.08,6.19-2.06,1.49-4.41,2.63-6.85,3.32-5.51,1.56-11.47,1.97-17.16,2.29-6.33.35-12.48.97-18.81.18-3.23-.4-6.44-1.04-9.61-1.8-1.85-.44-4.49-.48-6.12-1.52-3.97-2.53,1.31-5.52,3.45-6.47,2.31-1.03,4.79-1.57,7.23-2.17,13.8-3.37,28.71-4.08,42.67-1.3,1.1.22,1.57-1.4.47-1.7-14.38-3.85-30.49-2.22-44.79,1.31-3.69.91-11.44,2.63-12.28,7.26-.95,5.26,6.11,5.52,9.44,6.27,7.68,1.71,15.23,2.38,23.07,1.68,7.21-.65,14.48-.6,21.58-2.21,3.47-.79,10.13-2.99,11.33-6.99,1.41-4.69-4.48-6.13-7.64-7.3-7.8-2.9-16.85-1.96-24.99-1.18-8.73.83-17.32,2.68-25.91,4.36-.97.19-.56,1.67.41,1.48h0Z"></path><g><path class="cls-7" d="M644.32,439.92c.99,0,.99-1.54,0-1.54s-.99,1.54,0,1.54h0Z"></path><path class="cls-7" d="M707.36,434.24c.02,3.2-4.59,5.31-7.15,6.29-3.01,1.15-6.2,1.49-9.36,1.95-5.67.82-11.48,1.34-17.21,1.47-9.94.22-19.99-1.56-29.18-5.29-.54-.22-.9.67-.4.94,8.79,4.69,20.5,5.85,30.36,5.19,7.27-.49,14.66-.63,21.83-2.13,3.88-.81,12.07-3.3,12.01-8.42,0-.58-.9-.58-.9,0h0Z"></path><path class="cls-7" d="M707.2,427.25c-.01,2.49-.12,5.01,0,7.5.03.66.99.66,1.03,0,.13-2.49.02-5.01,0-7.5,0-.67-1.04-.67-1.04,0h0Z"></path><path class="cls-7" d="M643.53,430.77c-.31,2.64-.27,5.32-.35,7.97-.02.73,1.16.73,1.14,0-.08-2.65-.04-5.33-.35-7.97-.03-.28-.41-.28-.44,0h0Z"></path></g><g><path class="cls-7" d="M644.32,448.5c.99,0,.99-1.54,0-1.54s-.99,1.54,0,1.54h0Z"></path><path class="cls-7" d="M707.36,442.82c.02,3.2-4.59,5.31-7.15,6.29-3.01,1.15-6.2,1.49-9.36,1.95-5.67.82-11.48,1.34-17.21,1.47-9.94.22-19.99-1.56-29.18-5.29-.54-.22-.9.67-.4.94,8.79,4.69,20.5,5.85,30.36,5.19,7.27-.49,14.66-.63,21.83-2.13,3.88-.81,12.07-3.3,12.01-8.42,0-.58-.9-.58-.9,0h0Z"></path><path class="cls-7" d="M707.2,435.82c-.01,2.49-.12,5.01,0,7.5.03.66.99.66,1.03,0,.13-2.49.02-5.01,0-7.5,0-.67-1.04-.67-1.04,0h0Z"></path><path class="cls-7" d="M643.53,439.34c-.31,2.64-.27,5.32-.35,7.97-.02.73,1.16.73,1.14,0-.08-2.65-.04-5.33-.35-7.97-.03-.28-.41-.28-.44,0h0Z"></path></g><g><path class="cls-7" d="M644.32,457.07c.99,0,.99-1.54,0-1.54s-.99,1.54,0,1.54h0Z"></path><path class="cls-7" d="M707.36,451.39c.02,3.2-4.59,5.31-7.15,6.29-3.01,1.15-6.2,1.49-9.36,1.95-5.67.82-11.48,1.34-17.21,1.47-9.94.22-19.99-1.56-29.18-5.29-.54-.22-.9.67-.4.94,8.79,4.69,20.5,5.85,30.36,5.19,7.27-.49,14.66-.63,21.83-2.13,3.88-.81,12.07-3.3,12.01-8.42,0-.58-.9-.58-.9,0h0Z"></path><path class="cls-7" d="M707.2,444.4c-.01,2.49-.12,5.01,0,7.5.03.66.99.66,1.03,0,.13-2.49.02-5.01,0-7.5,0-.67-1.04-.67-1.04,0h0Z"></path><path class="cls-7" d="M643.53,447.91c-.31,2.64-.27,5.32-.35,7.97-.02.73,1.16.73,1.14,0-.08-2.65-.04-5.33-.35-7.97-.03-.28-.41-.28-.44,0h0Z"></path></g><g><path class="cls-7" d="M644.32,465.65c.99,0,.99-1.54,0-1.54s-.99,1.54,0,1.54h0Z"></path><path class="cls-7" d="M707.36,459.96c.02,3.2-4.59,5.31-7.15,6.29-3.01,1.15-6.2,1.49-9.36,1.95-5.67.82-11.48,1.34-17.21,1.47-9.94.22-19.99-1.56-29.18-5.29-.54-.22-.9.67-.4.94,8.79,4.69,20.5,5.85,30.36,5.19,7.27-.49,14.66-.63,21.83-2.13,3.88-.81,12.07-3.3,12.01-8.42,0-.58-.9-.58-.9,0h0Z"></path><path class="cls-7" d="M707.2,452.97c-.01,2.49-.12,5.01,0,7.5.03.66.99.66,1.03,0,.13-2.49.02-5.01,0-7.5,0-.67-1.04-.67-1.04,0h0Z"></path><path class="cls-7" d="M643.53,456.49c-.31,2.64-.27,5.32-.35,7.97-.02.73,1.16.73,1.14,0-.08-2.65-.04-5.33-.35-7.97-.03-.28-.41-.28-.44,0h0Z"></path></g><g><path class="cls-7" d="M644.32,474.22c.99,0,.99-1.54,0-1.54s-.99,1.54,0,1.54h0Z"></path><path class="cls-7" d="M707.36,468.54c.02,3.2-4.59,5.31-7.15,6.29-3.01,1.15-6.2,1.49-9.36,1.95-5.67.82-11.48,1.34-17.21,1.47-9.94.22-19.99-1.56-29.18-5.29-.54-.22-.9.67-.4.94,8.79,4.69,20.5,5.85,30.36,5.19,7.27-.49,14.66-.63,21.83-2.13,3.88-.81,12.07-3.3,12.01-8.42,0-.58-.9-.58-.9,0h0Z"></path><path class="cls-7" d="M707.2,461.55c-.01,2.49-.12,5.01,0,7.5.03.66.99.66,1.03,0,.13-2.49.02-5.01,0-7.5,0-.67-1.04-.67-1.04,0h0Z"></path><path class="cls-7" d="M643.53,465.06c-.31,2.64-.27,5.32-.35,7.97-.02.73,1.16.73,1.14,0-.08-2.65-.04-5.33-.35-7.97-.03-.28-.41-.28-.44,0h0Z"></path></g><g><path class="cls-7" d="M649.99,428.94c3.67-1.26,7.41-2.07,11.17-2.96,3.63-.87,7.22-2.16,10.92-2.69.51-.07.39-.91-.12-.9-3.74.1-7.53,1.42-11.16,2.3-3.83.92-7.62,1.65-11.13,3.52-.4.21-.13.89.31.74h0Z"></path><path class="cls-7" d="M663.7,425.26c1.27-.11,4.12-.88,5.23-.08,2.71,1.96-1.58,3.74-3.14,4.31-.79.29-.69,1.46.2,1.49,5.09.16,10.43-.8,15.49-1.39s9.83-.87,14.74-1.58c.92-.13.71-1.73-.22-1.63-9.99,1.02-19.99,2.43-30,3.08l.2,1.49c1.66-.67,6.5-2.71,5.39-5.35-1.16-2.75-5.98-1.26-7.96-.94-.34.05-.26.63.08.6h0Z"></path><path class="cls-7" d="M658.39,429.81c3.78-1.24,7.65-2.22,11.5-3.23,3.6-.94,7.43-1.51,10.94-2.71.72-.25.42-1.4-.32-1.15-7.34,2.42-15.01,3.81-22.32,6.38-.44.16-.26.86.19.71h0Z"></path></g></g></g><g><path class="cls-7" d="M228.97,313.01c-2.57,2.38-5.07,4.84-7.61,7.25h0c-.94-1.13-2.09-2.09-3.43-2.81h0c1.91-1.95,3.8-3.91,5.84-5.72,1.33-1.18-.31-3.19-1.74-2.14-3.61,2.66-6.56,6.37-9.77,9.5-3.16,3.09-6.03,6.49-9.1,9.66-1.02,1.05.19,2.52,1.43,1.75,3.67-2.3,6.36-6.24,9.48-9.2.93-.88,1.83-1.78,2.72-2.69,1.23.77,2.3,1.8,3.15,2.99h0c-.73.69-1.47,1.37-2.22,2.04-3.66,3.29-7.26,6.71-10.3,10.56-.55.7.51,1.72,1.16,1.09,3.77-3.65,7.69-7.17,11.63-10.65.33-.29.66-.59.99-.88,0,0,0,0,0,0,.85,1.84,1.27,3.88,1.16,5.86-.09,1.79-.4,3.62-1.12,5.27-.17.4-1.11,2.1-2.08,2.99-.99-.01-1.86.07-2.73.71-.91.68-.53,2.02.4,2.43,1.01.45,2.1.12,3.05-.47,1.11.04,2.43.28,3.07.29,1.94.04,3.88.18,5.82.25.76.03,1.52.05,2.27.04,1.07,0,2.14-.02,3.2-.07,2.03-.09,4.06-.27,6.11-.52,2.06-.25,1.55-3.38-.5-3.17-.32.03-.64.07-.96.09h0c-1.18.12-2.37.22-3.55.29h0c-3.03.21-6.04.29-9.13.18-1.22-.04-2.44-.03-3.66-.03,1.23-1.86,1.8-4.14,2.05-6.33.35-3.17-.27-6.5-1.83-9.27,1.14-1.04,2.26-2.1,3.39-3.15,1.65-1.55,3.45-2.94,4.22-5.14.28-.8-.73-1.65-1.42-1.02Z"></path><path class="cls-7" d="M198.6,352.02c10.63,14.67,30.97,16.64,44.43,4.52,13.29-11.96,15.57-33.08,5.19-47.62-9.35-13.1-31.48-15.32-43.96-5.74-7.29,5.59-11.56,15.3-12.3,24.25-.79,9.54,2.34,16.32,7.06,24.35.36.62,1.31.06.96-.56-3.45-6.13-6.65-11.68-6.66-19-.02-8.54,2.93-16.35,8.15-23.05,10.22-13.1,33.93-12.98,44.34.06,9.85,12.34,9.3,31.87-1.37,43.65-12.15,13.41-33.3,12.96-44.04-1.91-.77-1.07-2.57-.04-1.79,1.05h0Z"></path><path class="cls-7" d="M201.78,349.24c8.63,11.91,25.48,14.7,37.18,5.27,12.77-10.3,15.9-30.45,5.48-43.58-8.81-11.09-28.73-12.66-39.12-3.06-5.48,5.06-8.71,12.62-9.32,19.96-.7,8.4,1.98,14.14,6.15,21.2.32.54,1.14.06.84-.49-6.62-11.71-7.94-23.26-.02-34.85,8.35-12.22,28.27-13.92,38.81-3.12,10.43,10.68,9.18,29.74-.79,40.17-10.59,11.09-28.6,10.09-37.64-2.41-.67-.93-2.24-.03-1.56.91h0Z"></path></g><g><path class="cls-7" d="M558.28,254.52c-3.03-1.76-6.11-3.43-9.16-5.15h0c.8-1.23,1.39-2.61,1.68-4.11h0c2.42,1.25,4.85,2.49,7.18,3.9,1.52.92,2.96-1.23,1.53-2.29-3.6-2.67-8.01-4.41-11.94-6.56-3.88-2.12-7.97-3.86-11.9-5.87-1.3-.67-2.36.92-1.26,1.88,3.27,2.84,7.83,4.26,11.57,6.38,1.11.63,2.24,1.23,3.37,1.82-.38,1.41-1.05,2.72-1.94,3.89h0c-.87-.5-1.74-1.01-2.6-1.53-4.21-2.54-8.54-4.98-13.11-6.76-.83-.32-1.5.99-.7,1.43,4.59,2.54,9.11,5.25,13.59,8,.38.23.76.46,1.13.69,0,0,0,0,0,0-1.51,1.35-3.33,2.35-5.26,2.83-1.74.44-3.58.67-5.37.47-.43-.05-2.33-.45-3.47-1.11-.28-.95-.61-1.76-1.48-2.4-.92-.67-2.08.08-2.21,1.1-.13,1.09.5,2.04,1.34,2.78.28,1.07.45,2.4.62,3.02.53,1.87.96,3.77,1.46,5.64.2.74.4,1.47.62,2.19.31,1.03.64,2.04,1,3.04.69,1.92,1.45,3.8,2.29,5.69.84,1.9,3.69.49,2.89-1.4-.12-.3-.25-.59-.37-.89h0c-.46-1.1-.9-2.2-1.32-3.31h0c-1.08-2.84-2.04-5.7-2.85-8.68-.32-1.18-.68-2.34-1.04-3.51,2.13.63,4.48.51,6.65.1,3.13-.59,6.14-2.16,8.33-4.46,1.33.78,2.67,1.55,4.01,2.32,1.96,1.13,3.82,2.43,6.15,2.53.85.04,1.36-1.18.56-1.65Z"></path><path class="cls-7" d="M512.08,236.9c-10.92,14.46-6.84,34.48,8.68,43.81,15.33,9.21,36.18,5.21,47.05-8.98,9.79-12.77,5.44-34.59-7.38-43.72-7.48-5.33-18.01-6.57-26.79-4.67-9.35,2.03-14.92,7.01-21.22,13.87-.48.53.32,1.27.82.75,4.85-5.1,9.22-9.78,16.22-11.93,8.16-2.52,16.49-1.98,24.42,1.05,15.52,5.93,22.34,28.64,12.92,42.42-8.92,13.03-27.75,18.22-42.14,11.47-16.38-7.69-22.14-28.05-11.07-42.67.8-1.05-.72-2.47-1.52-1.4h0Z"></path><path class="cls-7" d="M515.67,239.12c-8.86,11.74-6.6,28.67,5.85,37.09,13.58,9.2,33.77,6.29,43.27-7.51,8.03-11.67,3.7-31.18-8.52-38.31-6.44-3.76-14.62-4.64-21.82-3.07-8.24,1.79-12.94,6.04-18.48,12.08-.42.46.28,1.11.71.66,9.26-9.75,19.92-14.4,33.32-10.22,14.12,4.41,21.58,22.95,14.34,36.2-7.16,13.1-25.75,17.48-38.65,11.01-13.7-6.88-18.02-24.39-8.71-36.7.69-.92-.63-2.15-1.33-1.22h0Z"></path></g><g><path class="cls-7" d="M300.55,253.08c-3.22,1.39-6.39,2.89-9.58,4.33h0c-.52-1.38-1.28-2.66-2.31-3.79h0c2.44-1.21,4.88-2.43,7.4-3.47,1.64-.68.76-3.12-.94-2.6-4.28,1.31-8.3,3.84-12.36,5.73-4.01,1.87-7.83,4.13-11.79,6.11-1.31.65-.65,2.44.77,2.12,4.22-.95,8.07-3.78,11.99-5.54,1.16-.52,2.31-1.07,3.46-1.64.91,1.14,1.57,2.45,1.99,3.86h0c-.92.41-1.84.8-2.77,1.19-4.54,1.89-9.07,3.93-13.22,6.55-.75.48-.09,1.79.74,1.41,4.77-2.2,9.63-4.22,14.5-6.2.41-.17.82-.34,1.22-.51,0,0,0,0,0,0,.19,2.01-.09,4.08-.84,5.91-.68,1.66-1.58,3.28-2.8,4.6-.3.32-1.75,1.61-2.95,2.13-.93-.34-1.77-.55-2.81-.23-1.09.34-1.17,1.73-.43,2.43.8.75,1.94.81,3.03.57,1.03.41,2.2,1.06,2.8,1.29,1.82.68,3.6,1.46,5.41,2.17.71.28,1.42.55,2.13.79,1.01.36,2.02.69,3.04.99,1.95.58,3.92,1.09,5.94,1.53,2.03.45,2.58-2.68.58-3.16-.31-.08-.62-.15-.94-.23h0c-1.16-.28-2.3-.58-3.44-.9h0c-2.93-.81-5.8-1.73-8.67-2.85-1.14-.44-2.29-.84-3.44-1.24,1.77-1.34,3.07-3.31,4.02-5.29,1.38-2.87,1.9-6.23,1.35-9.35,1.42-.61,2.83-1.23,4.25-1.85,2.07-.91,4.23-1.64,5.68-3.45.53-.66-.15-1.8-1-1.43Z"></path><path class="cls-7" d="M258.98,279.85c5.17,17.36,23.71,25.95,40.43,18.98,16.5-6.89,25.64-26.06,20.66-43.21-4.49-15.45-24.63-24.88-39.58-19.97-8.73,2.87-15.97,10.61-19.64,18.81-3.91,8.74-3.2,16.17-1.4,25.31.14.7,1.22.5,1.09-.21-1.23-6.93-2.41-13.22,0-20.13,2.81-8.07,8.18-14.46,15.32-19.05,13.98-8.98,36.31-1.01,41.82,14.74,5.21,14.91-1.78,33.16-15.74,40.73-15.9,8.63-35.71,1.2-40.93-16.38-.38-1.27-2.41-.89-2.03.39h0Z"></path><path class="cls-7" d="M262.9,278.27c4.2,14.1,19.18,22.31,33.34,17.28,15.46-5.49,25.09-23.47,19.6-39.3-4.64-13.38-22.92-21.46-35.9-15.84-6.85,2.96-12.4,9.03-15.41,15.75-3.44,7.7-2.81,14-1.22,22.04.12.61,1.06.43.95-.18-2.37-13.24.21-24.58,11.52-32.89,11.92-8.76,31.28-3.77,37.66,9.91,6.3,13.53-1.19,31.1-14.05,37.65-13.66,6.96-30.33.06-34.72-14.74-.33-1.1-2.1-.77-1.77.34h0Z"></path></g><g><path class="cls-7" d="M384.3,225.43c-3.5.16-7,.43-10.5.64h0c0-1.47-.25-2.94-.81-4.36h0c2.71-.26,5.43-.54,8.15-.61,1.78-.05,1.82-2.64.05-2.76-4.47-.3-9.12.64-13.59.96-4.41.32-8.79,1.07-13.19,1.52-1.46.15-1.48,2.05-.04,2.26,4.28.61,8.89-.66,13.18-.91,1.27-.07,2.54-.18,3.82-.3.45,1.38.6,2.85.48,4.32h0c-1,.05-2.01.1-3.01.13-4.92.15-9.88.45-14.68,1.43-.87.18-.72,1.64.19,1.58,5.24-.36,10.5-.52,15.76-.64.44-.01.88-.03,1.32-.04,0,0,0,0,0,0-.54,1.95-1.53,3.78-2.89,5.23-1.22,1.31-2.65,2.51-4.26,3.3-.39.19-2.2.88-3.52.94-.75-.65-1.46-1.15-2.55-1.21-1.14-.07-1.71,1.2-1.26,2.12.48.99,1.52,1.44,2.63,1.61.82.75,1.68,1.78,2.16,2.2,1.46,1.28,2.85,2.64,4.29,3.95.56.51,1.13,1.02,1.71,1.5.82.7,1.65,1.36,2.49,2.01,1.61,1.24,3.28,2.41,5.01,3.54,1.74,1.14,3.36-1.59,1.67-2.75-.26-.18-.53-.36-.79-.55h0c-.98-.67-1.95-1.36-2.9-2.06h0c-2.45-1.8-4.8-3.68-7.09-5.75-.91-.82-1.84-1.6-2.78-2.38,2.14-.63,4.04-2.01,5.64-3.52,2.31-2.19,3.99-5.14,4.58-8.26,1.54-.07,3.08-.14,4.63-.22,2.26-.12,4.53-.03,6.54-1.2.74-.43.5-1.73-.43-1.69Z"></path><path class="cls-7" d="M335.93,235.67c-1.34,18.07,12.94,32.69,31.04,32.11,17.87-.57,33.23-15.24,34.67-33.05,1.3-16.04-14.18-32.01-29.9-32.74-9.17-.42-18.7,4.24-25.04,10.6-6.76,6.78-8.74,13.98-10.31,23.16-.12.71.96.9,1.1.19,1.31-6.91,2.45-13.22,7.16-18.82,5.5-6.54,12.79-10.61,21.09-12.36,16.26-3.43,34.3,11.96,33.85,28.64-.43,15.79-13.44,30.36-29.19,32.48-17.93,2.41-33.81-11.57-32.43-29.86.1-1.32-1.94-1.69-2.04-.35h0Z"></path><path class="cls-7" d="M340.15,235.58c-1.09,14.67,10,27.67,25.02,28,16.4.36,31.79-13.02,32.29-29.77.42-14.16-13.79-28.2-27.93-27.57-7.45.33-14.8,4.03-20,9.24-5.95,5.97-7.6,12.09-8.98,20.17-.1.62.84.78.96.17,2.49-13.21,8.93-22.9,22.46-26.65,14.26-3.95,30.58,7.59,31.67,22.65,1.08,14.88-12.16,28.65-26.51,30.2-15.25,1.65-28.37-10.73-27.21-26.12.09-1.15-1.69-1.47-1.78-.31h0Z"></path></g><g><path class="cls-7" d="M480.64,232.07c-3.26-1.29-6.56-2.48-9.83-3.73h0c.61-1.34.98-2.79,1.05-4.31h0c2.58.87,5.17,1.74,7.68,2.79,1.64.69,2.74-1.66,1.17-2.5-3.96-2.1-8.58-3.16-12.79-4.7-4.15-1.52-8.46-2.63-12.65-4.03-1.39-.46-2.19,1.26-.96,2.04,3.66,2.32,8.38,3.04,12.39,4.57,1.19.45,2.4.88,3.6,1.29-.16,1.45-.63,2.85-1.33,4.13h0c-.94-.36-1.87-.74-2.8-1.12-4.55-1.88-9.19-3.65-13.98-4.72-.87-.2-1.34,1.2-.48,1.52,4.92,1.82,9.79,3.83,14.63,5.88.41.17.82.34,1.22.51,0,0,0,0,0,0-1.29,1.56-2.95,2.82-4.78,3.58-1.65.69-3.44,1.2-5.24,1.27-.43.01-2.37-.1-3.59-.58-.41-.9-.86-1.65-1.82-2.15-1.01-.53-2.05.39-2.02,1.41.03,1.1.8,1.94,1.74,2.55.44,1.02.8,2.31,1.07,2.9.8,1.77,1.52,3.58,2.29,5.36.31.7.61,1.39.94,2.07.46.97.94,1.92,1.45,2.86.96,1.79,2,3.54,3.11,5.28,1.12,1.75,3.72-.07,2.65-1.82-.17-.28-.33-.55-.5-.83h0c-.62-1.02-1.22-2.04-1.8-3.07h0c-1.49-2.65-2.87-5.33-4.11-8.16-.49-1.12-1.03-2.21-1.55-3.31,2.2.3,4.51-.17,6.59-.89,3.01-1.05,5.75-3.06,7.57-5.66,1.43.57,2.87,1.13,4.31,1.69,2.11.82,4.14,1.83,6.46,1.59.85-.09,1.17-1.37.3-1.72Z"></path><path class="cls-7" d="M432.33,221.57c-8.63,15.93-1.61,35.12,15.14,42.02,16.53,6.81,36.56-.26,45.18-15.91,7.77-14.09.21-35.01-13.83-42.12-8.19-4.15-18.79-3.81-27.18-.61-8.94,3.41-13.7,9.17-18.9,16.89-.4.59.51,1.21.92.62,4.03-5.77,7.65-11.05,14.25-14.22,7.7-3.71,16.01-4.43,24.31-2.62,16.23,3.54,26.37,24.98,19.11,40.01-6.87,14.22-24.72,22.17-39.95,17.64-17.34-5.16-26.08-24.43-17.32-40.54.63-1.16-1.08-2.33-1.72-1.16h0Z"></path><path class="cls-7" d="M436.21,223.22c-7.01,12.93-2.23,29.33,11.33,35.8,14.81,7.06,34.34,1.17,41.66-13.9,6.19-12.74-1.01-31.38-14.15-36.6-6.93-2.75-15.15-2.4-22.03.22-7.88,3-11.9,7.9-16.46,14.71-.35.52.45,1.06.8.54,7.69-11.03,17.54-17.22,31.42-15.09,14.62,2.25,24.77,19.47,19.59,33.65-5.12,14.02-22.85,21.13-36.57,16.66-14.58-4.75-21.47-21.42-14.1-34.99.55-1.01-.94-2.03-1.49-1.01h0Z"></path></g><g><path class="cls-7" d="M611.39,323.88c-.08-3.5-.26-7-.39-10.51h0c1.47.04,2.95-.18,4.38-.71h0c.2,2.72.41,5.44.42,8.16,0,1.78,2.6,1.88,2.76.11.4-4.46-.42-9.13-.64-13.61-.21-4.41-.86-8.81-1.2-13.22-.11-1.46-2.02-1.53-2.26-.09-.71,4.27.45,8.9.6,13.2.04,1.27.12,2.55.21,3.82-1.39.41-2.87.53-4.33.38h0c-.03-1-.05-2.01-.06-3.02-.03-4.92-.21-9.89-1.08-14.71-.16-.88-1.63-.76-1.58.15.23,5.24.27,10.51.27,15.77,0,.44,0,.88,0,1.33,0,0,0,0,0,0-1.94-.58-3.74-1.62-5.16-3.01-1.28-1.26-2.44-2.7-3.2-4.33-.18-.39-.83-2.23-.86-3.54.66-.73,1.18-1.43,1.27-2.52.09-1.13-1.16-1.74-2.09-1.31-1,.46-1.48,1.49-1.67,2.59-.77.8-1.82,1.63-2.25,2.11-1.32,1.43-2.71,2.79-4.05,4.19-.53.55-1.04,1.11-1.54,1.67-.71.8-1.4,1.61-2.07,2.44-1.28,1.58-2.49,3.22-3.66,4.92-1.18,1.71,1.51,3.4,2.7,1.73.19-.26.37-.52.57-.78h0c.7-.97,1.41-1.92,2.13-2.85h0c1.86-2.41,3.79-4.72,5.92-6.96.84-.89,1.64-1.81,2.45-2.72.58,2.15,1.91,4.09,3.38,5.72,2.14,2.36,5.05,4.11,8.15,4.78.03,1.54.07,3.09.11,4.63.06,2.26-.08,4.53,1.05,6.57.41.75,1.72.54,1.7-.39Z"></path><path class="cls-7" d="M602.3,275.28c-18.03-1.77-32.99,12.16-32.84,30.27.15,17.88,14.44,33.58,32.21,35.45,16,1.68,32.34-13.41,33.44-29.11.64-9.16-3.79-18.8-10-25.29-6.62-6.92-13.77-9.07-22.91-10.86-.7-.14-.92.94-.22,1.09,6.88,1.48,13.15,2.76,18.64,7.6,6.41,5.65,10.3,13.04,11.85,21.38,3.04,16.34-12.77,34-29.44,33.15-15.77-.8-30.03-14.16-31.77-29.96-1.98-17.99,12.38-33.52,30.62-31.71,1.31.13,1.73-1.9.4-2.03h0Z"></path><path class="cls-7" d="M602.28,279.51c-14.64-1.43-27.9,9.34-28.59,24.35-.76,16.39,12.26,32.09,28.99,32.99,14.14.76,28.53-13.12,28.23-27.26-.16-7.46-3.67-14.89-8.77-20.21-5.83-6.09-11.9-7.89-19.95-9.45-.61-.12-.8.82-.19.95,13.15,2.81,22.68,9.48,26.11,23.09,3.61,14.35-8.32,30.39-23.39,31.13-14.91.73-28.35-12.84-29.56-27.22-1.28-15.28,11.4-28.11,26.76-26.58,1.14.11,1.51-1.66.35-1.77h0Z"></path></g><g><path class="cls-7" d="M624.27,376.54c-.22-.91-.43-1.82-.63-2.74-.31-1.43-2.2-1.24-2.25.22-.02.66.02,1.33.08,1.99.93.17,1.87.35,2.8.53Z"></path><path class="cls-7" d="M606.68,359.17c.36-.01.63-.19.81-.42,6.71.51,12.86,1.04,18.72,4.95,5.47,3.63,9.56,8.51,12.39,14.22.85-.01,1.69-.04,2.53-.06-2.45-4.93-6.09-9.36-10.2-12.62-7.25-5.76-14.41-7.03-23.29-7.59-.12-.31-.4-.55-.85-.53-10.48.4-19.22,5.88-24.22,13.9.74.05,1.47.08,2.21.14,4.74-6.89,12.5-11.62,21.89-11.97Z"></path><path class="cls-7" d="M607.25,363.09c.31-.01.54-.16.69-.35,11.59.99,20.82,5.33,26.36,15.2.73,0,1.47,0,2.2,0-2.07-3.7-4.89-7-8.12-9.57-6.39-5.08-12.47-6.14-20.28-6.61-.11-.27-.34-.48-.74-.46-8.05.31-15.19,4.2-19.79,10.11.69.06,1.38.12,2.07.19,4.22-4.94,10.41-8.23,17.61-8.49Z"></path></g><text class="cls-8" transform="translate(223.33 89.2)"><tspan class="cls-2" x="0" y="0">How Do </tspan><tspan class="cls-4" x="161.23" y="0">Systematic</tspan><tspan class="cls-1"><tspan class="cls-5" x="-2.69" y="49.98">Transfer Plans</tspan><tspan class="cls-3" x="274.62" y="49.98" xml:space="preserve"> Work</tspan></tspan></text></svg>