<?xml version="1.0" encoding="utf-8"?>
<!-- Generator: Adobe Illustrator 27.8.0, SVG Export Plug-In . SVG Version: 6.00 Build 0)  -->
<svg version="1.1" id="Layer_1" xmlns="http://www.w3.org/2000/svg" xmlns:xlink="http://www.w3.org/1999/xlink" x="0px" y="0px"
	 viewBox="0 0 826 510" style="enable-background:new 0 0 826 510;" xml:space="preserve">
<style type="text/css">
	.st0{fill:#F3BC41;}
	.st1{fill:#028380;}
	.st2{fill:#646CEB;}
	.st3{fill:#A47FCF;}
	.st4{fill:#F1BD42;}
	.st5{opacity:0.39;}
	.st6{fill:#C1F347;}
	.st7{fill:#FFFFFF;}
	.st8{clip-path:url(#SVGID_00000100372350115717584630000016468957785097755283_);}
	.st9{clip-path:url(#SVGID_00000150810106130852510710000007176893749439146629_);}
	.st10{fill:#6DAAF8;}
	.st11{opacity:0.31;}
	.st12{fill:#FF6672;}
	.st13{stroke:#000000;stroke-width:0.5;stroke-miterlimit:10;}
	.st14{clip-path:url(#SVGID_00000033334662736699618740000004654350037414175121_);}
	.st15{fill:#DBA93A;}
	.st16{fill:#E83D48;}
	.st17{fill:#EB7076;}
	.st18{fill:#C0AAED;}
	.st19{fill:#B1C9F9;}
	.st20{fill:#62BFB6;}
	.st21{fill:#8FD2C7;}
	.st22{fill:#235550;}
	.st23{fill:#39807F;}
	.st24{fill:#9D80C9;}
	.st25{fill:#EF715A;}
	.st26{fill:#231F20;}
	.st27{clip-path:url(#SVGID_00000087394185612428400550000001363033117952083100_);}
	.st28{clip-path:url(#SVGID_00000180353004409944630480000017849321933934921896_);}
	.st29{stroke:#000000;stroke-miterlimit:10;}
</style>
<rect x="0" y="0" class="st12" width="826" height="510"/>
<g>
	<g>
		<g>
			<path d="M301.16,263.2c1.32-3.15,2.74-6.3,4.65-9.15c1.98-2.96,4.64-5.18,7.65-7.05c1.52-0.94,2.91-2,4.52-2.79
				c1.79-0.88,3.61-1.67,5.46-2.41c3.36-1.34,6.75-2.61,10.08-4.02c7.74-3.26,15.55-6.44,23.45-9.3c7.84-2.83,15.73-5.51,23.58-8.29
				c15.75-5.57,31.7-10.5,47.47-16c15.14-5.28,29.91-11.84,45.69-15.05c15.94-3.24,32.83-5.83,49.01-2.82
				c2.09,0.39,4.17,0.86,6.24,1.31c1.75,0.38,2.43-2.1,0.74-2.67c-7.91-2.67-16.69-3.19-24.98-2.94c-8.39,0.25-16.73,1.6-24.96,3.17
				c-16.09,3.08-31.09,9.89-46.42,15.46c-16.08,5.84-32.44,10.86-48.59,16.52c-8.03,2.82-16.01,5.77-23.97,8.78
				c-7.88,2.98-15.79,5.9-23.61,9.06c-7.13,2.88-14.12,6.02-21.14,9.16c-1.66,0.74-3.26,1.36-4.82,2.31
				c-1.41,0.85-2.67,1.82-3.81,3.01c-2.33,2.42-4.17,5.31-5.69,8.3c-0.79,1.55-1.5,3.13-2.2,4.72
				C299,263.7,300.66,264.41,301.16,263.2L301.16,263.2z"/>
		</g>
	</g>
	<g>
		<g>
			<path d="M310.44,240.65c7.88-4.82,15.88-9.39,24.1-13.63c8.41-4.34,17.25-7.51,26.18-10.58c4.94-1.7,9.86-3.4,14.65-5.49
				c1.11-0.48,0.31-2.39-0.83-1.96c-8.85,3.29-17.89,6.07-26.73,9.41c-8.72,3.29-17.2,7.59-25.14,12.46
				c-4.48,2.74-8.83,5.61-12.75,9.12C309.55,240.3,310.03,240.91,310.44,240.65L310.44,240.65z"/>
		</g>
	</g>
	<g>
		<g>
			<path d="M373.04,211.9c1.14,0.15,2.62-0.48,3.7-0.84c1.19-0.4,2.67-0.96,3.62-1.81c1.07-0.96,1.34-2.19,0.88-3.54
				c-0.11-0.34-0.46-0.89-0.46-1.2c0,0.36,0.05,0.07,0.51-0.09c0.26-0.08,0.48-0.11,0.76-0.1c1.59,0.03,3.17,0.59,4.74,0.8
				c1.75,0.24,3.28,0.05,4.93-0.6c3.43-1.34,6.43-3.69,8.73-6.54c2.65-3.28,4.46-7.07,5.02-11.26c0.12-0.92-0.87-1.69-1.7-1.7
				c-1.02-0.01-1.58,0.79-1.7,1.7c-0.86,6.46-5.89,13.12-12.17,15.14c-3.01,0.97-5.99-1.18-9-0.5c-1.29,0.29-2.71,1.19-3.01,2.56
				c-0.26,1.22,0.6,2.12,0.78,3.24c0.01,0.09-0.01,0.2,0,0.29c0.12,0.84,0.06,0.09,0.06,0.09c-0.17,0.2-0.36,0.38-0.59,0.52
				c-0.64,0.38-1.47,0.52-2.17,0.73c-1.26,0.38-2.9,0.59-3.72,1.71C371.78,211.15,372.43,211.82,373.04,211.9L373.04,211.9z"/>
		</g>
	</g>
	<g>
		<g>
			<path d="M412.13,185.78c5.72,3.89,12.45,7.35,19.59,5.94c3.46-0.69,6.69-2.51,8.82-5.32c0.91-1.2,1.68-2.56,2.82-3.56
				c0.75-0.67,2.26-1.81,3.27-1.16c1.04,0.68,1.79,2.02,2.7,2.87c0.82,0.76,1.72,1.55,2.85,1.78c1.13,0.24,2.25-0.18,3.29-0.57
				c1.79-0.66,3.58-1.33,5.39-1.95c7.59-2.59,15.65-4.26,23.55-5.6c9.04-1.53,18.27-2.29,27.42-1.45c1.48,0.14,1.47-2.17,0-2.3
				c-15.81-1.46-31.9,1.65-47.1,5.78c-3.66,0.99-7.13,2.49-10.72,3.67c-1.03,0.34-1.61,0.31-2.47-0.37
				c-1.15-0.91-1.95-2.05-2.89-3.15c-1.87-2.19-4.85-1.49-6.88,0.18c-2.44,2.01-3.45,5.14-6.23,6.8c-3.58,2.13-7.65,2.7-11.7,1.8
				c-3.94-0.88-7.67-2.67-11.39-4.16C411.99,184.8,411.75,185.52,412.13,185.78L412.13,185.78z"/>
		</g>
	</g>
	<g>
		<g>
			<path d="M510.69,176.42c2.47,2.15,6.15,2.05,9.22,1.8c3.4-0.27,6.73-0.98,10.09-1.5c5.38-0.83,10.72-1.87,16.02-3.09
				c4.17-0.96,8.46-1.84,12.5-3.26c2.69-0.95,5.38-1.95,8.18-2.57c1.16-0.26,2.49-0.55,3.68-0.33c0.16,0.03,0.35,0.11,0.48,0.14
				c0.22,0.06,0.1,0.17,0.15,0.06c-0.06,0.11-0.08-0.44-0.08-0.29c-0.02-0.26,0.16-0.24,0-0.17c-0.11,0.04,0.11-0.11-0.09,0.1
				c-0.1,0.1-0.21,0.2-0.31,0.29c-0.22,0.19-0.49,0.37-0.82,0.56c-0.87,0.51-1.78,0.95-2.7,1.37c-2.44,1.11-4.96,2.04-7.48,2.94
				c-2.89,1.03-5.8,2.01-8.71,2.97c-1.15,0.38-2.31,0.72-3.42,1.21c-0.36,0.16-0.73,0.32-1.09,0.48c-0.15,0.07-0.31,0.14-0.46,0.21
				c-0.06,0.03-0.42,0.2-0.18,0.1c-1.06,0.43-0.6,2.17,0.48,1.73c0.56-0.23,1.22-0.32,1.8-0.46c0.98-0.23,1.92-0.55,2.88-0.87
				c2.7-0.89,5.4-1.79,8.08-2.74c2.75-0.97,5.48-1.99,8.16-3.14c1.8-0.77,3.83-1.59,5.32-2.9c1.48-1.3,1.06-3.13-0.79-3.82
				c-2.62-0.97-6.01,0.18-8.53,0.95c-2.69,0.82-5.29,1.88-8,2.6c-5.49,1.47-11.03,2.78-16.61,3.89c-4.89,0.97-9.83,1.81-14.75,2.61
				c-2.17,0.35-4.37,0.63-6.57,0.61c-1.73-0.02-3.66-0.2-5.12-1.22C511.01,174,509.76,175.61,510.69,176.42L510.69,176.42z"/>
		</g>
	</g>
	<g>
		<g>
			<path d="M530.21,187.5c0.87,0.28,1.93,0.21,2.85,0.23c0.73,0.02,1.46,0,2.19-0.1c1.6-0.21,2.9-0.77,4.19-1.74
				c1.64-1.24,3.08-2.72,4.66-4.04c1.65-1.38,3.45-2.57,5.28-3.7c0.97-0.6,0.35-2.38-0.81-1.93c-3.93,1.52-6.8,4.36-9.97,7.01
				c-1.04,0.87-2.29,1.7-3.64,1.98c-1.55,0.32-3.21-0.16-4.73,0.21C529.13,185.69,529.24,187.18,530.21,187.5L530.21,187.5z"/>
		</g>
	</g>
	<g>
		<g>
			<path d="M300.06,262.75c-1.12,0.45-2.38,0.76-3.57,1c-1.04,0.21-2.41,0.49-3.2-0.38c-1.68-1.86-2.18-4.45-4.43-5.89
				c-2.08-1.33-4.81-1.41-7.19-1.32c-2.68,0.1-5.35,0.48-8.03,0.54c-2.6,0.06-5.44-0.11-7.27-2.2c0,0.7,0,1.41,0,2.11
				c2.03-2.57,4.97-4.21,7.88-5.59c3.14-1.48,6.4-2.69,9.66-3.89c3.73-1.37,7.42-2.84,11.2-4.1c4.74-1.58,9.51-3.05,14.28-4.55
				c0.96-0.3,0.55-1.79-0.42-1.51c-8.8,2.62-17.52,5.43-26.3,8.1c-3.45,1.05-6.88,2.14-10.16,3.65c-3.03,1.39-6.11,3.15-8.25,5.77
				c-0.54,0.66-0.57,1.44,0,2.11c3.76,4.42,10.6,3.15,15.67,2.87c2.2-0.12,5.49-0.5,7.39,0.9c1.01,0.74,1.55,2.01,2.21,3.03
				c0.69,1.07,1.56,2.13,2.72,2.71c2.67,1.35,6.39-0.55,8.45-2.27C301.2,263.45,300.67,262.5,300.06,262.75L300.06,262.75z"/>
		</g>
	</g>
	<g>
		<g>
			<path d="M408.41,193.28c-0.38,0.69-0.87,1.29-1.28,1.96c-0.44,0.72-0.84,1.45-1.21,2.21c-0.73,1.5-1.37,3.02-1.59,4.69
				c-0.07,0.51,0.42,1.05,0.89,1.17c1.47,0.37,2.95-0.44,4.25-1.03c0.32-0.14,0.31-0.14,0.64-0.26c0.48-0.17,0.97-0.33,1.45-0.5
				c0.97-0.34,1.94-0.66,2.91-1c0.91-0.32,1.81-0.66,2.71-0.99c0.75-0.28,1.66-0.53,2.1-1.27c0.51-0.85,0.2-1.76-0.41-2.45
				c-0.56-0.64-1.37-0.93-2.17-1.11c-0.8-0.18-1.55-0.37-2.3-0.71c-1.07-0.47-2.05-0.94-3.21-1.1c-0.58-0.08-1.15,0.09-1.38,0.68
				c-0.2,0.5-0.05,1.21,0.48,1.46c1.67,0.8,3.34,1.93,5.18,2.25c0.39,0.07,0.78,0.12,1.16,0.23c0.26,0.08,0.03-0.04,0.24,0.1
				c-0.1-0.09-0.07-0.06,0.1,0.1c-0.12-0.09-0.11-0.23,0.01-0.43c-0.08-0.3,0.01-0.53,0.27-0.68c-0.07,0.05-0.15,0.09-0.23,0.13
				c0.09-0.05-0.28,0.11-0.28,0.11c-0.47,0.18-0.93,0.36-1.4,0.54c-1.99,0.75-4.03,1.38-6.01,2.18c-0.67,0.27-1.3,0.6-1.95,0.91
				c-0.31,0.15-0.61,0.28-0.94,0.38c-0.14,0.04-0.29,0.09-0.44,0.11c0.18-0.02-0.4-0.06-0.12,0c0.3,0.39,0.59,0.78,0.89,1.17
				c0.13-1.4,0.72-2.76,1.28-4.04c0.32-0.73,0.62-1.46,0.88-2.21c0.25-0.72,0.35-1.45,0.49-2.19
				C409.52,193.13,408.72,192.7,408.41,193.28L408.41,193.28z"/>
		</g>
	</g>
	<g>
		<g>
			<path d="M411.41,183.45c1.02-4.07,1.56-8.5,1.33-12.7c-0.23-4.12-1.6-7.98-3.39-11.66c-3.21-6.62-7.74-12.48-11.15-19
				c-1.93-3.68-3.17-7.58-4.42-11.52c-0.42-1.34-2.5-1.13-2.49,0.34c0.04,7.17,4.39,13.93,8.08,19.81
				c3.88,6.19,8.56,12.63,9.82,19.99c0.83,4.85-0.09,9.56-0.2,14.41C408.96,184.51,411.07,184.8,411.41,183.45L411.41,183.45z"/>
		</g>
	</g>
	<g>
		<g>
			<path d="M393.66,136.72c1.68,3.97,1.75,8.48,1.76,12.73c0.01,3.38,0.18,6.73,0.42,10.1c0.44,6.02,0.91,12.36,3.2,18.01
				c1.18,2.92,2.91,5.51,5.57,7.26c1.1,0.73,2.09-1.02,1.03-1.75c-4.69-3.25-6.29-9.85-7.24-15.13c-1.12-6.21-1.49-12.63-1.61-18.92
				c-0.09-4.42-0.41-8.67-2.58-12.61C394,136.04,393.5,136.36,393.66,136.72L393.66,136.72z"/>
		</g>
	</g>
	<g>
		<g>
			<path d="M404.85,174.11c-0.65-1.16-1.06-2.41-1.55-3.63c-0.61-1.51-1.09-3.06-1.56-4.62c-0.79-2.66-1.41-5.67-0.96-8.44
				c-0.29,0.17-0.59,0.33-0.88,0.5c0.56,0.13,1.11,1.01,1.4,1.46c0.37,0.59,0.66,1.23,0.88,1.9c0.55,1.61,0.81,3.31,0.97,5
				c0.3,3.11,0.05,6.3,0.54,9.38c0.14,0.87,1.58,0.67,1.53-0.21c-0.18-3.38-0.24-6.8-0.7-10.16c-0.24-1.74-0.58-3.49-1.27-5.11
				c-0.29-0.68-0.63-1.33-1.08-1.93c-0.45-0.6-1.1-0.97-1.57-1.53c-0.23-0.27-0.78-0.28-1.01,0c-2.08,2.55-0.99,6.57-0.14,9.39
				c0.95,3.15,2.43,6.14,4.46,8.73C404.33,175.4,405.17,174.69,404.85,174.11L404.85,174.11z"/>
		</g>
	</g>
</g>
<g>
	<g>
		<path d="M410.81,207.72c-0.79,7.77-0.94,15.65-1.33,23.46c-0.39,7.82-0.66,15.64-0.97,23.46c-0.61,15.45-1.36,30.89-1.75,46.35
			c-0.39,15.36-0.31,30.74-0.2,46.1c0.06,7.76,0.12,15.53,0.12,23.29c0,7.47,0.06,14.92,0.58,22.38c0.52,7.48,1.36,14.98,2.8,22.34
			c1,5.09,2.73,11.31,7.82,13.74c1.66,0.79,3.12-1.6,1.46-2.5c-4.08-2.19-5.42-7.59-6.28-11.77c-1.32-6.38-2.11-12.89-2.67-19.38
			c-1.28-14.99-0.91-30.09-1.06-45.12c-0.15-15.04-0.29-30.08-0.02-45.12c0.27-15.28,0.99-30.55,1.55-45.81
			c0.31-8.49,0.63-16.97,0.97-25.46c0.17-4.32,0.29-8.65,0.44-12.98c0.15-4.32,0.4-8.65,0.36-12.98
			C412.61,206.53,410.92,206.58,410.81,207.72L410.81,207.72z"/>
	</g>
</g>
<g>
	<g>
		<path d="M417.7,207.74c0.47,7.59,1.53,15.17,2.32,22.73c0.79,7.58,1.68,15.16,2.51,22.74c1.66,15.15,3.42,30.3,4.91,45.47
			c1.48,15.14,2.48,30.33,3.43,45.51c0.47,7.59,0.94,15.18,1.43,22.77c0.48,7.47,1.02,14.93,1.09,22.42
			c0.08,7.78-0.25,15.56-1.08,23.3c-0.49,4.55-1.22,11-5.54,13.63c-1.59,0.97-0.18,3.39,1.46,2.5c4.4-2.41,5.91-7.68,6.63-12.3
			c0.98-6.21,1.28-12.58,1.42-18.86c0.34-15.36-1.22-30.7-2.21-46.02c-0.99-15.35-1.96-30.71-3.36-46.03
			c-1.41-15.51-3.29-30.97-5.02-46.45c-0.96-8.57-1.92-17.14-2.9-25.71c-0.49-4.29-1.04-8.57-1.57-12.85
			c-0.54-4.37-0.99-8.76-1.75-13.09C419.31,206.5,417.64,206.72,417.7,207.74L417.7,207.74z"/>
	</g>
</g>
<g>
	<g>
		<path d="M410.66,249.1c1.74,0.16,3.49,0.12,5.22-0.05c1.8-0.18,3.61-0.43,5.32-1.03c0.77-0.27,1.28-1.03,1.05-1.85
			c-0.23-0.82-1.05-1.22-1.85-1.05c-3.27,0.7-6.3,1.16-9.74,0.85c-0.82-0.07-1.6,0.77-1.56,1.56
			C409.14,248.45,409.79,249.02,410.66,249.1L410.66,249.1z"/>
	</g>
</g>
<g>
	<g>
		<path d="M410.48,253.51c3.67,0.6,7.17-1.07,10.8-1.29c1.05-0.06,1.06-1.71,0-1.64c-1.8,0.12-3.56,0.53-5.32,0.92
			c-1.75,0.38-3.51,0.66-5.3,0.67C409.92,252.17,409.69,253.38,410.48,253.51L410.48,253.51z"/>
	</g>
</g>
<g>
	<g>
		<path d="M417.81,436.66c0.08-0.66,0.17-1.32,0.33-1.96c0.16-0.62,0.29-1.26,0.47-1.88c0.31-1.07,0.98-1.91,2.06-2.36
			c0.73-0.31,1.55-0.46,2.33-0.5c0.32-0.01,0.64-0.01,0.96,0.03c-0.2-0.03,0.23,0.05,0.28,0.07c0.08,0.02,0.16,0.04,0.24,0.07
			c0.03,0.01,0.27,0.1,0.13,0.04c-0.15-0.06,0.11,0.06,0.12,0.06c0.05,0.03,0.1,0.06,0.15,0.09c0.08,0.05,0.31,0.23,0.12,0.07
			c0.1,0.08,0.19,0.17,0.28,0.26c0.05,0.05,0.09,0.1,0.14,0.16c-0.09-0.11-0.07-0.11,0,0c0.07,0.11,0.14,0.21,0.2,0.33
			c0.05,0.09,0.15,0.35,0.06,0.12c0.1,0.27,0.18,0.54,0.24,0.81c0.01,0.06,0.03,0.12,0.04,0.18c0.01,0.03,0.06,0.34,0.03,0.17
			c-0.02-0.16,0,0.04,0.01,0.08c0.01,0.1,0.02,0.19,0.03,0.29c0.02,0.33,0.03,0.66,0.02,0.99c-0.01,0.69-0.08,1.39-0.17,2.07
			c-0.08,0.64,0.61,1.2,1.2,1.2c0.7,0,1.12-0.55,1.2-1.2c0.28-2.59,0.29-6.19-2.41-7.56c-1.59-0.81-3.61-0.63-5.25-0.09
			c-1.72,0.57-3.06,1.69-3.74,3.38c-0.35,0.86-0.5,1.77-0.37,2.69c0.12,0.84,0.32,1.67,0.55,2.49
			C417.17,437.22,417.76,437.08,417.81,436.66L417.81,436.66z"/>
	</g>
</g>
<g>
	<g>
		<path d="M414.24,439.29c2.26,0.34,4.62,0.3,6.91,0.31c2.3,0.01,4.59,0.01,6.89,0.02c1.72,0,1.72-2.68,0-2.68
			c-2.3,0.01-4.59,0.01-6.89,0.02c-2.29,0.01-4.65-0.04-6.91,0.31C413.24,437.41,413.24,439.13,414.24,439.29L414.24,439.29z"/>
	</g>
</g>
<g>
	<g>
		<path d="M412.06,439.48c0.21,2.25,0.07,4.56-1.06,6.57c-0.93,1.65-2.38,2.9-3.98,3.88c-3.87,2.37-8.39,3.47-12.62,5
			c-3.51,1.27-6.92,2.91-10.13,4.84c-3.3,1.99-6.71,4.39-8.84,7.67c-2.3,3.54-1.82,7.69,1.45,10.44c1.3,1.09,3.09-0.62,1.89-1.89
			c-1-1.06-1.95-2.35-1.99-3.87c-0.04-1.41,0.68-2.73,1.49-3.83c2.23-3.03,5.66-5.21,8.89-7.04c3.13-1.78,6.41-3.25,9.8-4.46
			c4.14-1.48,8.62-2.79,12.21-5.42c3.93-2.87,5.51-7.09,4.92-11.89C413.94,438.21,411.94,438.16,412.06,439.48L412.06,439.48z"/>
	</g>
</g>
<g>
	<g>
		<path d="M428.25,439.28c1.49,5.71,4.14,11.93,9.5,14.97c3.5,1.98,7.4,2.38,11.32,2.76c4.15,0.4,8.82,0.93,11.99,3.94
			c2.33,2.22,5.63,7.31,3.05,10.44c-1.28,1.55,0.95,3.79,2.22,2.22c2.66-3.29,1.85-7.56-0.14-10.98c-2.17-3.74-5.56-6.25-9.72-7.39
			c-7.43-2.03-16.47-0.05-21.72-6.99c-2.21-2.92-3.31-6.41-5.07-9.57C429.25,437.89,428.03,438.43,428.25,439.28L428.25,439.28z"/>
	</g>
</g>
<g>
	<g>
		<path d="M380.24,477.92c2.98,0.03,5.95,0.33,8.93,0.41c2.98,0.09,5.96,0.11,8.94,0.08c5.88-0.06,11.76-0.15,17.64-0.25
			c11.64-0.2,23.28-0.46,34.92-0.62c6.45-0.09,12.97-0.3,19.32-1.52c2.01-0.39,1.12-3.32-0.83-3.03
			c-11.28,1.71-22.67,1.39-34.04,1.67c-11.67,0.29-23.34,0.76-35.01,1.13c-3.31,0.1-6.62,0.2-9.93,0.38
			c-3.31,0.17-6.61,0.53-9.93,0.57C379.48,476.75,379.48,477.92,380.24,477.92L380.24,477.92z"/>
	</g>
</g>
<g>
	<g>
		<path d="M375.71,475.2c2.77,0.5,5.77,0.27,8.58,0.27c2.87,0,5.74-0.12,8.61-0.23c5.81-0.23,11.61-0.56,17.41-0.95
			c11.59-0.78,23.17-1.71,34.77-2.27c6.55-0.31,13.11-0.53,19.66-0.58c1.74-0.02,1.75-2.7,0-2.71c-23.27-0.17-46.43,2.78-69.63,4.1
			c-3.28,0.19-6.56,0.3-9.84,0.46c-3.14,0.15-6.48-0.02-9.56,0.54C375.03,473.95,375.02,475.08,375.71,475.2L375.71,475.2z"/>
	</g>
</g>
<g>
	<g>
		<g>
			<path d="M345.81,432.92c0.32,0.85,0.22,1.31,0.37,2.21c0.13,0.83,0.24,1.65,0.37,2.48c0.12,0.78,0.25,1.57,0.53,2.31
				c0.32,0.84,0.91,1.98,1.84,2.23c0.8,0.21,1.86-0.6,1.49-1.49c-0.13-0.31-0.29-0.57-0.53-0.8c-0.16-0.16,0.07,0.14,0.01,0.02
				c-0.04-0.08-0.1-0.15-0.15-0.22c-0.09-0.14-0.16-0.29-0.23-0.44c0.09,0.19,0.03,0.09-0.02-0.05c-0.03-0.08-0.06-0.15-0.09-0.23
				c-0.27-0.74-0.43-1.52-0.57-2.29c-0.14-0.76-0.21-1.6-0.5-2.32c-0.31-0.77-0.7-1.51-1.24-2.14
				C346.6,431.62,345.54,432.21,345.81,432.92L345.81,432.92z"/>
		</g>
	</g>
	<g>
		<g>
			<g>
				<path d="M239.2,432.64c0.73,0,0.73-1.13,0-1.13C238.47,431.5,238.47,432.64,239.2,432.64L239.2,432.64z"/>
			</g>
		</g>
		<g>
			<g>
				<path d="M218.13,435.41c-1.94,0.86-4.61,1.94-5.51,4.05c-0.92,2.17,0.62,4.36,2.24,5.7c3.48,2.87,8.6,3.6,12.95,4.05
					c12.55,1.32,25.26,1.58,37.87,1.63c24.44,0.1,49.75,1.27,72.96-7.69c3.91-1.51,10.26-3.96,10.11-9.08
					c-0.16-5.45-6.74-5-10.57-5.4c-1.63-0.17-2.02,2.6-0.39,2.88c1.72,0.29,3.48,0.33,5.19,0.66c1.25,0.24,2.71,0.61,2.62,2.14
					c-0.1,1.61-1.7,2.69-2.94,3.46c-1.68,1.04-3.51,1.82-5.35,2.53c-10.15,3.88-20.74,5.92-31.54,6.84
					c-11.47,0.98-22.98,0.87-34.48,0.87c-12.38-0.01-24.7-0.22-37.06-0.93c-4.64-0.27-9.44-0.41-13.93-1.74
					c-2.16-0.64-4.36-1.63-5.64-3.59c-1.69-2.6,2.25-4.41,4.09-5.33C219.45,436.1,218.83,435.1,218.13,435.41L218.13,435.41z"/>
			</g>
		</g>
		<g>
			<g>
				<path d="M217.05,450.62c2.38,2.36,5.98,3.58,9.2,4.18c3.55,0.66,7.17,0.93,10.76,1.2c10.88,0.81,21.78,1.1,32.69,1.14
					c19.97,0.08,40.39,0.88,59.93-4.01c4.48-1.12,8.91-2.56,13.15-4.37c3.09-1.32,7.59-3.36,8.16-7.13c0.27-1.81-2.4-2.66-2.83-0.78
					c-0.6,2.69-4.59,4.21-6.82,5.14c-3.52,1.46-7.16,2.69-10.83,3.7c-9.27,2.55-18.87,3.67-28.45,4.2
					c-9.64,0.53-19.3,0.45-28.95,0.45c-10.6,0-21.19,0.01-31.77-0.61c-4.07-0.24-8.17-0.34-12.23-0.75
					c-3.63-0.37-8.29-0.69-11.15-3.22C217.33,449.25,216.49,450.07,217.05,450.62L217.05,450.62z"/>
			</g>
		</g>
		<g>
			<g>
				<path d="M212.42,440.95c-0.46,0.92-0.16,2.32,0.11,3.27c0.31,1.1,0.85,2.11,1.51,3.03c0.67,0.94,1.44,1.81,2.29,2.59
					c0.78,0.72,1.68,1.56,2.65,2c0.64,0.29,1.46-0.53,0.82-1.07c-0.76-0.65-1.63-1.15-2.39-1.81c-0.79-0.68-1.53-1.43-2.16-2.26
					c-0.62-0.81-1.15-1.71-1.53-2.66c-0.18-0.46-0.32-0.93-0.41-1.41c-0.1-0.52-0.03-1.08-0.19-1.59
					C213.04,440.74,212.58,440.64,212.42,440.95L212.42,440.95z"/>
			</g>
		</g>
	</g>
</g>
<g>
	<g>
		<g>
			<path d="M660.1,328.25c0.32,0.85,0.22,1.31,0.37,2.21c0.13,0.83,0.24,1.65,0.37,2.48c0.12,0.78,0.25,1.57,0.53,2.31
				c0.32,0.84,0.91,1.98,1.84,2.23c0.8,0.21,1.86-0.6,1.49-1.49c-0.13-0.31-0.29-0.57-0.53-0.8c-0.16-0.16,0.07,0.14,0.01,0.02
				c-0.04-0.08-0.1-0.15-0.15-0.22c-0.09-0.14-0.16-0.29-0.23-0.44c0.09,0.19,0.03,0.09-0.02-0.05c-0.03-0.08-0.06-0.15-0.09-0.23
				c-0.27-0.74-0.43-1.52-0.57-2.29c-0.14-0.76-0.21-1.6-0.5-2.32c-0.31-0.77-0.7-1.51-1.24-2.14
				C660.89,326.95,659.84,327.55,660.1,328.25L660.1,328.25z"/>
		</g>
	</g>
	<g>
		<g>
			<g>
				<path d="M553.49,327.97c0.73,0,0.73-1.13,0-1.13C552.76,326.84,552.76,327.97,553.49,327.97L553.49,327.97z"/>
			</g>
		</g>
		<g>
			<g>
				<path d="M532.42,330.74c-1.94,0.86-4.61,1.94-5.51,4.05c-0.92,2.17,0.62,4.36,2.24,5.7c3.48,2.87,8.6,3.6,12.95,4.05
					c12.55,1.32,25.26,1.58,37.87,1.63c24.44,0.1,49.75,1.27,72.96-7.69c3.91-1.51,10.26-3.96,10.11-9.08
					c-0.16-5.45-6.74-5-10.57-5.4c-1.63-0.17-2.02,2.6-0.39,2.88c1.72,0.29,3.48,0.33,5.19,0.66c1.25,0.24,2.71,0.61,2.62,2.14
					c-0.1,1.61-1.7,2.69-2.94,3.46c-1.68,1.04-3.51,1.82-5.35,2.53c-10.15,3.88-20.74,5.92-31.54,6.84
					c-11.47,0.98-22.98,0.87-34.48,0.87c-12.38-0.01-24.7-0.22-37.06-0.93c-4.64-0.27-9.44-0.41-13.93-1.74
					c-2.16-0.64-4.36-1.63-5.64-3.59c-1.69-2.6,2.25-4.41,4.09-5.33C533.74,331.43,533.12,330.43,532.42,330.74L532.42,330.74z"/>
			</g>
		</g>
		<g>
			<g>
				<path d="M531.34,345.95c2.38,2.36,5.98,3.58,9.2,4.18c3.55,0.66,7.17,0.93,10.76,1.2c10.88,0.81,21.78,1.1,32.69,1.14
					c19.97,0.08,40.39,0.88,59.93-4.01c4.48-1.12,8.91-2.56,13.15-4.37c3.09-1.32,7.59-3.36,8.16-7.13c0.27-1.81-2.4-2.66-2.83-0.78
					c-0.6,2.69-4.59,4.21-6.82,5.14c-3.52,1.46-7.16,2.69-10.83,3.7c-9.27,2.55-18.87,3.67-28.45,4.2
					c-9.64,0.53-19.3,0.45-28.95,0.45c-10.6,0-21.19,0.01-31.77-0.61c-4.07-0.24-8.17-0.34-12.23-0.75
					c-3.63-0.37-8.29-0.7-11.15-3.22C531.62,344.59,530.78,345.4,531.34,345.95L531.34,345.95z"/>
			</g>
		</g>
		<g>
			<g>
				<path d="M526.71,336.28c-0.46,0.92-0.16,2.32,0.11,3.27c0.31,1.1,0.85,2.11,1.51,3.03c0.67,0.94,1.44,1.81,2.29,2.59
					c0.78,0.72,1.68,1.56,2.65,2c0.64,0.29,1.46-0.53,0.82-1.07c-0.76-0.65-1.63-1.15-2.39-1.81c-0.79-0.68-1.53-1.43-2.16-2.26
					c-0.62-0.81-1.15-1.71-1.53-2.66c-0.18-0.46-0.32-0.93-0.41-1.41c-0.1-0.52-0.03-1.08-0.19-1.59
					C527.33,336.07,526.87,335.97,526.71,336.28L526.71,336.28z"/>
			</g>
		</g>
	</g>
</g>
<g>
	<g>
		<path d="M229.61,395.84c-2.19,1.74-3.59,4.21-4.88,6.66c-1.27,2.42-2.28,4.95-3.09,7.56c-1.42,4.55-2.25,9.28-2.72,14.02
			c-0.39,3.95-0.69,8.51,1.08,12.19c1.58,3.29,5.61,5.01,8.91,6.01c4.07,1.23,8.51,1.68,12.74,1.29c3.75-0.34,7.75-1.22,10.69-3.71
			c3.33-2.83,4.34-7.47,4.4-11.64c0.06-4.19-0.73-8.5-2.07-12.46c-1.75-5.18-5.4-9.26-9.69-12.53c-4.16-3.16-9.11-6.05-14.09-7.68
			c-1.67-0.54-2.72,1.98-1.19,2.83c3.74,2.09,7.67,3.69,11.26,6.07c3.55,2.36,6.9,5.28,9.05,9.02c1.86,3.22,2.75,7.15,3.19,10.81
			c0.44,3.67,0.55,7.88-1.35,11.19c-1.67,2.93-4.9,4.1-8.05,4.71c-3.72,0.73-7.71,0.68-11.44,0.02c-3.15-0.56-6.9-1.53-9.22-3.89
			c-2.42-2.45-2.06-7.19-1.88-10.33c0.26-4.61,0.92-9.25,2.08-13.71c0.75-2.86,1.71-5.7,2.87-8.42c1.13-2.64,2.69-5.05,3.84-7.68
			C230.15,395.88,229.85,395.65,229.61,395.84L229.61,395.84z"/>
	</g>
</g>
<g>
	<g>
		<path d="M225.57,403.29c-0.07-0.38-0.44-0.68-0.73-0.93c-0.17-0.15-0.36-0.3-0.56-0.41c-0.17-0.09,0.21,0.19,0.05,0.04
			c-0.05-0.05-0.11-0.1-0.17-0.15c-0.05-0.04-0.09-0.1-0.14-0.13c-0.19-0.15,0.1,0.2,0.05,0.07c-0.02-0.05-0.06-0.11-0.1-0.15
			c-0.14-0.21,0.02,0.09,0.02,0.06c0-0.02-0.04-0.16-0.05-0.17c-0.01,0-0.02-0.08-0.02-0.09c-0.06-0.13,0.26,0,0.02,0.2
			c0.02-0.01,0-0.35-0.01-0.39c-0.02-0.22-0.07,0.32-0.02,0.1c0.02-0.06,0.03-0.13,0.04-0.19c0.04-0.14,0.1-0.28,0.13-0.43
			c0.04-0.15-0.15,0.3-0.02,0.05c0.03-0.07,0.07-0.14,0.1-0.21c0.08-0.15,0.17-0.3,0.26-0.45c0.09-0.15,0.19-0.29,0.29-0.43
			c0.03-0.04,0.06-0.07,0.08-0.11c0.08-0.13-0.18,0.22-0.08,0.1c0.07-0.08,0.13-0.16,0.2-0.24c0.27-0.32,0.55-0.62,0.85-0.91
			c0.3-0.29,0.6-0.58,0.92-0.85c0.16-0.14,0.33-0.28,0.5-0.41c0.27-0.22-0.12,0.09,0.05-0.04c0.11-0.08,0.22-0.16,0.33-0.24
			c0.72-0.53,1.49-1,2.28-1.4c0.19-0.09,0.38-0.19,0.57-0.27c0.09-0.04,0.41-0.16,0.04-0.02c0.11-0.04,0.21-0.09,0.32-0.13
			c0.37-0.14,0.75-0.27,1.14-0.36c0.18-0.04,0.36-0.08,0.53-0.11c0.21-0.04,0.21-0.02-0.02,0c0.11-0.01,0.21-0.02,0.32-0.03
			c0.15-0.01,0.31-0.01,0.46-0.01c0.08,0,0.16,0.01,0.24,0.01c0.35,0.02-0.2-0.06-0.03-0.01c0.17,0.05,0.34,0.08,0.51,0.13
			c0.31,0.09-0.16-0.11-0.04-0.02c0.07,0.05,0.16,0.09,0.23,0.13c0.05,0.03,0.29,0.21,0.09,0.05c-0.21-0.16,0.03,0.03,0.07,0.07
			c0.06,0.06,0.12,0.15,0.19,0.2c0.11,0.09-0.18-0.29-0.02-0.01c0.04,0.08,0.09,0.15,0.14,0.23c0.03,0.06,0.15,0.36,0.07,0.13
			c-0.08-0.23,0.03,0.1,0.05,0.16c0.04,0.11,0.07,0.23,0.09,0.34c0.02,0.11,0.03,0.23,0.06,0.33c0.05,0.15-0.01-0.28-0.01-0.11
			c0,0.07,0.01,0.14,0.02,0.2c0.03,0.3,0.04,0.6,0.05,0.9c0.07,1.65,2.38,1.61,2.53,0c0.2-2.11-0.68-4.31-2.75-5.09
			c-1.78-0.68-3.84-0.03-5.5,0.69c-1.87,0.81-3.62,2.03-5.08,3.45c-1.26,1.23-2.55,2.89-2.68,4.71c-0.06,0.89,0.27,1.81,0.95,2.41
			c0.47,0.41,1.09,0.71,1.72,0.72C224.67,404.26,225.71,404.05,225.57,403.29L225.57,403.29z"/>
	</g>
</g>
<g>
	<g>
		<path d="M222.26,399.34c-1.4-0.35-2.85-1.06-4.17-1.65c-1.68-0.76-3.41-1.65-4.77-2.91c-1.13-1.05-1.63-1.99-0.5-3.25
			c1.23-1.38,3-2.64,4.73-3.3c0.85-0.32,1.36-0.14,2.2,0.05c0.49,0.11,0.98,0.15,1.48,0.22c0.18,0.03,0.36,0.03,0.54,0.1
			c0.12,0.08,0.12,0.08,0.01-0.01c0.07,0.05,0.14,0.11,0.21,0.16c1.5,0.69,3.24-1.25,4-2.35c1.08-1.57,2.17-3.04,3.74-4.19
			c0.32-0.23,0.64-0.41,1-0.59c0.07-0.04,0.5-0.05,0.28-0.13c0.19,0.07,0.42,1.1,0.49,1.43c0.73,3.2,0.87,6.82,0.64,10.09
			c-0.1,1.34,2,1.34,2.09,0c0.24-3.43,0.03-7.19-0.72-10.54c-0.29-1.31-0.8-2.94-2.4-2.98c-1.98-0.05-3.78,2-5.01,3.32
			c-0.77,0.82-1.3,1.77-1.95,2.69c-0.39,0.55-0.85,0.89-1.42,1.24c-0.33,0.2-0.64,0.21,0.03,0.3c0.74,0.1,0.34-0.05,0.06-0.21
			c-0.89-0.52-2.15-0.48-3.14-0.75c-1.04-0.28-1.96-0.21-2.97,0.19c-3.15,1.23-8.92,4.87-6.16,8.82c1.31,1.87,3.51,3.08,5.54,4.02
			c1.94,0.9,3.88,1.59,6,1.73C222.91,400.87,223.08,399.54,222.26,399.34L222.26,399.34z"/>
	</g>
</g>
<g>
	<g>
		<path d="M222.8,387.78c0.29,0.63,0.64,1.23,1.01,1.81c0.36,0.57,0.75,1.12,1.11,1.69c0.16,0.26,0.54,0.39,0.81,0.21
			c0.25-0.16,0.41-0.54,0.21-0.81c-0.42-0.57-0.86-1.11-1.33-1.63c-0.45-0.51-0.89-1.02-1.27-1.59
			C223.11,387.12,222.64,387.41,222.8,387.78L222.8,387.78z"/>
	</g>
</g>
<g>
	<g>
		<path d="M228.12,415.75c4.95,0.62,10.03-0.94,14.71-2.33c1.16-0.35,0.68-2.07-0.5-1.81c-2.38,0.54-4.7,1.24-7.05,1.87
			c-2.34,0.63-4.73,1.21-7.17,1.17C227.39,414.64,227.44,415.66,228.12,415.75L228.12,415.75z"/>
	</g>
</g>
<g>
	<g>
		<path d="M236.09,415.61c0.79,0.5,1.39,1,1.32,2c-0.07,1.04-0.63,2.03-1.21,2.87c-1.12,1.61-3.22,3.7-5.29,3.73
			c-0.96,0.01-1.54,1.26-0.81,1.95c3.21,3.02,6.86,5.5,10.51,7.96c1.34,0.9,2.6-1.27,1.26-2.16c-3.49-2.32-6.94-4.71-10.16-7.41
			c-0.27,0.65-0.54,1.3-0.81,1.95c3.1-0.21,5.82-2.82,7.33-5.36c1.38-2.31,1.95-6.29-1.48-7.09
			C235.8,413.81,235.26,415.08,236.09,415.61L236.09,415.61z"/>
	</g>
</g>
<g>
	<g>
		<path d="M229.8,421.53c5.06-0.49,10.05-1.58,15.14-1.82c1.05-0.05,1.04-1.7,0-1.62c-5.09,0.38-10.07,1.61-15.14,2.22
			C229.04,420.4,229.01,421.6,229.8,421.53L229.8,421.53z"/>
	</g>
</g>
<g>
	<g>
		<path d="M251.53,411.65c1.07-5.63,2.45-15.71,10.21-15.1c6.51,0.51,11.66,6.34,14.61,11.65c1.68,3.02,2.96,6.23,4.22,9.44
			c1.13,2.88,2.55,5.7,3.43,8.67c0.9,3.03,0.78,5.99-1.96,7.98c-2.33,1.69-5.22,2.31-8.04,2.54c-6.71,0.54-13.3-1.15-19.98-1.16
			c-1.35,0-1.35,2.08,0,2.09c6.74,0.06,13.38,1.83,20.15,1.29c3.09-0.25,6.26-1.02,8.81-2.85c2.8-2.01,3.99-4.88,3.48-8.29
			c-0.5-3.36-2.21-6.41-3.44-9.54c-1.43-3.61-2.81-7.26-4.67-10.69c-3.22-5.95-8.68-11.99-15.72-13.08
			c-3.82-0.59-7.03,0.92-9.19,4.09c-2.54,3.74-3.76,8.47-3,12.93C250.54,412.19,251.43,412.18,251.53,411.65L251.53,411.65z"/>
	</g>
</g>
<g>
	<g>
		<path d="M251.68,400.93c0.24-1.36,0.17-3.31,1.35-4.27c1.21-0.99,3.1-1.17,4.57-1.5c3.31-0.74,7.92-1.99,10.56,0.86
			c0.73,0.79,1.99-0.22,1.47-1.14c-1.15-2.03-3.66-2.6-5.83-2.63c-2.3-0.04-4.6,0.45-6.84,0.94c-1.85,0.41-4.02,0.76-5.42,2.17
			c-1.44,1.44-1.59,3.68-1.24,5.57C250.42,401.61,251.56,401.61,251.68,400.93L251.68,400.93z"/>
	</g>
</g>
<g>
	<g>
		<path d="M250.41,395.48c-0.22-0.59-0.4-1.14-0.85-1.61c-0.51-0.53-1.12-0.99-1.7-1.44c-1.15-0.9-2.36-1.73-3.46-2.69
			c-0.68-0.59-1.77-1.46-1.87-2.44c-0.13-1.23,1.74-2.34,2.68-2.66c1.42-0.48,2.87,0.45,4.33,0.12c1.87-0.42,3.18-2.03,5.02-2.43
			c2.19-0.47,4.46,0.4,6.69,0.07c0.7-0.1,1.36-0.34,2.05-0.47c0.69-0.13,0.93,0.13,1.25,0.77c0.82,1.65,0.2,3.81-0.32,5.46
			c-0.55,1.76-1.3,3.48-2.28,5.05c-0.64,1.03,1,1.98,1.62,0.95c0.98-1.63,1.75-3.42,2.34-5.23c0.59-1.83,1.09-3.9,0.7-5.83
			c-0.29-1.44-1.3-3.06-2.93-3.03c-0.72,0.01-1.43,0.3-2.12,0.46c-1.28,0.29-2.56,0.16-3.85,0.04c-1.25-0.12-2.52-0.22-3.75,0.1
			c-1.11,0.29-2.02,0.96-2.98,1.56c-0.86,0.54-1.64,0.84-2.66,0.58c-0.88-0.23-1.67-0.61-2.6-0.58c-1.82,0.06-3.98,1.52-4.92,3.08
			c-0.76,1.26-0.66,2.72,0.11,3.95c0.94,1.51,2.46,2.61,3.85,3.66c0.74,0.56,1.5,1.11,2.21,1.7c0.34,0.28,0.65,0.58,0.98,0.86
			c0.36,0.32,0.76,0.48,1.14,0.77C249.63,396.68,250.73,396.32,250.41,395.48L250.41,395.48z"/>
	</g>
</g>
<g>
	<g>
		<path d="M249.11,384.59c0.01,0.24,0.03,0.44,0.14,0.67c0.09,0.19,0.18,0.38,0.29,0.56c0.27,0.45,0.53,0.91,0.8,1.37
			c0.58,0.98,1.16,1.99,2.06,2.72c0.35,0.28,0.88,0.37,1.22,0c0.32-0.35,0.33-0.87,0-1.22c-0.08-0.08-0.15-0.17-0.23-0.25
			c-0.05-0.05-0.15-0.25-0.02-0.02c-0.03-0.05-0.07-0.09-0.1-0.13c-0.08-0.11-0.15-0.22-0.23-0.33c-0.11-0.16-0.28-0.31-0.36-0.48
			c0.02,0.03,0.05,0.06,0.07,0.09c-0.03-0.03-0.05-0.07-0.08-0.1c-0.04-0.06-0.09-0.12-0.13-0.18c-0.08-0.11-0.17-0.22-0.25-0.34
			c-0.18-0.24-0.35-0.49-0.52-0.74c-0.29-0.43-0.58-0.86-0.89-1.29c-0.15-0.21-0.31-0.41-0.5-0.58c-0.22-0.2-0.45-0.25-0.74-0.29
			C249.37,384.03,249.1,384.33,249.11,384.59L249.11,384.59z"/>
	</g>
</g>
<g>
	<g>
		<path d="M257.38,410.01c4.1,0.25,8.31-0.25,12.3-1.18c0.92-0.21,0.51-1.52-0.38-1.39c-3.96,0.62-7.88,1.49-11.92,1.51
			C256.69,408.95,256.7,409.97,257.38,410.01L257.38,410.01z"/>
	</g>
</g>
<g>
	<g>
		<path d="M265.12,411.26C265.32,411.27,264.96,411.24,265.12,411.26c0.04,0,0.27,0.05,0.36,0.03c-0.15,0.04-0.22-0.06-0.24-0.06
			c-0.06,0.02-0.1-0.22-0.02,0c0.07,0.17-0.05-0.15-0.01-0.02c0.05,0.13,0.09,0.27,0.12,0.41c0.09,0.36,0.1,0.45,0.08,0.96
			c-0.01,0.48-0.04,0.63-0.16,1.11c-0.43,1.71-1.58,3.04-3.48,2.74c-0.57-0.09-1.11,0.1-1.35,0.66c-0.21,0.5-0.04,1.17,0.47,1.43
			c4.52,2.32,7.16,7.29,12.34,8.48c1.36,0.31,1.88-1.63,0.57-2.08c-4.72-1.62-7.36-6.23-11.76-8.38c-0.29,0.7-0.59,1.39-0.88,2.09
			c1.64,0.23,3.22-0.06,4.46-1.23c0.96-0.91,1.54-2.2,1.77-3.49c0.2-1.09,0.29-2.47-0.3-3.46c-0.58-0.98-1.9-1.4-2.64-0.35
			C264.1,410.61,264.58,411.23,265.12,411.26L265.12,411.26z"/>
	</g>
</g>
<g>
	<g>
		<path d="M258.73,414.99c2.34-0.26,4.69-0.46,7.04-0.67c2.35-0.21,4.69-0.39,6.99-0.96c0.94-0.23,0.77-1.77-0.23-1.72
			c-2.36,0.13-4.68,0.5-7.03,0.82c-2.33,0.31-4.66,0.61-6.98,0.97C257.64,413.56,257.83,415.09,258.73,414.99L258.73,414.99z"/>
	</g>
</g>
<g>
	<g>
		<path d="M291.96,434.37c0.02-5.44,2.15-10.82,3.86-15.9c1.34-3.98,2.44-8.89,5.87-11.66c3.81-3.07,9.59-2.13,13.23,0.68
			c3.64,2.82,6.11,7.11,7.93,11.26c2.07,4.71,3.35,9.91,2.27,15.04c-0.2,0.94,1.2,1.68,1.66,0.7c2.11-4.6,0.49-10.41-1.24-14.88
			c-1.82-4.71-4.4-9.52-8.19-12.95c-3.97-3.58-9.63-5.12-14.7-2.95c-4.63,1.98-6.54,7.02-8.01,11.46
			c-2.05,6.19-4.79,12.72-3.86,19.36C290.86,435.23,291.96,435.04,291.96,434.37L291.96,434.37z"/>
	</g>
</g>
<g>
	<g>
		<path d="M289.57,435.49c4.57,5.63,12.44,6.43,19.19,6.09c5.04-0.25,10.28-0.65,15.05-2.42c1.98-0.74,4.57-1.9,5.01-4.23
			c0.2-1.06-1.22-1.44-1.6-0.44c-0.58,1.51-2.71,2.22-4.1,2.66c-2.37,0.75-4.83,1.08-7.28,1.4c-4.71,0.62-9.72,1.11-14.44,0.48
			c-4.07-0.54-7.68-1.89-10.94-4.43C289.82,434.11,289.05,434.85,289.57,435.49L289.57,435.49z"/>
	</g>
</g>
<g>
	<g>
		<path d="M300.42,419.91c0,0.02,0.03-0.08,0.01-0.1c0.03-0.07,0.02-0.07-0.01,0.01c-0.34,0.2-0.43,0.27-0.26,0.21
			c0.11,0.06,0.45-0.17,0.53-0.22c0.24-0.13-0.06,0.02,0.1-0.05c0.15-0.07,0.31-0.13,0.46-0.2c0.25-0.11,0-0.01,0.16-0.07
			c0.09-0.03,0.18-0.07,0.27-0.1c1.09-0.37,2.34-0.56,3.42-0.7c2.14-0.29,4.63-0.27,6.74-1.04c0.59-0.21,0.98-0.79,0.81-1.42
			c-0.16-0.58-0.83-1.01-1.42-0.81c-0.73,0.24-1.5,0.33-2.26,0.44c-1.03,0.15-2.05,0.31-3.07,0.48c-1.07,0.17-2.14,0.35-3.19,0.6
			c-0.85,0.2-1.79,0.44-2.55,0.9c-0.44,0.27-0.87,0.71-0.96,1.23c-0.01,0.08-0.01,0.17-0.02,0.25c-0.02,0.11,0.01-0.12-0.02,0.04
			c-0.04,0.18-0.07,0.35-0.05,0.53C299.2,420.72,300.42,420.78,300.42,419.91L300.42,419.91z"/>
	</g>
</g>
<g>
	<g>
		<path d="M306.14,419.58c0.62,0.54,0.89,1.32,1.02,2.23c0.13,0.91,0.06,1.99-0.15,2.92c-0.1,0.46-0.28,1.04-0.43,1.37
			c-0.1,0.21-0.21,0.42-0.33,0.62c-0.16,0.25-0.12,0.22-0.28,0.4c-0.07,0.08-0.14,0.15-0.22,0.22c-0.02,0.02-0.27,0.21-0.08,0.08
			c-0.09,0.06-0.53,0.26-0.32,0.2c-0.09,0.03-0.18,0.05-0.27,0.07c0.26-0.06-0.01,0-0.08,0c-0.07,0-0.13,0-0.2-0.01
			c0.12,0.02,0.13,0.02,0.05,0c-0.22,0.02-0.39-0.26-0.03,0.07c-0.39,0.67-0.78,1.34-1.17,2.01c0.76,0.26,1.47,0.5,2.18,0.88
			c0.74,0.39,1.45,0.84,2.17,1.26c1.54,0.9,3.09,1.62,4.9,1.76c0.71,0.06,1.31-0.64,1.31-1.31c0-0.78-0.61-1.23-1.31-1.31
			c-3.25-0.38-5.65-3.23-8.92-3.63c-1.5-0.18-1.58,2.35,0,2.4c-0.24-0.01,0.17,0.05,0.23,0.06c0.2,0.04,0.4,0.07,0.6,0.08
			c0.29,0.01,0.59-0.02,0.87-0.09c0.59-0.14,1.12-0.47,1.57-0.88c0.93-0.86,1.46-2.15,1.75-3.36c0.55-2.32,0.56-5.73-1.46-7.4
			C306.56,417.43,305.19,418.76,306.14,419.58L306.14,419.58z"/>
	</g>
</g>
<g>
	<g>
		<path d="M300.98,425.02c2.05-0.33,4.08-0.75,6.13-1.11c2.03-0.35,4.08-0.75,6.04-1.37c1.2-0.38,0.71-2.21-0.52-1.9
			c-2.01,0.5-4.02,0.93-6.04,1.37c-2.02,0.44-4.07,0.81-6.01,1.53C299.64,423.89,300,425.18,300.98,425.02L300.98,425.02z"/>
	</g>
</g>
<g>
	<g>
		<path d="M299.05,407.84c-0.88-0.8-1.92-2.07-1.66-3.22c0.25-1.08,1.32-1.86,2.32-2.31c1.29-0.58,2.86-0.83,4.26-1.01
			c1.14-0.14,2.22-0.16,3.27,0.23c0.5,0.18,1.06,0.56,1.49,0.97c0.6,0.58,1.03,1.65,1.88,1.86c0.49,0.12,1.07-0.16,1.19-0.68
			c0.23-1.02-0.69-1.98-1.36-2.67c-0.54-0.55-1.18-1.04-1.88-1.38c-1.43-0.68-3.02-0.8-4.58-0.63c-3.19,0.36-7.8,1.27-8.72,4.95
			c-0.57,2.29,0.87,4.12,2.71,5.27C298.82,409.78,299.8,408.53,299.05,407.84L299.05,407.84z"/>
	</g>
</g>
<g>
	<g>
		<path d="M295.87,401.94c-0.94-0.99-2.16-1.6-2.92-2.8c-0.71-1.13-1.04-2.45-1.29-3.76c-0.17-0.91-0.22-2.16-0.31-2.9
			c0.04,0.3-0.32,0.09-0.06,0.2c0.28,0.12,0.91,0.03,1.23,0.06c2.67,0.19,4.82-0.14,6.97-1.82c1.95-1.53,3.55-2.89,6.12-3
			c1.07-0.04,2.26,0,3.24,0.45c1.11,0.51,1.14,1.36,0.72,2.4c-0.19,0.47,0.21,1.13,0.69,1.22c2.45,0.48,4.57-0.91,6.97-0.87
			c-0.34-0.26-0.68-0.52-1.02-0.77c0.3,1.97-2.05,3.42-3.41,4.39c-1.61,1.15-3.6,2.3-4.52,4.13c-0.6,1.18,1.05,2.16,1.78,1.04
			c2.31-3.55,9.06-4.88,8.18-10.12c-0.08-0.45-0.59-0.77-1.02-0.77c-2.17,0-4.3,1.44-6.45,1.06c0.23,0.41,0.46,0.81,0.69,1.22
			c1.02-2.68-0.57-4.68-3.2-5.27c-2.71-0.6-5.64-0.24-7.93,1.38c-1.37,0.98-2.6,2.37-4.23,2.91c-1.34,0.44-2.81,0.16-4.19,0.08
			c-0.94-0.06-1.95,0.02-2.53,0.87c-0.62,0.91-0.41,2.18-0.26,3.2c0.49,3.28,2.13,8.53,6.25,8.62
			C295.99,403.1,296.26,402.35,295.87,401.94L295.87,401.94z"/>
	</g>
</g>
<g>
	<g>
		<path d="M309.18,401.49c0.97,0,0.97-1.5,0-1.5C308.22,399.99,308.21,401.49,309.18,401.49L309.18,401.49z"/>
	</g>
</g>
<g>
	<g>
		<path d="M296.86,397.62c0.12,0.53,0.32,1.04,0.57,1.52c0.25,0.47,0.61,0.9,1,1.27c0.18,0.17,0.42,0.28,0.67,0.28
			c0.23,0,0.51-0.1,0.67-0.28c0.36-0.39,0.37-0.96,0-1.35c-0.12-0.12-0.23-0.25-0.33-0.39c0.05,0.07,0.1,0.13,0.15,0.2
			c-0.34-0.44-0.64-0.93-0.86-1.44c0.03,0.08,0.06,0.15,0.1,0.23c-0.07-0.17-0.13-0.34-0.19-0.52c-0.07-0.23-0.22-0.43-0.42-0.55
			c-0.2-0.12-0.49-0.16-0.71-0.09C297,396.64,296.74,397.11,296.86,397.62L296.86,397.62z"/>
	</g>
</g>
<g>
	<g>
		<path d="M277.05,404.91c0.15-0.45,0.22-0.88,0.29-1.19c0.06-0.25,0.33-0.77,0.56-1.07c0.66-0.85,1.76-1.54,2.76-2.07
			c2.49-1.33,5.41-2.26,8.21-2.63c0.54-0.07,1.18-0.12,1.76-0.1c0.14,0,0.29,0.01,0.43,0.02c0.01,0,0.18,0.02,0.06,0
			c-0.13-0.02,0.12,0.02,0.14,0.03c0.36,0.06,0.65,0.09,1.01,0c0.53-0.13,0.88-0.85,0.54-1.33c-0.75-1.07-2.52-0.91-3.68-0.83
			c-1.61,0.12-3.22,0.44-4.77,0.89c-2.91,0.84-6.38,2.3-8.23,4.82c-0.77,1.06-1.29,3,0.16,3.76
			C276.6,405.38,276.94,405.24,277.05,404.91L277.05,404.91z"/>
	</g>
</g>
<g>
	<g>
		<path d="M281.94,409.69c3.33-0.25,6.41-1.91,9.75-1.98c1.19-0.02,1.18-1.92,0-1.84c-1.75,0.12-3.42,0.6-5.05,1.22
			c-1.59,0.61-3.17,1.24-4.85,1.53C281.19,408.72,281.32,409.74,281.94,409.69L281.94,409.69z"/>
	</g>
</g>
<g>
	<g>
		<path d="M287.14,409.12c3.75,0.75,0.76,6-1.67,6.62c-0.65,0.17-0.87,1.03-0.4,1.5c2.1,2.05,3.81,4.42,5.4,6.88
			c0.71,1.1,2.49,0.05,1.75-1.03c-1.74-2.54-3.61-5.03-5.88-7.13c-0.13,0.5-0.26,1-0.4,1.5c2.2-0.64,3.84-2.88,4.37-5.04
			c0.56-2.32-0.46-4.46-3-4.63C286.57,407.75,286.39,408.97,287.14,409.12L287.14,409.12z"/>
	</g>
</g>
<g>
	<g>
		<path d="M283.76,415.23c0.67,0.21,1.37,0.08,2.05-0.02c0.62-0.09,1.24-0.2,1.85-0.34c1.23-0.27,2.43-0.66,3.63-1.03
			c0.54-0.17,0.88-0.73,0.73-1.29c-0.14-0.52-0.75-0.91-1.29-0.73c-1.15,0.39-2.31,0.78-3.47,1.14c-0.58,0.18-1.16,0.33-1.75,0.46
			c-0.58,0.13-1.21,0.15-1.76,0.38c-0.3,0.13-0.54,0.35-0.54,0.71C283.22,414.86,283.45,415.14,283.76,415.23L283.76,415.23z"/>
	</g>
</g>
<g>
	<g>
		<path d="M278.31,400.4c0.02-0.23,0.06-0.46,0.05-0.69c-0.02-0.23-0.04-0.45-0.04-0.68c0-0.19-0.01-0.38-0.01-0.57
			c0-0.1,0.01-0.19,0.01-0.29c0-0.04,0.01-0.08,0.01-0.12c0.01-0.2-0.04,0.12,0,0.01c0.04-0.15,0.06-0.31,0.11-0.46
			c0.02-0.07,0.05-0.13,0.07-0.19c0.01-0.03,0.06-0.13,0,0c-0.07,0.15,0.02-0.03,0.03-0.06c0.07-0.12,0.15-0.23,0.22-0.36
			c0.03-0.05-0.14,0.15,0,0.01c0.06-0.06,0.11-0.13,0.17-0.18c0.05-0.05,0.11-0.1,0.16-0.15c0.13-0.13-0.16,0.1,0,0
			c0.13-0.08,0.26-0.17,0.39-0.25c0.13-0.07,0.27-0.13,0.4-0.2c0.12-0.07-0.18,0.06-0.05,0.02c0.03-0.01,0.07-0.03,0.1-0.04
			c0.09-0.03,0.18-0.07,0.28-0.1c0.69-0.23,1.42-0.38,2.14-0.5c0.22-0.04,0.44-0.07,0.66-0.1c0.05-0.01,0.09-0.01,0.14-0.02
			c0.29-0.04-0.11,0.01,0.06-0.01c0.11-0.01,0.22-0.03,0.33-0.04c0.56-0.07,1.11-0.14,1.67-0.22c0.43-0.06,0.7-0.59,0.64-0.98
			c-0.06-0.42-0.42-0.79-0.87-0.77c-2.96,0.09-7.78,0.19-8.56,3.88c-0.25,1.17-0.14,2.43,0.51,3.44
			C277.33,401.43,278.25,401.13,278.31,400.4L278.31,400.4z"/>
	</g>
</g>
<g>
	<g>
		<path d="M277.78,395.47c-1.89-1.78-3.13-4.69-3.78-7.15c-0.32-1.21-0.58-2.64-0.12-3.85c0.16-0.41,0.41-0.78,0.77-1.03
			c0.7-0.49,1.45-0.22,2.2,0.02c1.77,0.57,3.42,0.96,5.06-0.21c1.31-0.93,1.74-2.55,2.95-3.55c1.33-1.1,3.37-1.6,5.07-1.61
			c0.77,0,1.56,0.15,2.28,0.43c0.42,0.17,0.45,0.16,0.5,0.45c0.1,0.64,0,1.41,0.02,2.08c0.04,1.16,0.13,2.31,0.17,3.47
			c0.04,1.22,0.05,2.45-0.05,3.67c-0.09,1.23-0.39,2.37-0.67,3.56c-0.23,0.96,1.17,1.65,1.66,0.7c1.08-2.11,1.04-4.81,1-7.13
			c-0.04-2.07-0.04-4.15-0.1-6.21c-0.11-3.95-6.13-3.33-8.6-2.45c-2.01,0.72-3.29,1.87-4.44,3.64c-0.43,0.67-0.9,1.28-1.7,1.52
			c-0.98,0.29-2.01-0.31-2.94-0.58c-1.82-0.53-3.61-0.08-4.69,1.53c-0.87,1.3-0.92,2.96-0.72,4.46c0.49,3.5,2.37,7.29,5.2,9.48
			C277.54,397.25,278.42,396.07,277.78,395.47L277.78,395.47z"/>
	</g>
</g>
<g>
	<g>
		<path d="M318.59,408.99c0.35-1.62,2.16-2.34,3.61-2.68c1.48-0.34,2.98-0.1,4.24,0.76c2.72,1.86,4.02,5.51,5.39,8.36
			c1.05,2.19,2.05,4.41,2.9,6.69c0.75,1.99,1.56,4.1,1.87,6.21c0.14,0.95,0.17,1.89-0.67,2.5c-1.16,0.84-2.8,1.14-4.12,1.63
			c-1.12,0.41-0.69,2.09,0.5,1.81c2.21-0.53,5.42-1.19,6.32-3.62c0.43-1.17,0.24-2.46-0.03-3.65c-0.51-2.23-1.29-4.41-2.13-6.53
			c-1.45-3.66-3.07-7.38-5.03-10.8c-1.52-2.66-3.73-5.17-6.95-5.56c-2.85-0.35-7.36,1.23-7.23,4.7
			C317.27,409.55,318.42,409.78,318.59,408.99L318.59,408.99z"/>
	</g>
</g>
<g>
	<g>
		<path d="M312.96,406.2c0.5-0.49,1.19-0.82,1.82-1.09c0.73-0.3,1.68-0.53,2.36-0.6c0.41-0.04,0.83-0.07,1.25-0.07
			c0.21,0,0.42,0.01,0.63,0.02c0.1,0.01,0.2,0.02,0.3,0.03c-0.21-0.03,0.1,0.02,0.12,0.02c0.19,0.03,0.37,0.08,0.55,0.13
			c0.09,0.03,0.17,0.06,0.26,0.09c0.21,0.07-0.13-0.08,0.07,0.03c0.28,0.15,0.57,0.29,0.83,0.48c0.76,0.57,1.84-0.55,1.3-1.3
			c-1.18-1.68-3.68-1.72-5.51-1.36c-1.86,0.37-3.87,1.21-4.91,2.88C311.67,406.06,312.49,406.67,312.96,406.2L312.96,406.2z"/>
	</g>
</g>
<g>
	<g>
		<path d="M313.23,396.28c0.95-0.41,2-0.69,3.02-0.92c1.24-0.29,2.51-0.52,3.78-0.61c0.99-0.07,2.18-0.09,2.98,0.37
			c1.01,0.59,1.03,1.48,0.55,2.46c-0.68,1.38-1.84,2.47-2.76,3.68c-0.66,0.87,0.81,2.01,1.52,1.17c1.02-1.2,2.02-2.5,2.69-3.93
			c0.64-1.34,0.85-2.84-0.19-4.04c-0.92-1.06-2.31-1.38-3.65-1.42c-1.5-0.05-3.03,0.19-4.48,0.56c-1.42,0.37-2.84,0.83-4.15,1.49
			C311.73,395.5,312.44,396.63,313.23,396.28L313.23,396.28z"/>
	</g>
</g>
<g>
	<g>
		<path d="M234.21,383.92c0.19-2.98,1.76-5.6,3.05-8.22c1.49-3.02,2.27-6.53,4.65-9.03c2.04-2.15,5.17-2.88,7.72-1.22
			c2.38,1.55,3.86,4.3,5.16,6.74c0.77,1.45,1.48,2.94,2.19,4.42c0.62,1.28,1.19,2.81,2.19,3.85c0.55,0.58,1.61-0.01,1.36-0.79
			c-0.44-1.39-1.26-2.71-1.85-4.04c-0.69-1.55-1.37-3.1-2.13-4.63c-1.4-2.83-3.17-5.8-5.88-7.56c-2.9-1.88-6.69-1.55-9.43,0.48
			c-3.32,2.45-4.4,6.43-6.17,9.95c-0.93,1.86-2.02,3.65-2.76,5.61c-0.58,1.53-1.38,3.93,0.12,5.19
			C233.13,385.25,234.15,384.86,234.21,383.92L234.21,383.92z"/>
	</g>
</g>
<g>
	<g>
		<path d="M238.21,367.32c0.89,0.08,1.39-0.76,1.3-1.55c-0.09-0.75-0.72-1.35-0.8-2.09c-0.15-1.38,2.77-1.78,3.74-1.96
			c2.71-0.5,5.76-1.32,8.49-0.53c0.55,0.16,1.12,0.43,1.47,0.9c0.52,0.69,0.36,1.52,0.33,2.33c-0.05,1.09,1.53,1.23,1.84,0.25
			c0.55-1.75-0.07-3.68-1.56-4.74c-1.38-0.98-3.23-1.2-4.87-1.22c-1.55-0.02-3.15,0.23-4.62,0.42c-2.06,0.27-4.47,0.38-6.13,1.79
			c-0.99,0.84-1.43,2.09-1.14,3.37c0.13,0.57,0.4,1.09,0.71,1.58c0.12,0.18,0.23,0.37,0.36,0.54c0.06,0.09,0.21,0.3,0.25,0.32
			c-0.31-0.2,0.38-1.23-0.01-0.92C236.9,366.32,237.54,367.26,238.21,367.32L238.21,367.32z"/>
	</g>
</g>
<g>
	<g>
		<path d="M238.45,360.47c-0.81-0.92-1.14-2.49-1.38-3.66c-0.27-1.28-0.42-2.59-0.46-3.9c-0.01-0.47-0.07-1.11,0.18-1.54
			c0.08-0.13,0.16-0.12,0.47-0.12c1.02,0.01,2.04,0.37,3.04,0.53c1.23,0.2,2.46,0.27,3.69,0c1.12-0.25,2.21-0.68,3.3-1.04
			c1.27-0.42,2.57-0.86,3.9-1.05c0.71-0.1,2.1-0.28,2.59,0.44c0.57,0.85-0.31,2.64-0.59,3.46c-0.48,1.4-1.08,2.84-0.74,4.33
			c0.24,1.06,1.75,0.75,1.81-0.25c0.09-1.49,0.71-2.93,1.15-4.34c0.4-1.27,0.83-2.83,0.17-4.08c-1.39-2.66-5.4-1.62-7.63-0.98
			c-1.37,0.39-2.7,0.9-4.08,1.27c-1.28,0.34-2.54,0.19-3.81-0.09c-1.16-0.25-2.46-0.69-3.66-0.4c-1.3,0.32-1.87,1.49-2,2.73
			c-0.17,1.77,0.18,3.74,0.56,5.46c0.39,1.74,0.97,3.43,2.49,4.49C238.26,362.3,239.02,361.13,238.45,360.47L238.45,360.47z"/>
	</g>
</g>
<g>
	<g>
		<path d="M241.48,352.97c0.09,1.43,0.38,2.85,1.07,4.11c0.21,0.37,0.75,0.53,1.11,0.29c0.4-0.26,0.48-0.7,0.29-1.11
			c-0.01-0.03-0.14-0.3-0.05-0.11c-0.03-0.06-0.05-0.13-0.08-0.19c-0.06-0.15-0.11-0.3-0.17-0.44c-0.11-0.28-0.21-0.57-0.3-0.87
			c-0.09-0.29-0.16-0.59-0.22-0.89c-0.03-0.15-0.06-0.31-0.08-0.46c-0.01-0.07-0.02-0.13-0.03-0.2c0.03,0.19-0.01-0.1-0.01-0.13
			c-0.04-0.4-0.32-0.79-0.77-0.77C241.85,352.23,241.45,352.54,241.48,352.97L241.48,352.97z"/>
	</g>
</g>
<g>
	<g>
		<path d="M239.98,377.25c0.32-0.14,0.71-0.51,1.08-0.73c0.44-0.27,0.9-0.48,1.37-0.68c1.07-0.45,2.19-0.78,3.31-1.05
			c2.16-0.53,4.36-0.82,6.51-1.38c1.01-0.26,0.84-2.01-0.25-1.87c-2.41,0.29-4.79,0.67-7.15,1.29c-1.23,0.32-2.47,0.71-3.62,1.27
			c-0.93,0.46-2.17,1.16-2.5,2.2C238.5,377.06,239.36,377.53,239.98,377.25L239.98,377.25z"/>
	</g>
</g>
<g>
	<g>
		<path d="M247.19,375.28c1.59,1.93-1.51,4.03-2.83,5.01c-0.33,0.25-0.53,0.68-0.28,1.07c0.48,0.76,1.13,1.34,1.85,1.86
			c0.64,0.46,1.38,0.96,2.16,1.13c0.73,0.16,1.4-0.77,0.78-1.33c-1.06-0.95-2.57-1.24-3.44-2.45c-0.04,0.32-0.08,0.63-0.12,0.95
			c1.99-1.68,5.08-4.44,2.77-7.12C247.54,373.78,246.68,374.67,247.19,375.28L247.19,375.28z"/>
	</g>
</g>
<g>
	<g>
		<path d="M240.32,380.23c4.55-0.84,8.75-3.08,13.36-3.66c0.89-0.11,0.94-1.5,0-1.44c-4.84,0.33-9.02,2.95-13.55,4.41
			C239.69,379.68,239.87,380.31,240.32,380.23L240.32,380.23z"/>
	</g>
</g>
<g>
	<g>
		<path d="M256.54,373.78c3.03-5.17,9.53-7.87,15.35-6.36c2.81,0.73,4.96,2.59,6.85,4.72c0.94,1.06,1.78,2.18,2.61,3.32
			c0.81,1.12,1.55,2.5,2.57,3.44c0.84,0.78,2.1-0.2,1.57-1.21c-0.71-1.37-1.93-2.64-2.88-3.86c-1.02-1.31-2.07-2.6-3.27-3.75
			c-2.23-2.14-5.02-3.85-8.1-4.35c-6.09-1-13.28,1.65-15.76,7.61C255.22,373.95,256.21,374.33,256.54,373.78L256.54,373.78z"/>
	</g>
</g>
<g>
	<g>
		<path d="M260.61,368.26c0.28-0.74-0.38-1.31-0.37-2.04c0.01-0.44,0.27-0.79,0.63-1.08c1.06-0.86,2.61-1.15,3.91-1.39
			c1.31-0.24,2.64-0.35,3.96-0.41c1.72-0.08,3.56-0.21,5.24,0.28c0.78,0.22,1.51,0.63,1.9,1.37c0.56,1.07,0,2.46,0.76,3.36
			c0.31,0.36,0.85,0.27,1.17,0c0.92-0.78,0.44-2.83,0.04-3.82c-0.4-0.97-1.1-1.77-2.03-2.27c-1.99-1.07-4.46-0.93-6.64-0.82
			c-1.58,0.08-3.17,0.23-4.73,0.52c-1.68,0.31-3.57,0.79-4.88,1.97c-0.64,0.59-1.08,1.4-1.07,2.29c0.01,0.94,0.44,2.4,1.57,2.45
			C260.34,368.68,260.53,368.49,260.61,368.26L260.61,368.26z"/>
	</g>
</g>
<g>
	<g>
		<path d="M261.18,362.85c-0.52-1.25-1.18-2.42-1.61-3.73c-0.59-1.79-1.13-3.61-1.35-5.49c-0.13-1.09-0.4-3.01,0.4-3.93
			c1.06-1.21,4.03-0.54,5.42-0.44c2.13,0.16,3.95-0.27,6-0.74c0.76-0.17,2.02-0.48,2.63-0.51c-0.38,0.02-0.11,0,0.17,0.12
			c0.6,0.25,1.24,0.37,1.86,0.58c1.89,0.64,3.44,1.11,5.46,0.6c0.27-0.07,0.53-0.14,0.79-0.23c0.24-0.08,0.48-0.05,0.35-0.13
			c0.64,0.39,0.44,2.29,0.26,2.95c-0.35,1.24-0.65,2.3-0.33,3.59c0.34,1.39,0.8,2.41-0.24,3.62c-1.46,1.71-3.64,2.58-4.98,4.42
			c-0.77,1.06,1,2.09,1.75,1.03c1.36-1.91,3.79-2.75,5.12-4.72c0.56-0.83,0.84-1.79,0.72-2.79c-0.1-0.78-0.44-1.49-0.6-2.26
			c-0.17-0.85,0.13-1.59,0.35-2.4c0.39-1.47,0.42-4.55-1.46-5.16c-0.61-0.19-1.21,0.05-1.78,0.22c-1.13,0.33-2.29,0.49-3.44,0.14
			c-1.46-0.45-3.19-1.54-4.74-1.13c-2.57,0.67-4.84,1.76-7.55,1.2c-2.01-0.42-4.42-1.04-6.38-0.09c-1.63,0.79-2,2.66-2.04,4.32
			c-0.06,2.29,0.44,4.68,1.13,6.86c0.5,1.58,1.3,4.16,2.9,4.97C260.55,364.03,261.47,363.55,261.18,362.85L261.18,362.85z"/>
	</g>
</g>
<g>
	<g>
		<path d="M265.12,350.51c0.05,0.03-0.22-0.22-0.17-0.16c-0.05-0.13-0.06-0.16-0.04-0.09c0.01,0.02,0.01,0.04,0.02,0.06
			c0,0,0.03,0.14,0.03,0.15c-0.05-0.23-0.01-0.08-0.01-0.02c0.02,0.37,0.12,0.72,0.19,1.08c0.17,0.9,0.3,1.8,0.43,2.7
			c0.14,0.95,0.28,1.9,0.47,2.84c0.15,0.74,0.39,1.56,0.89,2.14c0.51,0.59,1.43-0.04,1.25-0.73c-0.44-1.71-0.73-3.46-1.03-5.2
			c-0.15-0.87-0.29-1.75-0.51-2.61c-0.14-0.58-0.53-1.36-1.21-1.4C264.81,349.25,264.56,350.21,265.12,350.51L265.12,350.51z"/>
	</g>
</g>
<g>
	<g>
		<path d="M272.5,354.13c-0.27,1.17-0.55,2.36-0.68,3.55c-0.04,0.35,0.3,0.65,0.61,0.69c0.33,0.04,0.7-0.16,0.77-0.5
			c0.24-1.12,0.43-2.25,0.69-3.36c0.09-0.37-0.11-0.8-0.5-0.88C273.01,353.54,272.59,353.74,272.5,354.13L272.5,354.13z"/>
	</g>
</g>
<g>
	<g>
		<path d="M263.66,376.64c1.01-0.23,1.98-0.54,3.01-0.69c1.12-0.16,2.25-0.27,3.39-0.33c2.29-0.11,4.56,0,6.84-0.27
			c1.1-0.13,1.11-1.59,0-1.72c-1.14-0.13-2.23-0.23-3.38-0.23c-1.26,0-2.52,0.02-3.78,0.1c-1.21,0.07-2.44,0.18-3.62,0.45
			c-1.06,0.24-2.21,0.53-3.1,1.17C262.28,375.67,262.7,376.86,263.66,376.64L263.66,376.64z"/>
	</g>
</g>
<g>
	<g>
		<path d="M269.26,376.18c0.14,1.13-0.12,1.89-0.88,2.71c-0.67,0.73-1.3,1.5-1.49,2.51c-0.24,1.29,0.18,2.6,0.7,3.77
			c0.57,1.32,1.41,2.59,2.35,3.67c0.59,0.67,1.68-0.2,1.23-0.95c-0.72-1.19-1.51-2.32-2.13-3.57c-0.48-0.96-0.94-2.15-0.53-3.22
			c0.3-0.79,0.96-1.35,1.41-2.05c0.59-0.93,0.65-1.97,0.45-3.03C270.26,375.42,269.19,375.55,269.26,376.18L269.26,376.18z"/>
	</g>
</g>
<g>
	<g>
		<path d="M264.28,381.16c0.76,0.28,1.7-0.01,2.48-0.15c1.01-0.17,2.03-0.35,3.03-0.56c2.01-0.43,4.04-0.86,6.09-1.02
			c1.13-0.09,1.16-1.84,0-1.78c-2.13,0.11-4.23,0.56-6.31,1c-0.99,0.21-1.97,0.46-2.96,0.69c-0.8,0.19-1.79,0.23-2.49,0.68
			C263.66,380.32,263.77,380.97,264.28,381.16L264.28,381.16z"/>
	</g>
</g>
<g>
	<g>
		<path d="M284.9,376.54c2.3-3.08,4.9-5.94,8.89-6.69c2.92-0.54,5.66,0.69,7.65,2.79c3.94,4.17,5.28,10.1,8.83,14.56
			c0.68,0.85,1.85-0.35,1.19-1.19c-3.12-3.97-4.46-9.05-7.48-13.1c-3.18-4.27-8.07-6.3-13.2-4.17c-2.92,1.21-6.64,3.89-7.17,7.25
			C283.49,376.79,284.41,377.19,284.9,376.54L284.9,376.54z"/>
	</g>
</g>
<g>
	<g>
		<path d="M288.17,370.16c-0.46-1.01-1-2.53,0.15-3.24c1.11-0.68,2.65-0.7,3.91-0.75c1.44-0.06,2.9-0.01,4.34-0.16
			c1.02-0.11,2.02-0.3,3.04-0.39c0.92-0.08,2.11-0.23,2.96,0.24c0.85,0.47,0.96,1.72,0.99,2.59c0.04,1.05-0.1,2.09-0.35,3.1
			c-0.31,1.23,1.44,1.67,1.87,0.52c0.74-1.98,0.82-5.08-0.42-6.88c-1.51-2.19-4.74-1.57-6.96-1.23c-1.79,0.27-3.58,0.25-5.38,0.37
			c-1.65,0.1-3.59,0.26-4.99,1.24c-0.73,0.51-1.21,1.24-1.3,2.14c-0.11,1.15,0.47,2.16,1.11,3.07
			C287.58,371.39,288.48,370.86,288.17,370.16L288.17,370.16z"/>
	</g>
</g>
<g>
	<g>
		<path d="M288.84,365.46c-0.39-0.61-0.8-1.21-1.23-1.79c-0.45-0.61-1.02-1.14-1.56-1.68c-0.51-0.5-1.02-0.99-1.58-1.44
			c-0.61-0.49-1.24-0.92-1.91-1.33c-0.57-0.35-1.08,0.42-0.68,0.88c0.47,0.55,0.93,1.08,1.44,1.59c0.5,0.51,1.03,0.98,1.55,1.48
			c0.5,0.48,0.96,1.01,1.46,1.48c0.54,0.5,1.07,0.99,1.58,1.52C288.37,366.65,289.2,366.03,288.84,365.46L288.84,365.46z"/>
	</g>
</g>
<g>
	<g>
		<path d="M283.2,356.16c0.5-1.19,2.33-1.39,3.42-1.52c1.35-0.16,2.69-0.39,3.83,0.48c1.26,0.96,2.35,2,3.82,2.66
			c1.1,0.49,2.39,0.83,3.36,1.57c1.24,0.96,0.73,2.56,0.25,3.81c-0.42,1.09,1.33,1.55,1.75,0.48c0.65-1.65,1.02-3.61-0.18-5.09
			c-0.94-1.16-2.45-1.65-3.77-2.23c-0.71-0.32-1.43-0.66-2.05-1.13c-0.78-0.59-1.46-1.31-2.25-1.89c-1.6-1.17-3.51-0.87-5.35-0.58
			c-1.74,0.27-4.69,1.08-3.99,3.45C282.2,356.79,282.98,356.69,283.2,356.16L283.2,356.16z"/>
	</g>
</g>
<g>
	<g>
		<path d="M292.37,379.1c0.38,0.18,0.71,0.23,1.09,0.02c0.11-0.06,0.22-0.13,0.34-0.19c-0.11,0.06-0.12,0.05,0,0.01
			c0.06-0.02,0.12-0.04,0.18-0.06c0.13-0.04,0.26-0.07,0.39-0.11c0.31-0.08,0.62-0.14,0.93-0.19c-0.15,0.02-0.09,0.01,0.03,0
			c0.08-0.01,0.15-0.02,0.23-0.02c0.17-0.02,0.34-0.03,0.52-0.04c1.32-0.08,2.66-0.11,3.95-0.39c1.08-0.23,0.85-1.97-0.26-1.93
			c-1.25,0.04-2.49-0.03-3.74,0.1c-1.35,0.15-2.73,0.36-3.77,1.31c-0.23,0.21-0.37,0.65-0.25,0.95
			C292.09,378.76,292.16,379,292.37,379.1L292.37,379.1z"/>
	</g>
</g>
<g>
	<g>
		<path d="M297.07,378.14c0.31,0.01,0.79,0.09,0.96,0.16c0.18,0.08,0.13,0.04,0.22,0.15c-0.03-0.04,0.04,0.1,0.03,0.07
			c0.03,0.09,0.02,0.14,0.01,0.01c0,0.07,0.01,0.13,0,0.2c-0.01,0.16,0.01-0.01,0,0.04c-0.02,0.08-0.03,0.15-0.06,0.22
			c-0.11,0.39-0.15,0.47-0.32,0.8c-0.75,1.45-1.8,2.62-2.9,3.83c-0.37,0.41-0.77,0.81-1.13,1.24c-0.35,0.42-0.4,1.17,0.19,1.45
			c1.67,0.81,3.41,1.6,4.89,2.74c0.8,0.61,1.84-0.74,1.08-1.4c-1.51-1.31-3.23-2.12-5.04-2.93c0.06,0.48,0.12,0.97,0.19,1.45
			c0.93-1.21,2-2.3,2.9-3.54c0.87-1.19,2.37-3.22,1.52-4.76c-0.5-0.91-1.62-1.04-2.55-0.96
			C296.3,376.98,296.28,378.11,297.07,378.14L297.07,378.14z"/>
	</g>
</g>
<g>
	<g>
		<path d="M248.77,348.39c1.15-3.72,1.93-7.59,3.35-11.21c1.42-3.62,3.8-7.2,7.76-8.25c6.94-1.85,11.94,7.14,14.69,12.04
			c1.74,3.09,3.09,6.61,5.24,9.44c0.7,0.91,2.1,0.16,1.57-0.91c-1.55-3.13-3.22-6.24-4.92-9.29c-1.94-3.47-4.08-6.99-6.96-9.77
			c-2.44-2.36-5.59-4.15-9.09-3.64c-4.16,0.6-7.32,3.75-9.06,7.42c-2.1,4.42-2.68,9.17-3.51,13.93
			C247.73,348.74,248.58,349,248.77,348.39L248.77,348.39z"/>
	</g>
</g>
<g>
	<g>
		<path d="M256,329.76c0.08-1.04,0.41-2.25,1.09-2.98c0.7-0.75,1.63-1.11,2.68-1.28c2.11-0.34,4.63,0.25,6.42,1.56
			c0.99,0.72,1.38,1.5,1.77,2.6c0.32,0.92,1.75,0.81,1.75-0.24c0-1.32-0.97-2.63-1.92-3.45c-1.1-0.95-2.43-1.6-3.82-1.99
			c-2.6-0.73-5.91-0.63-7.94,1.38c-1.27,1.25-1.59,2.87-1.28,4.57C254.88,330.69,255.95,330.44,256,329.76L256,329.76z"/>
	</g>
</g>
<g>
	<g>
		<path d="M257.19,321.56c-0.53-2.54-1.72-5.37-1.12-8c0.32-1.39,1.35-2.01,2.67-1.41c1.37,0.63,2.55,1.71,4.04,2.07
			c2.85,0.69,5.53-0.82,8.32-1.16c0.79-0.1,1.92-0.18,2.44,0.56c0.69,1,0.35,2.53-0.06,3.57c-0.64,1.61-1.66,3.09-2.69,4.46
			c-0.51,0.68-1.05,1.33-1.61,1.97c-0.49,0.56-1.04,1.04-1.42,1.69c-0.44,0.74,0.42,1.5,1.13,1.13c1.32-0.67,2.36-2.28,3.25-3.43
			c1.12-1.46,2.19-3,2.93-4.69c1.09-2.46,1.27-6.52-2.1-7.16c-1.35-0.26-2.75,0.04-4.07,0.35c-1.59,0.38-3.3,1.1-4.95,0.94
			c-1.84-0.18-3.18-1.66-4.89-2.24c-1.59-0.54-3.25,0-4.13,1.47c-1.86,3.11,0.42,7.07,1.29,10.13
			C256.4,322.45,257.32,322.19,257.19,321.56L257.19,321.56z"/>
	</g>
</g>
<g>
	<g>
		<path d="M255.03,337.95c3.59,0.07,7.18-0.19,10.76-0.29c1.09-0.03,1.04-1.53,0-1.66c-3.57-0.42-7.19,0.29-10.76,0.38
			C254.02,336.41,254.02,337.92,255.03,337.95L255.03,337.95z"/>
	</g>
</g>
<g>
	<g>
		<path d="M260.07,337.5c-0.02,0.52,0,1.04-0.14,1.54c-0.13,0.45-0.36,0.87-0.66,1.24c-0.75,0.95-1.81,1.61-2.85,2.19
			c-0.61,0.34-0.49,1.11,0,1.48c1.91,1.43,4.3,2.33,6.68,2.48c0.95,0.06,1.19-1.52,0.23-1.69c-2.13-0.37-4.26-1.02-6.04-2.27
			c0,0.49,0,0.99,0,1.48c1.27-0.75,2.5-1.65,3.36-2.86c0.74-1.04,1.19-2.52,0.75-3.76C261.14,336.62,260.1,336.72,260.07,337.5
			L260.07,337.5z"/>
	</g>
</g>
<g>
	<g>
		<path d="M253.68,341.14c3.72,0.16,7.4-0.12,11.1-0.49c1-0.1,1.04-1.65,0-1.59c-3.71,0.19-7.39,0.65-11.1,0.86
			C252.9,339.96,252.89,341.1,253.68,341.14L253.68,341.14z"/>
	</g>
</g>
<g>
	<g>
		<path d="M295.07,265.43c3.12,10.98,7.13,21.67,10.95,32.42c1.89,5.32,3.73,10.65,5.37,16.05c1.68,5.52,3.05,11.13,4.53,16.71
			c3.05,11.54,6.32,23.02,9.34,34.57c3,11.42,5.62,22.93,8.3,34.43c1.33,5.68,2.71,11.25,4.57,16.78c1.62,4.8,3.58,9.88,3.49,15.02
			c-0.03,1.83,2.82,1.83,2.84,0c0.06-4.61-1.43-9.15-2.88-13.47c-1.53-4.58-3.02-9.09-4.16-13.79c-2.81-11.63-5.42-23.31-8.39-34.91
			c-2.96-11.57-6.22-23.05-9.32-34.58c-1.54-5.71-2.93-11.47-4.53-17.16c-1.56-5.51-3.35-10.95-5.24-16.36
			c-4.22-12.1-8.92-24.04-12.47-36.37C297.04,263.22,294.63,263.87,295.07,265.43L295.07,265.43z"/>
	</g>
</g>
<g>
	<g>
		<path d="M265.83,256.78c-1-0.06-1.63,0.26-2.32,0.91c-0.8,0.76-1.38,1.69-1.91,2.65c-1.46,2.65-2.53,5.52-3.53,8.36
			c-2.22,6.3-3.96,12.75-5.72,19.18c-0.86,3.15-1.87,6.25-2.81,9.38c-1.76,5.91-3.37,11.86-5.02,17.8
			c-3.27,11.79-6.6,23.59-10.28,35.26c-0.95,3.01-1.89,6.03-3.07,8.96c-1.13,2.79-2.42,5.52-3.69,8.26
			c-2.47,5.36-5.04,10.85-5.89,16.74c-0.22,1.55,2.15,2.23,2.38,0.66c1.52-10.28,7.84-19.11,11.18-28.8
			c3.9-11.34,7.14-22.91,10.44-34.43c1.66-5.78,3.22-11.59,4.87-17.38c1.27-4.45,2.7-8.85,3.99-13.3
			c1.68-5.82,3.16-11.69,4.96-17.46c1.05-3.38,2.16-6.78,3.63-10c0.56-1.22,1.18-2.39,1.93-3.51c0.3-0.46,0.42-0.54,0.71-0.93
			c-0.07,0.09,0.52-0.76,0.31-0.51c-0.06,0.08-0.1,0.15,0,0.04c0.21-0.22,0.11-0.14,0.3-0.24
			C267.1,257.99,266.68,256.83,265.83,256.78L265.83,256.78z"/>
	</g>
</g>
<g>
	<g>
		<path d="M218.2,397.76c-1.96,5.39-3.31,11.02-4.5,16.62c-1.42,6.69-2.79,13.7-2.6,20.57c0.06,2.27,0.25,5.21,2.02,6.87
			c1,0.94,2.43-0.5,1.5-1.5c-1.18-1.27-1.39-3.62-1.49-5.37c-0.17-3.06,0.11-6.13,0.51-9.16c0.91-6.8,2.5-13.47,4.18-20.11
			c0.63-2.5,1.28-5,2.1-7.44C220.29,397.13,218.59,396.69,218.2,397.76L218.2,397.76z"/>
	</g>
</g>
<g>
	<g>
		<path class="st29" d="M632.29,287.17c3.03,6.67,5.49,13.55,7.68,20.53c0.79,0,1.58-0.01,2.38-0.01
			c-2.29-7.37-4.88-14.64-8.08-21.68c-7.77-17.12-19.8-32.97-34.26-45.03c-1.1-0.92-2.7,0.66-1.59,1.59
			C612.75,254.55,624.59,270.19,632.29,287.17z"/>
		<path class="st29" d="M549.9,308.03c1.64-6.12,3.5-12.18,5.72-18.13c6.88-18.39,18.46-35.1,32.92-48.41
			c0.7-0.64-0.33-1.64-1.03-1.03c-14.19,12.27-25.57,28.46-32.62,45.79c-2.89,7.1-5.17,14.4-7.15,21.79
			C548.46,308.03,549.18,308.03,549.9,308.03z"/>
	</g>
	<g>
		<path class="st29" d="M586.59,238.85c-3.95-3.09-6.25-8.25-7.99-12.78c-1.79-4.66-5.24-10.69-4.55-15.89
			c0.48-3.58,2.6-6.11,6.42-6.73c1.72-0.28,4.04,0.77,5.57,1.43c1.85,0.79,3.61,1.79,5.51,2.47c5.35,1.92,9.44-0.22,14.89-0.66
			c0.44-0.04,0.45-0.7,0-0.69c-4.64,0.08-9.11,1.59-13.68,0.23c-3.6-1.07-6.75-3.68-10.55-4.17c-4.19-0.54-7.91,1.17-9.16,5.31
			c-1.94,6.42,1.84,13.24,4.09,19.1c1.92,4.99,4.2,10.12,8.74,13.31C586.42,240.16,587.12,239.27,586.59,238.85L586.59,238.85z"/>
	</g>
	<g>
		<path class="st29" d="M606.8,207.58c3.46-0.41,7.13-0.43,8.46,3.65c1.09,3.37,0.57,6.86-0.48,10.13
			c-2.06,6.45-5.98,12.22-10.35,17.34c-0.65,0.76,0.41,1.86,1.11,1.11c5.94-6.31,12.4-15.82,11.92-24.89
			c-0.14-2.55-0.65-5.66-2.64-7.48c-2.31-2.12-5.35-1.38-8.16-0.88C606.1,206.67,606.22,207.65,606.8,207.58L606.8,207.58z"/>
	</g>
	<g>
		<path class="st29" d="M588.49,240.51c3.33-0.87,6.73-1.39,10.1-2.09c3.24-0.67,6.67-1.73,10-1.46c-0.26-0.45-0.51-0.9-0.77-1.34
			c-0.41,0.88-1.89,3.12-2.71,3.71c-1.1,0.78-2.72,0.4-4.16,0.52c-4.23,0.36-8.33,0.63-12.59,0.7c-1.15,0.02-1.14,1.72,0,1.78
			c5.33,0.27,10.32-0.25,15.6-0.61c2.74-0.19,4.23-2.79,5.4-5.2c0.24-0.49,0.07-1.18-0.53-1.31c-2.75-0.61-5.87,0.36-8.53,0.98
			c-4.07,0.94-8.09,2.07-12.08,3.3C587.55,239.68,587.82,240.68,588.49,240.51L588.49,240.51z"/>
	</g>
	<g>
		<path class="st29" d="M586.45,242.35c-1.63-7.03-11.15-11.34-17.31-13.48c-4.25-1.47-8.77-2.26-13.27-2
			c-2.48,0.14-6.17,0.27-8.09,2.12c-3.95,3.82,5.43,6.61,7.78,7.39c5.14,1.71,10.69,2,16.01,2.87c5.56,0.9,11.06,1.86,16.63,2.71
			c0.66,0.1,0.97-0.86,0.28-1.03c-5.95-1.52-12.37-2.44-18.45-3.34c-5.46-0.8-15.13-0.89-19.41-4.83c-4.1-3.77,3.98-4.57,6.08-4.62
			c3.25-0.07,6.55,0.48,9.67,1.4c6,1.77,17.02,6.45,18.81,13.17C585.39,243.53,586.65,243.18,586.45,242.35L586.45,242.35z"/>
	</g>
	<g>
		<path class="st29" d="M583.43,241.24c-6.76-2.63-17.59,1.34-23.74,4.21c-3.45,1.61-12.75,5.18-13.01,10.23
			c-0.22,4.33,6.9,2.19,9.13,1.55c9.39-2.7,18.38-7.48,26.26-13.2c0.5-0.36,0.07-1.16-0.49-0.84c-5.26,2.98-10.39,6.16-15.89,8.67
			c-3.08,1.41-6.22,2.65-9.46,3.64c-1.73,0.53-8.55,3.18-6.82-1.89c1.23-3.6,10.01-6.73,13.05-7.84c6.05-2.22,14.21-5,20.65-3.41
			C583.87,242.55,584.12,241.51,583.43,241.24L583.43,241.24z"/>
	</g>
	<g>
		<path class="st29" d="M578.58,276.54c11.38,0.62,23.01,0.01,34.22-2.15c0.84-0.16,0.66-1.62-0.2-1.51
			c-11.37,1.49-22.61,1.59-34.01,2.22C577.65,275.14,577.65,276.49,578.58,276.54L578.58,276.54z"/>
	</g>
	<g>
		<path class="st29" d="M579.12,296.85c2.32,1.04,3.79,3.32,5.47,5.14c1.82,1.98,16.29,12.38,18.2,14.29c0.78,0,1.56-0.01,2.34-0.01
			c-0.49-0.46-0.98-0.93-1.45-1.42c-2.99-3.06-18.72-16.41-22.54-18.78c1.55-0.77,3.79-1.2,5.2-1.87c2.6-1.23,5.13-2.71,7.42-4.46
			c4.51-3.46,7.14-7.86,8.14-13.42c0.12-0.69-0.9-1-1.07-0.29c-1.65,7.02-6.16,11.72-12.31,15.2c-2.91,1.65-7.1,2.13-9.58,4.32
			C578.58,295.88,578.64,296.64,579.12,296.85z"/>
	</g>
	<g>
		<path class="st29" d="M580.39,284.49c10.33,0.47,20.43-0.09,30.76-0.22c1.1-0.01,1.1-1.7,0-1.71c-10.24-0.08-20.52,0.43-30.76,0.5
			C579.46,283.07,579.47,284.45,580.39,284.49L580.39,284.49z"/>
	</g>
	<g>
		<path class="st29" d="M595.66,238.95c0.1-0.81-0.36-1.45-0.68-2.16c-0.47-1.07-0.9-2.17-1.33-3.26c-0.85-2.15-1.73-4.29-2.63-6.41
			c-1.9-4.48-3.81-8.96-5.71-13.44c-0.14-0.34-0.71-0.1-0.59,0.25c1.47,4.26,3.29,8.38,5.06,12.52c0.94,2.21,1.88,4.41,2.79,6.63
			c0.36,0.9,0.71,1.8,1.1,2.69c0.42,0.97,1.33,2.12,1.45,3.18C595.15,239.31,595.61,239.31,595.66,238.95L595.66,238.95z"/>
	</g>
	<g>
		<path class="st29" d="M600.37,237.93c-0.14-0.81-0.27-1.35,0-2.15c0.26-0.76,0.54-1.52,0.81-2.28c0.49-1.4,0.92-2.81,1.26-4.26
			c0.69-2.97,1.07-5.99,1.51-9c0.08-0.53-0.72-0.76-0.81-0.22c-0.55,3.22-0.9,6.48-1.66,9.66c-0.37,1.57-0.88,3.09-1.39,4.62
			c-0.23,0.7-0.55,1.4-0.66,2.14c-0.09,0.64,0.22,1.06,0.38,1.66C599.91,238.45,600.43,238.3,600.37,237.93L600.37,237.93z"/>
	</g>
</g>
<g>
	<g>
		<path d="M547.67,307.99c-1.13,5.17-1.64,10.37-2.18,15.62c-0.4,3.89-0.51,8.45,3.28,10.7c2.92,1.73,6.58,1.7,9.86,1.87
			c2.33,0.12,4.65,0.38,6.99,0.45c2.83,0.08,5.67,0.05,8.5,0.13c5.8,0.18,11.58,0.51,17.39,0.47c5.74-0.04,11.48-0.33,17.2-0.89
			c10.65-1.06,21.85-1.91,31.82-6.07c3.24-1.35,5.54-3.9,5.39-7.6c-0.11-2.7-0.63-5.47-1.18-8.12c-0.59-2.83-1.2-6.05-2.92-8.43
			c-0.97-1.33-2.8-0.5-2.57,1.08c0.34,2.37,1.24,4.63,1.77,6.98c0.54,2.35,1.02,4.72,1.35,7.11c0.17,1.24,0.53,2.98,0.07,4.18
			c-0.4,1.05-1.36,1.62-2.33,2.1c-1.84,0.91-3.85,1.47-5.83,1.97c-2.52,0.64-5.04,1.22-7.61,1.65c-5.14,0.88-10.35,1.35-15.53,1.93
			c-10.51,1.18-21.08,1.37-31.64,0.93c-5.35-0.23-10.72-0.18-16.06-0.47c-1.84-0.1-3.67-0.31-5.51-0.4
			c-1.59-0.08-3.21-0.12-4.78-0.39c-1.44-0.24-3.06-0.65-4.07-1.77c-1.38-1.53-1.23-4.02-1.15-5.94c0.24-5.53,0.76-11.11,1.77-16.55
			C549.97,307.23,547.96,306.65,547.67,307.99L547.67,307.99z"/>
	</g>
</g>
<g>
	<g>
		<path d="M532.8,332.62c4.41-1.89,9.03-3.82,13.89-4.05c0.76-0.04,0.77-1.21,0-1.19c-2.54,0.09-5.08,0.45-7.54,1.08
			c-2.41,0.62-5.01,1.5-7.11,2.86C531.21,331.86,531.93,332.99,532.8,332.62L532.8,332.62z"/>
	</g>
</g>
<g>
	<g>
		<path d="M643.76,326.42c1.71,0.18,3.44,0.26,5.15,0.46c1.71,0.2,3.42,0.44,5.13,0.66c0.62,0.08,1.19-0.55,1.26-1.11
			c0.07-0.57-0.28-1.31-0.92-1.41c-3.56-0.54-7.3-1.15-10.89-0.6c-0.49,0.07-0.79,0.67-0.73,1.11
			C642.84,326.07,643.24,326.37,643.76,326.42L643.76,326.42z"/>
	</g>
</g>
<g>
	<g>
		<path d="M536.11,188.69c-2.09,2.72-2.07,6.58-2,9.84c0.08,3.6,0.6,7.21,0.48,10.82c-0.17,5.09-0.55,10.19-0.78,15.28
			c-0.25,5.33-0.49,10.67-0.83,15.99c-0.68,10.64-0.34,21.3-0.33,31.96c0.01,10.64-0.74,21.26-0.97,31.89
			c-0.11,5.09-0.04,10.16,0.05,15.25c0.08,4.53,0.19,9.38-1.46,13.68c-0.61,1.6,1.95,2.29,2.56,0.71c1.43-3.71,1.57-7.88,1.58-11.82
			c0.01-4.23-0.19-8.46-0.15-12.69c0.1-10.53,0.84-21.04,1.03-31.57c0.19-10.74-0.38-21.48-0.11-32.22
			c0.13-5.26,0.48-10.51,0.65-15.77c0.17-5.25,0.31-10.49,0.51-15.74c0.09-2.32,0.27-4.65,0.16-6.98c-0.1-2.1-0.32-4.18-0.47-6.28
			c-0.28-3.96-0.46-8.2,1.02-11.96C537.29,188.49,536.43,188.27,536.11,188.69L536.11,188.69z"/>
	</g>
</g>
<g>
	<g>
		<path d="M568.33,170.31c5.87,4.28,8.89,11.2,12.61,17.21c4.2,6.8,10.1,12.37,13.41,19.74c0.58,1.28,2.47,0.17,1.89-1.1
			c-3.45-7.55-9.51-13.36-13.73-20.42c-3.74-6.25-6.99-12.96-13.07-17.31C568.29,167.6,567.21,169.49,568.33,170.31L568.33,170.31z"
			/>
	</g>
</g>
<g>
	<g>
		<path d="M607.54,234.33c1.99,2.8,4.18,5.41,6.02,8.33c1.87,2.97,3.57,6.05,5.19,9.17c3.29,6.31,6.32,12.73,9.72,18.98
			c3.82,7.02,7.84,13.94,12.17,20.66c4.17,6.46,8.52,12.83,11.93,19.75c1.52,3.07,3.02,6.18,4.28,9.36
			c1.17,2.99,2.33,6.28,1.95,9.54c-0.17,1.48,2.14,1.46,2.31,0c0.33-2.89-0.48-5.85-1.44-8.54c-1.03-2.9-2.34-5.7-3.66-8.47
			c-3.27-6.87-7.18-13.27-11.34-19.63c-4.41-6.74-8.64-13.59-12.64-20.58c-3.68-6.42-7.02-12.99-10.45-19.54
			c-1.86-3.55-3.78-7.08-5.94-10.46c-2.06-3.22-4.3-6.73-7.18-9.28C607.99,233.19,607.12,233.74,607.54,234.33L607.54,234.33z"/>
	</g>
</g>
<g>
	<path class="st7" d="M247.89,32.87h7.9c8.43,0,13.34,5.55,13.34,13.3c0,8.24-4.9,13.3-13.34,13.3h-7.9V32.87z M255.79,56.73
		c6.31,0,10.18-3.88,10.18-10.56c0-6.42-3.8-10.52-10.18-10.52h-4.83v21.09H255.79z"/>
	<path class="st7" d="M272.32,33.94c0-1.22,0.91-2.17,2.17-2.17c1.29,0,2.2,0.95,2.2,2.17c0,1.25-0.91,2.2-2.2,2.2
		C273.24,36.14,272.32,35.19,272.32,33.94z M272.93,39.71h3v19.76h-3V39.71z"/>
	<path class="st7" d="M279.73,53.73h2.93c0.34,2.36,2.01,3.61,4.9,3.61c2.96,0,4.6-1.44,4.6-3.46c0-5.55-11.82-1.33-11.82-9.16
		c0-3.34,3-5.51,7.14-5.51c3.65,0,6.69,2.13,6.99,5.7h-2.89c-0.27-1.86-1.67-3.12-4.29-3.12c-2.47,0-4.07,1.22-4.07,2.92
		c0,5.02,11.85,0.84,11.85,9c0,3.72-3.08,6.23-7.67,6.23C282.74,59.96,280.08,57.42,279.73,53.73z"/>
	<path class="st7" d="M297.94,49.59c0-5.85,4.29-10.37,10.11-10.37c4.29,0,8.28,2.58,9.35,6.99h-3.12c-0.8-2.58-3.31-4.26-6.16-4.26
		c-4.22,0-7.07,3.34-7.07,7.64c0,4.45,3,7.64,7.14,7.64c2.85,0,5.4-1.67,6.16-4.26h3.08c-1.03,4.41-5.05,6.99-9.35,6.99
		C302.12,59.96,297.94,55.44,297.94,49.59z"/>
	<path class="st7" d="M319.71,49.59c0-5.96,4.45-10.37,10.33-10.37c5.96,0,10.3,4.45,10.3,10.37c0,5.93-4.41,10.37-10.33,10.37
		S319.71,55.59,319.71,49.59z M337.26,49.59c0-4.37-3-7.64-7.26-7.64c-4.26,0-7.22,3.31-7.22,7.64c0,4.45,3,7.64,7.22,7.64
		C334.26,57.23,337.26,54,337.26,49.59z"/>
	<path class="st7" d="M341.29,39.71h3.23l5.96,16.07h0.23l5.93-16.07h3.31l-7.79,19.76h-3.12L341.29,39.71z"/>
	<path class="st7" d="M360.71,49.59c0-6.31,4.29-10.37,9.69-10.37c6,0,9.58,4.41,9.58,10.11v1.33h-16.11
		c0.15,3.95,2.7,6.57,6.76,6.57c2.62,0,5.13-1.25,6.04-3.57h3.12c-1.1,3.69-4.56,6.31-9.19,6.31
		C364.55,59.96,360.71,55.52,360.71,49.59z M376.78,47.99c-0.27-3.95-3.04-6.04-6.38-6.04c-3.3,0-6.15,2.39-6.46,6.04H376.78z"/>
	<path class="st7" d="M383.78,39.71h2.96v3.69h0.23c0.57-1.67,2.51-3.69,5.39-3.69h1.67v3h-1.63c-3.61,0-5.62,2.81-5.62,6.57v10.18
		h-3V39.71z"/>
	<path class="st7" d="M408.4,53.5V42.26h-3.72v-2.54h2.96c0.53,0,0.95-0.34,0.95-0.99v-4.75h2.81v5.74h6.08v2.54h-6.08v11.21
		c0,2.13,0.8,3.38,3.08,3.38h2.74v2.62h-2.92C410.64,59.47,408.4,57.49,408.4,53.5z"/>
	<path class="st7" d="M421.28,30.97h3V42.6h0.23c0.84-1.79,3.04-3.38,6.12-3.38c4.6,0,7.45,3.46,7.45,7.83v12.42h-3V47.23
		c0-3.15-2.39-5.21-5.17-5.21c-3.04,0-5.62,2.24-5.62,5.43v12.01h-3V30.97z"/>
	<path class="st7" d="M441.5,49.59c0-6.31,4.29-10.37,9.69-10.37c6,0,9.58,4.41,9.58,10.11v1.33h-16.11
		c0.15,3.95,2.7,6.57,6.76,6.57c2.62,0,5.13-1.25,6.04-3.57h3.12c-1.1,3.69-4.56,6.31-9.19,6.31
		C445.34,59.96,441.5,55.52,441.5,49.59z M457.57,47.99c-0.27-3.95-3.04-6.04-6.38-6.04c-3.3,0-6.15,2.39-6.46,6.04H457.57z"/>
	<path class="st7" d="M473.68,39.71h2.89v3.12h0.23c0.49-0.72,2.55-3.61,6.84-3.61c5.81,0,9.84,4.29,9.84,10.33
		c0,6.08-4.03,10.41-9.61,10.41c-4.14,0-6.34-2.66-6.95-3.69h-0.23v11.93h-3V39.71z M490.4,49.55c0-4.63-2.81-7.64-6.95-7.64
		c-4.29,0-6.88,3.5-6.88,7.64c0,4.86,3.04,7.68,6.95,7.68C487.59,57.23,490.4,54.03,490.4,49.55z"/>
	<path class="st7" d="M495.76,49.59c0-5.96,4.45-10.37,10.33-10.37c5.96,0,10.3,4.45,10.3,10.37c0,5.93-4.41,10.37-10.33,10.37
		S495.76,55.59,495.76,49.59z M513.32,49.59c0-4.37-3-7.64-7.26-7.64c-4.26,0-7.22,3.31-7.22,7.64c0,4.45,3,7.64,7.22,7.64
		C510.31,57.23,513.32,54,513.32,49.59z"/>
	<path class="st7" d="M517.35,39.71h3.27l4.79,16.34h0.23l5.24-16.34h3.42l5.21,16.34h0.23l4.83-16.34h3.27l-6.19,19.76h-3.88
		l-5.05-16.03h-0.23l-5.09,16.03h-3.88L517.35,39.71z"/>
	<path class="st7" d="M548.58,49.59c0-6.31,4.29-10.37,9.69-10.37c6,0,9.58,4.41,9.58,10.11v1.33h-16.11
		c0.15,3.95,2.7,6.57,6.76,6.57c2.62,0,5.13-1.25,6.04-3.57h3.12c-1.1,3.69-4.56,6.31-9.19,6.31
		C552.42,59.96,548.58,55.52,548.58,49.59z M564.65,47.99c-0.27-3.95-3.04-6.04-6.38-6.04c-3.3,0-6.15,2.39-6.46,6.04H564.65z"/>
	<path class="st7" d="M571.65,39.71h2.96v3.69h0.23c0.57-1.67,2.51-3.69,5.39-3.69h1.67v3h-1.63c-3.61,0-5.62,2.81-5.62,6.57v10.18
		h-3V39.71z"/>
	<path class="st7" d="M259.75,95.19c0-5.96,4.45-10.37,10.33-10.37c5.96,0,10.3,4.45,10.3,10.37c0,5.93-4.41,10.37-10.33,10.37
		S259.75,101.19,259.75,95.19z M277.3,95.19c0-4.37-3-7.64-7.26-7.64c-4.26,0-7.22,3.31-7.22,7.64c0,4.45,3,7.64,7.22,7.64
		C274.3,102.83,277.3,99.6,277.3,95.19z"/>
	<path class="st7" d="M285.63,87.86h-3.72v-2.54h3.72v-2.36c0-3.99,2.77-6.38,6.76-6.38h1.86v2.62h-1.9c-2.66,0-3.72,1.67-3.72,3.8
		v2.32h5.77v2.54h-5.77v17.21h-3V87.86z"/>
	<path class="st7" d="M305.39,99.06h4.56c0.19,1.71,1.56,2.62,3.8,2.62c2.28,0,3.57-0.99,3.57-2.39c0-4.25-11.47-0.23-11.47-8.59
		c0-3.38,2.93-6.12,7.86-6.12c4.33,0,7.56,2.2,7.87,6.19h-4.37c-0.23-1.44-1.37-2.39-3.53-2.39c-2.01,0-3.3,0.87-3.3,2.17
		c0,3.8,11.74-0.19,11.74,8.47c0,3.8-3.08,6.54-8.44,6.54C308.27,105.56,305.58,103.02,305.39,99.06z"/>
	<path class="st7" d="M325.15,85.08h4.71v2.43h0.27c0.87-1.52,2.7-2.92,5.43-2.92c2.74,0,4.79,1.18,5.93,3.04h0.3
		c1.37-2.09,3.34-3.04,5.93-3.04c4.41,0,7.29,3,7.29,7.22v13.26h-4.94V93.52c0-2.74-1.25-4.29-3.61-4.29
		c-2.24,0-3.88,1.71-3.88,4.41v11.44h-4.94V93.21c0-2.43-1.44-3.99-3.72-3.99c-2.2,0-3.84,1.82-3.84,4.37v11.47h-4.94V85.08z"/>
	<path class="st7" d="M357.29,95.19c0-6.27,3.8-10.6,9.27-10.6c3.46,0,5.4,2.05,6.08,3.08h0.27v-2.58h4.94v19.99h-4.86v-2.55h-0.27
		c-0.57,0.84-2.36,3.04-6,3.04C361.13,105.56,357.29,101.38,357.29,95.19z M373.02,95.11c0-3.76-2.28-6.04-5.39-6.04
		c-3.15,0-5.32,2.51-5.32,6.04c0,3.61,2.17,6,5.36,6C370.97,101.12,373.02,98.46,373.02,95.11z"/>
	<path class="st7" d="M381.38,99.44V76.57h4.94v22.42c0,1.14,0.57,1.75,1.6,1.75h0.8v4.33h-1.86
		C383.36,105.07,381.38,102.98,381.38,99.44z"/>
	<path class="st7" d="M391.11,99.44V76.57h4.94v22.42c0,1.14,0.57,1.75,1.6,1.75h0.8v4.33h-1.86
		C393.09,105.07,391.11,102.98,391.11,99.44z"/>
	<path class="st7" d="M408.78,95.08c0-5.89,4.18-10.49,10.45-10.49c5.13,0,9.12,3.15,9.88,7.86h-5.05
		c-0.61-1.98-2.47-3.38-4.79-3.38c-3.34,0-5.47,2.66-5.47,6c0,3.46,2.24,6,5.51,6c2.28,0,4.14-1.29,4.71-3.23h5.05
		c-0.76,4.63-4.71,7.71-9.84,7.71C412.96,105.56,408.78,100.96,408.78,95.08z"/>
	<path class="st7" d="M431.96,76.57h4.9v10.94h0.3c0.8-1.48,2.74-2.92,5.55-2.92c4.48,0,7.22,3.15,7.22,7.41v13.07h-4.94V93.29
		c0-2.43-1.63-4.07-3.91-4.07c-2.36,0-4.18,1.82-4.18,4.29v11.55h-4.94V76.57z"/>
	<path class="st7" d="M452.21,95.19c0-6.27,3.8-10.6,9.27-10.6c3.46,0,5.4,2.05,6.08,3.08h0.27v-2.58h4.94v19.99h-4.86v-2.55h-0.27
		c-0.57,0.84-2.36,3.04-6,3.04C456.05,105.56,452.21,101.38,452.21,95.19z M467.94,95.11c0-3.76-2.28-6.04-5.39-6.04
		c-3.15,0-5.32,2.51-5.32,6.04c0,3.61,2.17,6,5.36,6C465.89,101.12,467.94,98.46,467.94,95.11z"/>
	<path class="st7" d="M476.31,85.08h4.71v2.43h0.27c0.8-1.48,2.77-2.92,5.62-2.92c4.48,0,7.22,3.15,7.22,7.41v13.07h-4.94V93.29
		c0-2.43-1.56-4.07-3.84-4.07c-2.39,0-4.1,1.9-4.1,4.41v11.44h-4.94V85.08z"/>
	<path class="st7" d="M497.55,107.31h4.56c0.38,1.79,1.98,2.93,4.67,2.93c3.57,0,5.32-1.9,5.32-5.32v-2.58h-0.3
		c-0.57,0.91-2.43,3.04-6,3.04c-5.4,0-9.38-4.03-9.38-10.37c0-6.31,3.91-10.41,9.23-10.41c3.53,0,5.51,2.09,6.12,3.08h0.3v-2.58h4.9
		v19.83c0,5.43-3.42,9.38-10.18,9.38C501.01,114.3,497.89,111.03,497.55,107.31z M512.14,95c0-3.72-2.28-5.93-5.39-5.93
		c-3.15,0-5.32,2.39-5.32,5.93c0,3.65,2.17,5.93,5.36,5.93C510.09,100.93,512.14,98.38,512.14,95z"/>
	<path class="st7" d="M519.44,95.19c0-6.31,4.22-10.6,10.07-10.6c6.42,0,9.92,4.75,9.92,10.37v1.56h-15.2
		c0.15,3.04,2.24,5.09,5.43,5.09c2.43,0,4.29-1.14,4.98-2.77h4.6c-0.99,4.07-4.56,6.73-9.73,6.73
		C523.62,105.56,519.44,101.15,519.44,95.19z M534.71,93.02c-0.23-2.7-2.32-4.48-5.21-4.48c-2.77,0-4.9,1.98-5.21,4.48H534.71z"/>
	<path class="st7" d="M541.13,99.06h4.56c0.19,1.71,1.56,2.62,3.8,2.62c2.28,0,3.57-0.99,3.57-2.39c0-4.25-11.47-0.23-11.47-8.59
		c0-3.38,2.93-6.12,7.86-6.12c4.33,0,7.56,2.2,7.87,6.19h-4.37c-0.23-1.44-1.37-2.39-3.53-2.39c-2.01,0-3.3,0.87-3.3,2.17
		c0,3.8,11.74-0.19,11.74,8.47c0,3.8-3.08,6.54-8.44,6.54C544.02,105.56,541.32,103.02,541.13,99.06z"/>
	<path class="st7" d="M561.01,102.75c0-1.6,1.29-2.81,2.85-2.81c1.67,0,2.89,1.22,2.89,2.81c0,1.63-1.22,2.81-2.89,2.81
		C562.3,105.56,561.01,104.38,561.01,102.75z M561.35,88.62V78.47h5.09v10.14l-1.1,8.93h-2.93L561.35,88.62z"/>
</g>
</svg>
