<?xml version="1.0" encoding="utf-8"?>
<!-- Generator: Adobe Illustrator 27.8.0, SVG Export Plug-In . SVG Version: 6.00 Build 0)  -->
<svg version="1.1" id="Layer_1" xmlns="http://www.w3.org/2000/svg" xmlns:xlink="http://www.w3.org/1999/xlink" x="0px" y="0px"
	 viewBox="0 0 826 510" style="enable-background:new 0 0 826 510;" xml:space="preserve">
<style type="text/css">
	.st0{fill:#F3BC41;}
	.st1{fill:#028380;}
	.st2{fill:#646CEB;}
	.st3{fill:#A47FCF;}
	.st4{fill:#F1BD42;}
	.st5{opacity:0.39;}
	.st6{fill:#C1F347;}
	.st7{fill:#FFFFFF;}
	.st8{clip-path:url(#SVGID_00000155856777299777706910000003294546960418115005_);}
	.st9{clip-path:url(#SVGID_00000176009210612719485710000003315596401320262330_);}
	.st10{fill:#6DAAF8;}
	.st11{opacity:0.31;}
	.st12{fill:#FF6672;}
	.st13{stroke:#000000;stroke-width:0.5;stroke-miterlimit:10;}
	.st14{clip-path:url(#SVGID_00000178920695607332119710000017128280109389822362_);}
	.st15{fill:#DBA93A;}
	.st16{fill:#E83D48;}
	.st17{fill:#EB7076;}
	.st18{fill:#C0AAED;}
	.st19{fill:#B1C9F9;}
	.st20{fill:#62BFB6;}
	.st21{fill:#8FD2C7;}
	.st22{fill:#235550;}
	.st23{fill:#39807F;}
	.st24{fill:#9D80C9;}
	.st25{fill:#EF715A;}
	.st26{fill:#231F20;}
	.st27{clip-path:url(#SVGID_00000111901839653160673410000000683275730000540571_);}
	.st28{clip-path:url(#SVGID_00000176028030862471128920000016373949849811155381_);}
	.st29{stroke:#000000;stroke-miterlimit:10;}
</style>
<rect x="0" y="0" class="st21" width="826" height="510"/>
<g>
	<path class="st7" d="M179.12,58.26h15.16v2.81h-12.08v9.12h11.28v2.77h-11.28v11.89h-3.08V58.26z"/>
	<path class="st7" d="M197.47,59.32c0-1.22,0.91-2.17,2.17-2.17c1.29,0,2.2,0.95,2.2,2.17c0,1.25-0.91,2.2-2.2,2.2
		C198.38,61.52,197.47,60.57,197.47,59.32z M198.08,65.1h3v19.76h-3V65.1z"/>
	<path class="st7" d="M206.02,65.1h3v2.89h0.23c0.84-1.79,2.96-3.38,6.04-3.38c4.6,0,7.37,3.46,7.37,7.83v12.42h-3V72.62
		c0-3.15-2.32-5.21-5.09-5.21c-3.12,0-5.55,2.39-5.55,5.66v11.78h-3V65.1z"/>
	<path class="st7" d="M226.46,79.12h2.93c0.34,2.36,2.01,3.61,4.9,3.61c2.96,0,4.6-1.44,4.6-3.46c0-5.55-11.82-1.33-11.82-9.16
		c0-3.34,3-5.51,7.14-5.51c3.65,0,6.69,2.13,6.99,5.7h-2.89c-0.27-1.86-1.67-3.12-4.29-3.12c-2.47,0-4.07,1.22-4.07,2.92
		c0,5.02,11.85,0.84,11.85,9c0,3.72-3.08,6.23-7.68,6.23C229.46,85.35,226.81,82.8,226.46,79.12z"/>
	<path class="st7" d="M245.58,59.32c0-1.22,0.91-2.17,2.17-2.17c1.29,0,2.2,0.95,2.2,2.17c0,1.25-0.91,2.2-2.2,2.2
		C246.49,61.52,245.58,60.57,245.58,59.32z M246.19,65.1h3v19.76h-3V65.1z"/>
	<path class="st7" d="M254.2,87.93h2.85c0.53,2.32,2.81,3.53,5.74,3.53c4.64,0,6.73-2.58,6.73-6.61v-3.12h-0.23
		c-0.49,0.72-2.55,3.61-6.84,3.61c-5.81,0-9.84-4.29-9.84-10.33c0-6.08,4.03-10.41,9.61-10.41c4.14,0,6.34,2.66,6.95,3.69h0.23V65.1
		h3v19.76c0,5.81-3.68,9.23-9.61,9.23C257.96,94.09,254.85,91.46,254.2,87.93z M269.51,75.01c0-4.86-3.04-7.67-6.95-7.67
		c-4.07,0-6.88,3.19-6.88,7.67c0,4.64,2.81,7.64,6.95,7.64C266.93,82.65,269.51,79.15,269.51,75.01z"/>
	<path class="st7" d="M277.34,56.36h3v11.63h0.23c0.84-1.79,3.04-3.38,6.12-3.38c4.6,0,7.45,3.46,7.45,7.83v12.42h-3V72.62
		c0-3.15-2.39-5.21-5.17-5.21c-3.04,0-5.62,2.24-5.62,5.43v12.01h-3V56.36z"/>
	<path class="st7" d="M300.9,78.89V67.64h-3.72V65.1h2.96c0.53,0,0.95-0.34,0.95-0.99v-4.75h2.81v5.74h6.08v2.54h-6.08v11.21
		c0,2.13,0.8,3.38,3.08,3.38h2.74v2.62h-2.92C303.15,84.85,300.9,82.88,300.9,78.89z"/>
	<path class="st7" d="M312.65,79.12h2.93c0.34,2.36,2.01,3.61,4.9,3.61c2.96,0,4.6-1.44,4.6-3.46c0-5.55-11.82-1.33-11.82-9.16
		c0-3.34,3-5.51,7.14-5.51c3.65,0,6.69,2.13,6.99,5.7h-2.89c-0.27-1.86-1.67-3.12-4.29-3.12c-2.47,0-4.07,1.22-4.07,2.92
		c0,5.02,11.85,0.84,11.85,9c0,3.72-3.08,6.23-7.67,6.23C315.65,85.35,312.99,82.8,312.65,79.12z"/>
	<path class="st7" d="M341.87,58.26h15.16v2.81h-12.08v9.12h11.28v2.77h-11.28v11.89h-3.08V58.26z"/>
	<path class="st7" d="M362.65,78.89V67.64h-3.72V65.1h2.96c0.53,0,0.95-0.34,0.95-0.99v-4.75h2.81v5.74h6.08v2.54h-6.08v11.21
		c0,2.13,0.8,3.38,3.08,3.38h2.74v2.62h-2.92C364.89,84.85,362.65,82.88,362.65,78.89z"/>
	<path class="st7" d="M374.4,83.22c0-1.18,0.99-2.13,2.17-2.13s2.13,0.95,2.13,2.13s-0.95,2.13-2.13,2.13S374.4,84.4,374.4,83.22z"
		/>
	<path class="st7" d="M391.76,58.26h6.12l8.17,19.76h0.23l7.37-19.76h6.12v26.6h-4.86v-16.6h-0.23l-6.38,16.6h-4.41l-7.03-17.02
		h-0.23v17.02h-4.86V58.26z"/>
	<path class="st7" d="M424.17,89.18h2.05c1.71,0,2.66-0.84,3.23-2.32l0.53-1.41l-7.94-20.59h5.21l4.98,14.06h0.3l4.83-14.06h5.28
		l-8.81,23.41c-1.25,3.38-3.31,5.32-7.18,5.32h-2.47V89.18z"/>
	<path class="st7" d="M453.47,58.26h5.05v10.75h11.78V58.26h5.05v26.6h-5.05V73.8h-11.78v11.06h-5.05V58.26z"/>
	<path class="st7" d="M478.4,74.86c0-5.93,4.33-10.49,10.64-10.49c6.27,0,10.64,4.56,10.64,10.49c0,5.93-4.41,10.49-10.64,10.49
		C482.77,85.35,478.4,80.83,478.4,74.86z M494.66,74.86c0-3.46-2.36-6-5.62-6c-3.31,0-5.62,2.55-5.62,6c0,3.53,2.36,6,5.62,6
		S494.66,78.36,494.66,74.86z"/>
	<path class="st7" d="M502.3,77.94V64.87h4.94v11.82c0,2.43,1.6,4.1,3.88,4.1c2.39,0,4.1-1.94,4.1-4.45V64.87h4.94v19.99h-4.71
		v-2.43h-0.3c-0.8,1.48-2.77,2.93-5.58,2.93C505.08,85.35,502.3,82.19,502.3,77.94z"/>
	<path class="st7" d="M522.75,78.85h4.56c0.19,1.71,1.56,2.62,3.8,2.62c2.28,0,3.57-0.99,3.57-2.39c0-4.25-11.47-0.23-11.47-8.59
		c0-3.38,2.93-6.12,7.86-6.12c4.33,0,7.56,2.2,7.87,6.19h-4.37c-0.23-1.44-1.37-2.39-3.53-2.39c-2.01,0-3.3,0.87-3.3,2.17
		c0,3.8,11.74-0.19,11.74,8.47c0,3.8-3.08,6.54-8.44,6.54C525.63,85.35,522.94,82.8,522.75,78.85z"/>
	<path class="st7" d="M541.25,74.97c0-6.31,4.22-10.6,10.07-10.6c6.42,0,9.92,4.75,9.92,10.37v1.56h-15.2
		c0.15,3.04,2.24,5.09,5.43,5.09c2.43,0,4.29-1.14,4.98-2.77h4.6c-0.99,4.07-4.56,6.73-9.73,6.73
		C545.43,85.35,541.25,80.94,541.25,74.97z M556.52,72.81c-0.23-2.7-2.32-4.48-5.21-4.48c-2.77,0-4.9,1.98-5.21,4.48H556.52z"/>
	<path class="st7" d="M572.83,58.26h5.05v10.75h11.78V58.26h5.05v26.6h-5.05V73.8h-11.78v11.06h-5.05V58.26z"/>
	<path class="st7" d="M597.76,74.97c0-6.31,4.22-10.6,10.07-10.6c6.42,0,9.92,4.75,9.92,10.37v1.56h-15.2
		c0.15,3.04,2.24,5.09,5.43,5.09c2.43,0,4.29-1.14,4.98-2.77h4.6c-0.99,4.07-4.56,6.73-9.73,6.73
		C601.94,85.35,597.76,80.94,597.76,74.97z M613.03,72.81c-0.23-2.7-2.32-4.48-5.21-4.48c-2.77,0-4.9,1.98-5.21,4.48H613.03z"/>
	<path class="st7" d="M619.99,79.23V56.36h4.94v22.42c0,1.14,0.57,1.75,1.6,1.75h0.8v4.33h-1.86
		C621.96,84.85,619.99,82.76,619.99,79.23z"/>
	<path class="st7" d="M630.36,64.87h4.86v2.55h0.27c0.53-0.84,2.36-3.04,6-3.04c5.58,0,9.42,4.18,9.42,10.41
		c0,6.23-3.8,10.56-9.27,10.56c-3.53,0-5.43-1.98-6.08-3.08h-0.27v11.32h-4.94V64.87z M645.9,74.86c0-3.65-2.17-6-5.4-6
		c-3.27,0-5.32,2.62-5.32,6c0,3.72,2.28,6,5.36,6C643.73,80.86,645.9,78.39,645.9,74.86z"/>
</g>
<g>
	<g>
		<path d="M444.17,159.26c0.81,7.93-0.17,16.17,3.77,23.45c3.84,7.09,10.43,9.13,17.81,11.12c8.5,2.3,17.62,6.12,23.43,12.99
			c5.82,6.88,8.53,16.12,10.5,24.73c0.64,2.8,5.01,1.62,4.32-1.19c-1.99-8.09-4.69-16.18-9.49-23.08
			c-4.56-6.55-11.27-10.89-18.67-13.62c-4.3-1.59-8.54-2.82-12.97-3.99c-3.8-1-8.06-2.35-10.7-5.43c-6.08-7.11-5.2-16.58-6.49-25.21
			C445.55,158.21,444.08,158.4,444.17,159.26L444.17,159.26z"/>
	</g>
	<g>
		<path d="M359.96,159.06c-1.15,7.42-0.51,15.44-4.53,22.12c-1.97,3.28-4.39,5.43-7.93,6.87c-3.63,1.48-7.49,2.04-11.22,3.17
			c-6.43,1.95-12.55,4.5-18.03,8.43c-4.11,2.95-7.01,7.53-9.8,11.68c-1.61,2.39,2.31,4.69,3.87,2.26c3.09-4.8,6.06-9.04,10.82-12.28
			c6.49-4.42,13.91-6.34,21.33-8.6c3.01-0.92,6.14-2.14,8.67-4.05c2.56-1.94,4.25-4.76,5.54-7.66c3.05-6.83,2.09-14.52,2.79-21.74
			C361.55,158.41,360.09,158.2,359.96,159.06L359.96,159.06z"/>
	</g>
	<g>
		<path d="M351.46,161.39c8.73,0.12,17.46-0.75,26.19-0.96c9.1-0.21,18.3,0.01,27.39-0.51c4.46-0.26,8.89-0.89,13.36-1.14
			c4.59-0.26,9.2-0.17,13.79-0.19c4.57-0.02,9.12-0.18,13.69-0.36c4.06-0.16,8.32,0.28,12.33-0.37c1.28-0.21,1.28-2.38,0-2.59
			c-3.98-0.65-8.31-0.34-12.33-0.25c-4.37,0.1-8.72,0.21-13.08,0.19c-4.6-0.02-9.21-0.09-13.8,0.2c-4.67,0.3-9.29,1.02-13.95,1.35
			c-8.91,0.63-17.91,0.49-26.84,0.87c-8.91,0.38-17.82,1.36-26.74,1.52C350.02,159.18,350.02,161.37,351.46,161.39L351.46,161.39z"
			/>
	</g>
	<g>
		<path d="M346.89,148.01c-0.08,0.57,0.03,1.09,0.04,1.66c0,0.67,0.04,1.3,0.11,1.97c0.14,1.33,0.39,2.7,0.43,4.03
			c0.02,0.62-0.09,1.22,0.08,1.84c0.05,0.18,0.12,0.36,0.16,0.55c0.04,0.17-0.04-0.36,0,0.02c0.01,0.09,0.02,0.17,0.03,0.26
			c0.13,1.14,0.09,2.19,0.85,3.12c0.64,0.78,1.94,0.54,2.49-0.17c0.61-0.8,0.38-1.92-0.47-2.45c0.05,0.03,0.3,0.22,0.12,0.08
			c0.11,0.09,0.12,0.21,0.05,0.03c-0.03-0.08-0.08-0.16-0.12-0.23c0.11,0.23-0.03-0.06-0.04-0.11c-0.1-0.35-0.15-0.71-0.23-1.07
			c-0.06-0.24-0.14-0.47-0.24-0.7c-0.03-0.08-0.11-0.31-0.08-0.17c-0.11-0.61-0.06-1.24-0.2-1.85c-0.27-1.18-0.42-2.4-0.8-3.55
			c-0.18-0.54-0.3-1.07-0.44-1.62c-0.15-0.58-0.55-1.05-0.69-1.63C347.83,147.51,346.97,147.46,346.89,148.01L346.89,148.01z"/>
	</g>
	<g>
		<path d="M347.42,149.22c4.24,0.15,8.63-0.79,12.82-1.38c5.57-0.79,11.09-1.3,16.69-1.83c10.88-1.04,21.78-1.9,32.67-2.86
			c5.3-0.47,10.62-0.44,15.91-0.99c5.34-0.56,10.55-0.89,15.92-0.91c2.67-0.01,5.37-0.15,8.03,0c0.96,0.05,2.57-0.19,3.16,0.74
			c0.33,0.52,0.24,2.65,0.31,3.32c0.21,1.96,0.2,3.93,0.43,5.89c0.25,2.13,1.14,3.65,1.72,5.61c0.79,2.7,5.04,1.54,4.22-1.16
			c-0.23-0.78-0.67-1.38-0.98-2.11c-0.61-1.43-0.48-2.82-0.64-4.3c-0.27-2.37-0.43-4.78-0.86-7.13c-0.72-3.91-3.77-4.53-7.35-4.55
			c-5.71-0.04-11.52-0.24-17.21,0.17c-5.83,0.42-11.64,0.99-17.48,1.37c-5.94,0.38-11.84,1.22-17.76,1.84
			c-5.88,0.63-11.8,0.9-17.68,1.55c-5.5,0.6-11.02,0.92-16.48,1.86c-5.24,0.91-10.49,1.92-15.7,2.78
			C345.91,147.33,346.27,149.18,347.42,149.22L347.42,149.22z"/>
	</g>
	<g>
		<path d="M353.97,157.12c7.59-1.04,15.49-1.35,23.15-1.91c7.74-0.57,15.5-0.82,23.21-1.56c7.88-0.75,15.89-1.73,23.81-1.82
			c7.68-0.08,15.82,0.12,23.42-1.09c0.57-0.09,0.57-1.06,0-1.15c-7.69-1.22-15.68-0.65-23.42-0.48c-8.32,0.19-16.59,1.52-24.89,2.12
			c-7.95,0.58-15.98,0.88-23.91,1.82c-7.22,0.85-14.66,1.03-21.68,2.96C352.93,156.22,353.26,157.22,353.97,157.12L353.97,157.12z"
			/>
	</g>
	<g>
		<g>
			<path d="M477.13,268.95c2.89,0.06,5.74-1.23,8.53-1.77c0.83-0.16,1.65-0.35,2.48-0.54c0.46,0.93,0.74,1.95,0.85,2.99c0,0,0,0,0,0
				c-0.65,0.12-1.3,0.24-1.96,0.35c-3.2,0.53-6.41,1.16-9.41,2.27c-0.54,0.2-0.25,1.22,0.33,1.09c3.36-0.7,6.77-1.27,10.19-1.81
				c0.29-0.05,0.57-0.09,0.86-0.14c0,0,0,0,0,0c-0.11,1.42-0.54,2.79-1.24,3.92c-0.63,1.03-1.41,1.99-2.35,2.69
				c-0.23,0.17-1.31,0.81-2.15,0.97c-0.56-0.39-1.09-0.68-1.8-0.63c-0.74,0.05-0.94,0.99-0.54,1.6c0.44,0.65,1.17,0.88,1.9,0.9
				c0.62,0.45,1.3,1.1,1.67,1.36c0.51,0.36,1.01,0.73,1.5,1.1c0.62-0.4,1.25-0.78,1.91-1.12c-0.21-0.15-0.42-0.29-0.62-0.44
				c-0.68-0.5-1.38-0.96-2.08-1.43c1.3-0.63,2.36-1.76,3.21-2.96c1.23-1.74,1.97-3.96,1.98-6.2c1-0.18,2-0.37,3-0.55
				c1.47-0.28,2.97-0.41,4.16-1.41c0.44-0.36,0.14-1.26-0.47-1.15c-2.29,0.41-4.55,0.9-6.83,1.35c0,0,0,0,0,0
				c-0.17-1.03-0.52-2.04-1.06-2.99v0c1.76-0.42,3.52-0.84,5.31-1.13c1.17-0.19,0.9-2.01-0.29-1.94c-3,0.17-5.96,1.23-8.88,1.84
				c-2.87,0.6-5.65,1.51-8.49,2.2C475.91,267.58,476.16,268.92,477.13,268.95z"/>
			<g>
				<path d="M503.12,261.9c0.01-0.66,0.01-1.32,0.02-1.98c-5.01-5.12-12.2-8.23-18.68-7.09c-5.92,1.04-11.02,4.94-14.15,9.9
					c-2.61,4.22-3.21,8.37-3.17,13.13c0.26,0.14,0.52,0.28,0.77,0.44c-0.04-3.7,0.24-7.19,1.91-10.52
					c2.56-4.99,6.68-8.41,11.79-10.46C488.9,252.43,497.69,255.72,503.12,261.9z"/>
			</g>
			<g>
				<path d="M503.1,264.29c-4.16-5.61-11.22-9.35-17.56-8.54c-5.16,0.66-9.86,4.05-12.64,8.3c-2.79,4.34-3.19,8.53-3.02,13.68
					c0.23,0.2,0.45,0.41,0.67,0.62c-0.11-4.08-0.1-7.81,1.76-11.4c2.29-4.36,6.09-7.54,10.68-9.14c7.18-2.49,15.94,1.78,20.13,8.64
					C503.1,265.72,503.09,265.01,503.1,264.29z"/>
				<path d="M475.52,289.48c0.18,0.74,0.37,1.47,0.56,2.2c0.54,0.51,1.11,0.98,1.69,1.42c0.15-0.35,0.3-0.69,0.47-1.04
					C477.26,291.31,476.35,290.44,475.52,289.48z"/>
			</g>
		</g>
		<g>
			<path d="M415.82,235.61c-2.29,0.41-4.55,0.9-6.83,1.35c0,0,0,0,0,0c-0.17-1.03-0.52-2.04-1.06-2.99l0,0
				c1.76-0.42,3.52-0.84,5.31-1.13c1.17-0.19,0.9-2.01-0.29-1.94c-3,0.17-5.97,1.23-8.88,1.84c-2.87,0.6-5.65,1.51-8.49,2.2
				c-0.94,0.23-0.69,1.57,0.28,1.59c2.89,0.06,5.74-1.23,8.53-1.77c0.83-0.16,1.65-0.35,2.48-0.54c0.46,0.93,0.74,1.95,0.85,2.99
				c0,0,0,0,0,0c-0.65,0.12-1.3,0.24-1.96,0.35c-3.2,0.53-6.41,1.16-9.41,2.27c-0.54,0.2-0.25,1.22,0.33,1.09
				c3.36-0.7,6.77-1.27,10.19-1.81c0.29-0.05,0.57-0.09,0.86-0.14c0,0,0,0,0,0c-0.11,1.42-0.54,2.79-1.24,3.92
				c-0.63,1.03-1.4,1.99-2.35,2.69c-0.23,0.17-1.31,0.81-2.15,0.97c-0.56-0.39-1.09-0.68-1.8-0.63c-0.74,0.05-0.94,0.99-0.54,1.6
				c0.44,0.65,1.17,0.88,1.9,0.9c0.62,0.45,1.3,1.1,1.67,1.36c1.1,0.77,2.16,1.61,3.24,2.4c0.42,0.31,0.85,0.61,1.27,0.9
				c0.6,0.42,1.21,0.81,1.83,1.19c1.18,0.73,2.37,1.4,3.6,2.05c1.23,0.65,1.96-1.41,0.75-2.07c-0.19-0.11-0.38-0.21-0.57-0.32
				c0,0,0,0,0,0c-0.7-0.39-1.4-0.79-2.09-1.2l0,0c-1.78-1.05-3.51-2.17-5.24-3.42c-0.68-0.5-1.38-0.96-2.08-1.43
				c1.3-0.63,2.36-1.76,3.21-2.96c1.23-1.74,1.97-3.96,1.98-6.2c1-0.18,2-0.37,3-0.55c1.47-0.28,2.97-0.41,4.16-1.41
				C416.72,236.39,416.42,235.5,415.82,235.61z"/>
			<g>
				<path d="M385.67,247.01c2.07,12.12,12.09,22.04,23.96,19.79c11.88-2.23,20.93-15.69,18.3-28.51
					c-2.13-10.08-13.26-19.14-23.82-17.94c-13.82,1.58-18.84,14.5-18.12,26.67c0.03,0.5,0.77,0.49,0.75,0
					c-0.41-10.17,2.47-18.64,11.6-23.24c10-4.95,21.84,0.72,26.67,10.55c5.06,10.59-0.49,23.62-9.49,29.05
					c-11.84,7.33-26.07-2.03-28.46-16.36C386.91,246.09,385.51,246.09,385.67,247.01L385.67,247.01z"/>
			</g>
			<g>
				<path d="M388.37,246.58c1.76,10.55,10.49,19.19,20.88,17.23c10.4-1.94,18.25-13.66,15.91-24.83
					c-1.89-8.78-11.57-16.67-20.72-15.62c-11.98,1.38-16.37,12.63-15.79,23.22c0.02,0.43,0.67,0.43,0.65,0
					c-0.32-8.85,2.21-16.23,10.14-20.24c8.67-4.31,18.94,0.62,23.17,9.18c4.44,9.23-0.35,20.57-8.2,25.3
					c-10.37,6.38-22.79-1.77-24.83-14.25C389.45,245.78,388.24,245.78,388.37,246.58L388.37,246.58z"/>
			</g>
		</g>
		<g>
			<path d="M376.26,252.01c-1.64-1.82-3.34-3.59-5.03-5.39c0,0,0,0,0,0c0.71-0.67,1.31-1.47,1.74-2.42l0,0
				c1.36,1.35,2.71,2.69,3.97,4.13c0.82,0.94,2.1-0.22,1.36-1.23c-1.86-2.55-4.42-4.64-6.62-6.91c-2.18-2.24-4.58-4.27-6.85-6.45
				c-0.76-0.72-1.7,0.13-1.12,1.01c1.71,2.6,4.46,4.51,6.56,6.72c0.62,0.66,1.25,1.29,1.89,1.93c-0.47,0.87-1.11,1.62-1.87,2.22
				c0,0,0,0,0,0c-0.48-0.52-0.96-1.04-1.44-1.57c-2.34-2.59-4.78-5.15-7.5-7.3c-0.5-0.39-1.13,0.35-0.67,0.82
				c2.62,2.67,5.14,5.45,7.62,8.24c0.21,0.23,0.42,0.47,0.62,0.7c0,0,0,0,0,0c-1.18,0.6-2.51,0.89-3.82,0.82
				c-1.19-0.07-2.41-0.29-3.53-0.8c-0.27-0.12-1.44-0.79-2.08-1.48c-0.04-0.7-0.14-1.31-0.61-1.93c-0.5-0.65-1.37-0.38-1.6,0.28
				c-0.24,0.71,0.03,1.48,0.47,2.16c0.03,0.78-0.05,1.72-0.03,2.18c0.08,1.38,0.09,2.75,0.14,4.12c0.02,0.54,0.05,1.07,0.09,1.61
				c0.05,0.76,0.13,1.51,0.22,2.27c0.17,1.44,0.39,2.87,0.67,4.32c0.27,1.46,2.26,1.1,2.02-0.35c-0.04-0.23-0.07-0.45-0.11-0.68
				c0,0,0,0,0,0c-0.14-0.84-0.26-1.67-0.37-2.51l0,0c-0.29-2.14-0.49-4.28-0.58-6.46c-0.04-0.86-0.1-1.73-0.17-2.59
				c1.29,0.87,2.82,1.28,4.27,1.45c2.1,0.25,4.27-0.18,6.03-1.28c0.73,0.8,1.47,1.6,2.2,2.4c1.07,1.17,2.05,2.44,3.51,2.99
				C376.17,253.22,376.69,252.5,376.26,252.01z"/>
			<g>
				<path d="M348.68,230.6c-20.24,18.28,10.13,52.01,30.37,35.34c8.43-6.62,9.89-21.94,3.38-30.94
					c-8.61-11.53-23.21-10.82-33.42-4.22c-0.4,0.26,0.05,0.92,0.45,0.66c8.18-5.08,16.8-6.45,26.06-0.65
					c10.66,6.81,12.73,23.17,4.67,32.23c-17.19,20.49-50.96-12.88-30.39-31.41C350.46,231.02,349.34,230.02,348.68,230.6
					L348.68,230.6z"/>
			</g>
			<g>
				<path d="M350.78,232.83c-17.68,15.91,8.71,45.29,26.45,30.77c7.34-5.77,8.55-19.11,2.85-26.95c-7.5-10.04-20.15-9.42-29.01-3.67
					c-0.35,0.23,0.04,0.8,0.39,0.58c7.1-4.43,14.57-5.62,22.61-0.57c9.28,5.93,11.15,20.18,4.15,28.07
					c-15.04,17.84-44.44-11.22-26.47-27.35C352.32,233.21,351.36,232.33,350.78,232.83L350.78,232.83z"/>
			</g>
		</g>
		<g>
			<path d="M330.63,363.74c-0.01-0.08-0.02-0.16-0.03-0.24l0,0c1.82,0.3,3.63,0.59,5.42,1.02c1.17,0.28,1.56-1.49,0.41-1.88
				c-2.9-0.99-6.08-1.17-9.07-1.74c-0.27-0.05-0.54-0.09-0.82-0.14C327.93,361.72,329.29,362.72,330.63,363.74z"/>
			<g>
				<path d="M339.39,354.39c-7.29-5.46-17.7-6.52-25.76-1.79c0.02,0.02,0.04,0.04,0.05,0.06c0.22,0.3,0.47,0.59,0.72,0.87
					c0.27,0.16,0.54,0.33,0.8,0.49c7.68-4.29,17.48-2.9,24.01,2.7C339.24,355.95,339.3,355.17,339.39,354.39z"/>
			</g>
			<g>
				<path d="M339.17,358.13c-6.24-5.85-15.95-7.57-23.21-3.63c0.44,0.27,0.89,0.53,1.34,0.78c0.13,0.07,0.25,0.14,0.38,0.21
					c7.02-3.29,16.18-0.92,21.53,5.17C339.18,359.82,339.16,358.97,339.17,358.13z"/>
			</g>
		</g>
		<g>
			<path d="M339.78,319.39c-0.33,2.43-0.58,4.87-0.86,7.3c0,0,0,0,0,0c-0.96-0.26-1.96-0.35-2.96-0.21l0,0
				c0.15-1.91,0.29-3.82,0.57-5.69c0.18-1.23-1.53-1.72-1.82-0.52c-0.72,3.01-0.64,6.37-0.94,9.49c-0.29,3.08-0.29,6.22-0.49,9.31
				c-0.07,1.03,1.16,1.38,1.45,0.42c0.88-2.83,0.57-6.21,0.9-9.2c0.1-0.89,0.18-1.78,0.25-2.67c0.96-0.06,1.94,0.1,2.88,0.43
				c0,0,0,0,0,0c-0.09,0.7-0.18,1.39-0.28,2.09c-0.48,3.4-0.87,6.85-0.79,10.32c0.01,0.63,0.97,0.79,1.03,0.15
				c0.38-3.65,0.89-7.29,1.45-10.92c0.05-0.3,0.09-0.61,0.14-0.91c0,0,0,0,0,0c1.21,0.71,2.28,1.71,3.05,2.9
				c0.7,1.07,1.29,2.25,1.61,3.5c0.07,0.3,0.3,1.67,0.17,2.58c-0.51,0.4-0.92,0.8-1.09,1.53c-0.18,0.77,0.56,1.38,1.2,1.24
				c0.69-0.16,1.11-0.79,1.36-1.52c0.58-0.43,1.35-0.84,1.68-1.09c1.01-0.77,2.06-1.49,3.09-2.24c0.4-0.3,0.8-0.6,1.19-0.91
				c0.56-0.44,1.1-0.89,1.63-1.35c1.02-0.89,2-1.82,2.97-2.8c0.98-0.99-0.56-2.58-1.54-1.62c-0.16,0.15-0.31,0.3-0.47,0.45
				c0,0,0,0,0,0c-0.57,0.55-1.15,1.09-1.73,1.62l0,0c-1.49,1.36-3.02,2.64-4.65,3.85c-0.64,0.48-1.26,0.98-1.89,1.48
				c-0.13-1.57-0.78-3.12-1.56-4.48c-1.13-1.97-2.85-3.64-4.81-4.6c0.15-1.07,0.28-2.14,0.42-3.21c0.2-1.57,0.55-3.11,0.02-4.69
				C340.76,318.81,339.86,318.74,339.78,319.39z"/>
			<g>
				<path d="M359.17,348.59c0.3,0.18,0.6,0.36,0.9,0.55c8.78-11.49,5.86-34.98-12.68-40.18c-11.52-3.19-23.74,5.66-24.86,16.73
					c-1.17,12.5,6.74,22.48,16.99,27.73c0.04-0.26,0.09-0.51,0.14-0.76c-6.2-3.28-11.18-7.66-13.83-14.84
					c-4.72-12.44,0.71-25.73,14.2-27.58C362.69,307.17,368.92,336.11,359.17,348.59z"/>
			</g>
			<g>
				<path d="M356.7,347.09c0.26,0.16,0.53,0.32,0.79,0.48c8.3-9.72,5.93-31.03-10.54-35.66c-9.99-2.78-20.6,4.93-21.6,14.57
					c-1.07,10.9,5.83,19.61,14.81,24.18c0.06-0.21,0.14-0.41,0.21-0.62c-5.48-2.87-9.88-6.69-12.19-13
					c-4.06-10.83,0.7-22.4,12.39-24.02C360.61,310.29,365.97,336.63,356.7,347.09z"/>
			</g>
		</g>
		<g>
			<g>
				<path d="M461.96,351.58c0.27-0.29,0.52-0.59,0.79-0.88c-1.37-0.71-2.86-1.3-4.46-1.75c-9.53-2.64-19.51,2.97-23.32,11.24
					c0.67-0.02,1.33-0.04,2-0.06c2.44-5.15,7.18-8.97,13.96-9.9C455.18,349.64,458.86,350.21,461.96,351.58z"/>
			</g>
			<g>
				<path d="M459.86,353.74c0.27-0.27,0.52-0.54,0.79-0.81c-0.89-0.39-1.82-0.75-2.81-1.03c-7.62-2.12-15.59,1.88-19.39,8.17
					c0.61-0.03,1.22-0.06,1.83-0.1c2.3-3.62,6.06-6.25,11.18-6.96C454.63,352.58,457.42,352.89,459.86,353.74z"/>
			</g>
		</g>
		<g>
			<g>
				<path d="M369.1,350.62c6.26-0.27,11.68,2.41,15.52,6.56c0.8,0.13,1.6,0.25,2.39,0.37c-3.04-4.08-7.26-7.2-12.26-8.19
					c-4.73-0.94-8.88-0.41-12.43,1.15c0.54,0.32,1.09,0.63,1.63,0.94C365.52,350.99,367.23,350.7,369.1,350.62z"/>
			</g>
			<g>
				<path d="M368.56,353.41c0.23-0.02,0.45-0.04,0.68-0.05c3.79-0.16,7.22,0.93,10.09,2.82c0.86,0.18,1.73,0.35,2.6,0.52
					c0.2,0.03,0.41,0.07,0.61,0.1c-2.34-2.25-5.2-3.9-8.4-4.54c-3.09-0.61-5.88-0.49-8.39,0.18c0.11,0.06,0.22,0.1,0.33,0.15
					C366.9,352.89,367.73,353.15,368.56,353.41z"/>
			</g>
		</g>
		<g>
			<path d="M501.27,340.66c-0.33-3.39,0.09-6.83,1.46-10.11c0.49-1.15-1.24-2.15-1.73-0.99c-1.54,3.77-2,7.65-1.57,11.49
				C500.03,340.93,500.65,340.8,501.27,340.66z"/>
		</g>
		<g>
			<path d="M477.33,329.58c0.27-0.45,0.55-0.9,0.82-1.34c-1.48-1.52-3.01-2.99-4.65-4.3c-0.5-0.39-1.13,0.35-0.68,0.82
				C474.36,326.33,475.85,327.95,477.33,329.58z"/>
			<path d="M479.55,325.98c0.35-0.56,0.69-1.12,1.04-1.68c-1.2-1.11-2.41-2.21-3.59-3.36c-0.75-0.73-1.7,0.12-1.12,1
				C476.86,323.46,478.19,324.74,479.55,325.98z"/>
			<path d="M469.83,334.91c0.07,1.38,0.08,2.75,0.13,4.12c0.02,0.54,0.05,1.07,0.09,1.61c0.01,0.14,0.03,0.27,0.04,0.4
				c0.63-0.94,1.26-1.89,1.88-2.85c-0.02-0.32-0.05-0.64-0.06-0.96c-0.03-0.86-0.1-1.73-0.16-2.59c0.59,0.4,1.23,0.7,1.89,0.92
				c0.31-0.5,0.62-1,0.94-1.51c-0.3-0.1-0.6-0.21-0.89-0.34c-0.27-0.12-1.44-0.8-2.08-1.48c-0.04-0.7-0.13-1.31-0.61-1.93
				c-0.5-0.65-1.37-0.39-1.6,0.27c-0.25,0.71,0.03,1.48,0.47,2.16C469.89,333.52,469.8,334.45,469.83,334.91z"/>
			<g>
				<path d="M462.8,350.64c0.26-0.29,0.52-0.59,0.78-0.88c-8.49-8.07-12.23-21.52-1.62-31c0.17-0.15,0.22-0.32,0.2-0.48
					c7.4-4.4,15.15-5.72,23.37-1.46c0.39-0.47,0.81-0.88,1.25-1.22c-7.97-4.04-17.67-2.57-25.17,2.05c-0.25-0.1-0.54-0.1-0.77,0.1
					C449.81,327.62,453.69,342.11,462.8,350.64z"/>
				<path d="M496.57,341.7c0.46-0.11,0.93-0.23,1.4-0.33c1.11-5.12,0.72-10.74-1.32-15.45c-0.39,0.59-0.79,1.17-1.17,1.76
					C497.26,332.12,497.64,337.12,496.57,341.7z"/>
			</g>
			<g>
				<path d="M493.56,342.57c0.42-0.14,0.85-0.27,1.28-0.4c1.25-4.26,1.23-9.08-0.15-13.3c-0.34,0.53-0.68,1.07-1.02,1.6
					C494.86,334.43,494.84,338.74,493.56,342.57z"/>
				<path d="M464.57,348.62c0.22-0.26,0.42-0.54,0.63-0.81c-7.35-7.03-10.54-18.7-1.3-26.94c0.15-0.13,0.19-0.28,0.18-0.42
					c6.32-3.77,12.93-4.94,19.94-1.44c0.26-0.39,0.52-0.79,0.79-1.18c-6.8-3.13-14.88-1.82-21.19,2.08
					c-0.22-0.09-0.47-0.09-0.67,0.09C453.3,328.59,456.65,341.19,464.57,348.62z"/>
			</g>
		</g>
		<g>
			<path d="M503.69,298.11c-0.06-0.9-0.13-1.8-0.19-2.71c-1.88-2.15-3.85-4.23-6.04-6.03c-0.48-0.39-1.15,0.35-0.71,0.82
				C499.14,292.76,501.44,295.43,503.69,298.11z"/>
			<path d="M503.78,299.4c-1,0.37-2.04,0.6-3.08,0.54c-1.18-0.07-2.39-0.3-3.49-0.81c-0.26-0.12-1.4-0.79-2.01-1.48
				c-0.01-0.7-0.08-1.31-0.52-1.93c-0.47-0.65-1.35-0.38-1.61,0.28c-0.28,0.71-0.04,1.48,0.37,2.16c-0.01,0.78-0.14,1.71-0.13,2.17
				c0.01,1.37-0.04,2.74-0.05,4.12c0,0.54,0,1.07,0.02,1.61c0.02,0.76,0.06,1.51,0.11,2.26c0.1,1.44,0.26,2.87,0.46,4.32
				c0.2,1.46,2.21,1.1,2.04-0.35c-0.03-0.23-0.05-0.45-0.08-0.68c0,0,0,0,0,0c-0.1-0.84-0.18-1.67-0.25-2.51l0,0
				c-0.18-2.14-0.29-4.27-0.28-6.45c0.01-0.86-0.02-1.72-0.04-2.59c1.24,0.87,2.75,1.28,4.2,1.46c1.5,0.18,3.04,0,4.47-0.51
				C503.86,300.47,503.82,299.94,503.78,299.4z"/>
			<g>
				<path d="M498.58,277.92c-5.15,0.02-9.38,2.31-13.5,4.93c-1.05,0.67,0.03,2.37,1.08,1.7c3.81-2.44,7.69-4.65,12.47-4.67
					C499.91,279.87,499.87,277.91,498.58,277.92L498.58,277.92z"/>
			</g>
			<g>
				<path d="M485.82,316.49c0.44-0.48,0.92-0.89,1.43-1.22c-8.8-7.96-11.83-21.99-1.09-30.72c0.96-0.76-0.1-2.47-1.08-1.7
					C473.38,292.37,476.34,307.7,485.82,316.49z"/>
			</g>
			<g>
				<path d="M497.39,280.87c-3.91,0.42-7.14,2.2-10.32,4.27c-0.91,0.59,0.02,2.07,0.93,1.48c2.88-1.88,5.87-3.65,9.43-4.03
					C498.53,282.46,498.5,280.76,497.39,280.87L497.39,280.87z"/>
			</g>
			<g>
				<path d="M488.12,314.8c0.62-0.28,1.26-0.46,1.91-0.55c-8.52-6.71-11.99-19.67-2.03-27.63c0.84-0.66-0.08-2.14-0.93-1.48
					C476.57,293.54,479.5,307.22,488.12,314.8z"/>
				<path d="M501.02,318.55c-1.02-0.06-2.02-0.21-3-0.43c0.32,0.57,0.54,1.19,0.65,1.84c0.79,0.14,1.58,0.25,2.39,0.29
					C502.11,320.31,502.07,318.6,501.02,318.55z"/>
			</g>
		</g>
		<g>
			<path d="M467.89,296.66c-1.64-1.83-3.33-3.6-5.01-5.41c0,0,0,0,0,0c0.71-0.66,1.31-1.47,1.75-2.41l0,0
				c1.35,1.35,2.7,2.7,3.95,4.15c0.81,0.94,2.1-0.21,1.36-1.22c-1.85-2.56-4.4-4.66-6.59-6.94c-2.17-2.25-4.57-4.29-6.83-6.48
				c-0.75-0.73-1.7,0.12-1.12,1c1.7,2.61,4.44,4.53,6.53,6.75c0.62,0.66,1.25,1.3,1.88,1.94c-0.47,0.87-1.12,1.61-1.88,2.22
				c0,0,0,0,0,0c-0.48-0.52-0.96-1.05-1.43-1.58c-2.33-2.6-4.76-5.17-7.48-7.33c-0.5-0.39-1.13,0.35-0.68,0.82
				c2.61,2.68,5.12,5.47,7.59,8.27c0.21,0.24,0.41,0.47,0.62,0.7c0,0,0,0,0,0c-1.18,0.59-2.51,0.88-3.83,0.8
				c-1.19-0.07-2.41-0.3-3.53-0.82c-0.27-0.12-1.44-0.8-2.08-1.48c-0.04-0.7-0.13-1.31-0.61-1.93c-0.5-0.65-1.37-0.39-1.6,0.27
				c-0.25,0.71,0.03,1.48,0.47,2.16c0.03,0.78-0.06,1.72-0.04,2.17c0.07,1.38,0.08,2.75,0.13,4.12c0.02,0.54,0.05,1.07,0.09,1.61
				c0.05,0.76,0.12,1.51,0.21,2.27c0.16,1.44,0.38,2.87,0.65,4.33c0.27,1.46,2.26,1.1,2.03-0.34c-0.04-0.23-0.07-0.45-0.11-0.68
				c0,0,0,0,0,0c-0.13-0.84-0.25-1.68-0.36-2.51l0,0c-0.28-2.15-0.48-4.28-0.56-6.46c-0.03-0.86-0.1-1.73-0.16-2.59
				c1.28,0.88,2.81,1.29,4.26,1.47c2.1,0.26,4.27-0.17,6.04-1.26c0.73,0.81,1.46,1.61,2.19,2.41c1.07,1.17,2.04,2.45,3.5,3
				C467.8,297.86,468.33,297.14,467.89,296.66z"/>
			<g>
				<path d="M440.38,275.13c-20.33,18.19,9.94,52.04,30.25,35.45c8.45-6.59,9.97-21.9,3.49-30.92
					c-8.57-11.56-23.17-10.91-33.41-4.35c-0.4,0.26,0.04,0.92,0.45,0.66c8.21-5.05,16.84-6.38,26.07-0.54
					c10.63,6.86,12.65,23.22,4.54,32.25c-17.26,20.4-50.94-13.09-30.28-31.54C442.16,275.57,441.05,274.56,440.38,275.13
					L440.38,275.13z"/>
			</g>
			<g>
				<path d="M442.48,277.38c-17.76,15.84,8.55,45.31,26.34,30.87c7.36-5.74,8.62-19.08,2.94-26.94c-7.47-10.06-20.11-9.5-29-3.79
					c-0.35,0.23,0.04,0.8,0.39,0.58c7.13-4.4,14.6-5.56,22.62-0.47c9.25,5.97,11.08,20.22,4.04,28.09
					c-15.11,17.76-44.41-11.4-26.37-27.46C444.02,277.76,443.05,276.88,442.48,277.38L442.48,277.38z"/>
			</g>
		</g>
		<g>
			<path d="M424.49,311.53c3.5,0.51,6.99,1.16,10.46,1.84c0.29,0.06,0.58,0.11,0.88,0.17c0,0,0,0,0,0c-0.54,1.27-1.36,2.4-2.39,3.2
				c-0.92,0.73-1.96,1.35-3.08,1.67c-0.27,0.08-1.52,0.29-2.38,0.14c-0.43-0.56-0.86-1.01-1.57-1.21c-0.74-0.21-1.22,0.58-1,1.28
				c0.23,0.76,0.88,1.22,1.59,1.5c0.47,0.64,0.94,1.47,1.23,1.84c0.52,0.69,1.03,1.39,1.53,2.09c0.75-0.17,1.5-0.26,2.27-0.3
				c-0.32-0.41-0.64-0.81-0.95-1.23c-0.52-0.7-1.06-1.37-1.6-2.05c1.45-0.13,2.81-0.8,3.99-1.62c1.71-1.18,3.09-2.98,3.78-5.06
				c1.02,0.18,2.04,0.35,3.06,0.52c1.49,0.25,2.97,0.64,4.41,0.12c0.53-0.19,0.51-1.13-0.1-1.23c-2.32-0.4-4.64-0.72-6.96-1.08v0
				c0.15-1.02,0.13-2.07-0.11-3.14v0c1.82,0.21,3.64,0.42,5.45,0.76c0.43,0.08,0.75-0.11,0.92-0.4c-0.51-0.53-0.97-1.1-1.41-1.71
				c-2.7-0.65-5.58-0.72-8.3-1.11c-2.97-0.42-5.96-0.54-8.94-0.87c-0.99-0.11-1.16,1.21-0.22,1.56c2.8,1.05,5.98,0.84,8.85,1.29
				c0.85,0.13,1.71,0.24,2.56,0.35c0.16,1.02,0.12,2.06-0.1,3.06v0c-0.67-0.11-1.33-0.23-2-0.35c-3.26-0.61-6.57-1.13-9.85-1.15
				C423.9,310.41,423.88,311.44,424.49,311.53z"/>
			<g>
				<path d="M413.15,313.73c0.02-0.14,0.01-0.25-0.03-0.36c-0.45,0.11-0.91,0.19-1.37,0.25c-1.01,6.59,0.89,12.94,4.56,17.81
					c0.25-0.35,0.5-0.69,0.77-1.02C413.79,325.8,412.11,319.86,413.15,313.73z"/>
				<path d="M434.63,294.59c-1.78-0.07-3.53,0.1-5.24,0.47c-0.01,0.55-0.04,1.09-0.12,1.63c1.42-0.28,2.87-0.44,4.35-0.49
					c0.46-0.01,0.91,0,1.37,0.03C434.85,295.69,434.73,295.14,434.63,294.59z"/>
				<path d="M454.95,313.69c-0.32,0.02-0.64,0.06-0.97,0.06c-0.12,0-0.24-0.02-0.36-0.02c0.51,2.38,0.59,4.83,0.12,7.22
					c-0.74,3.92-2.49,7.49-4.9,10.41c0.27,0.39,0.53,0.79,0.77,1.2c2.67-3.1,4.62-6.95,5.44-11.22
					C455.56,318.84,455.48,316.24,454.95,313.69z"/>
			</g>
			<g>
				<path d="M415.78,314.23c0.04-0.22-0.03-0.39-0.14-0.53c0.14-0.47,0.28-0.94,0.42-1.4c-0.27,0.13-0.54,0.26-0.82,0.37
					c-0.08,0.26-0.15,0.52-0.23,0.78c-0.2,0.03-0.37,0.16-0.42,0.44c-0.89,5.58,0.58,11.06,3.58,15.33c0.26-0.25,0.52-0.5,0.79-0.74
					C416.25,324.49,414.94,319.41,415.78,314.23z"/>
				<path d="M435.44,297.63c-2.22-0.19-4.39,0.04-6.45,0.58c-0.12,0.49-0.26,0.96-0.43,1.43c1.41-0.37,2.87-0.59,4.36-0.66
					c1.07-0.05,2.14,0.04,3.19,0.23C435.86,298.7,435.64,298.17,435.44,297.63z"/>
				<path d="M452.03,313.59c-0.42-0.06-0.84-0.13-1.25-0.23c0.66,2.52,0.78,5.17,0.19,7.8c-0.65,3.04-2.01,5.81-3.86,8.13
					c0.27,0.27,0.53,0.55,0.78,0.84c1.97-2.43,3.45-5.37,4.21-8.64C452.74,318.93,452.66,316.22,452.03,313.59z"/>
			</g>
		</g>
		<g>
			<path d="M461.29,256.29c-1.64-1.83-3.33-3.6-5.01-5.41c0,0,0,0,0,0c0.71-0.66,1.31-1.47,1.75-2.41l0,0
				c1.35,1.35,2.7,2.7,3.95,4.15c0.81,0.94,2.1-0.21,1.36-1.22c-1.85-2.56-4.4-4.66-6.59-6.94c-2.17-2.25-4.57-4.29-6.83-6.48
				c-0.75-0.73-1.7,0.12-1.12,1c1.7,2.61,4.44,4.53,6.53,6.75c0.62,0.66,1.25,1.3,1.88,1.94c-0.47,0.87-1.12,1.61-1.88,2.22
				c0,0,0,0,0,0c-0.48-0.52-0.96-1.05-1.43-1.58c-2.33-2.6-4.76-5.17-7.48-7.33c-0.5-0.39-1.13,0.35-0.68,0.82
				c2.61,2.68,5.12,5.47,7.59,8.27c0.21,0.24,0.41,0.47,0.62,0.7c0,0,0,0,0,0c-1.18,0.59-2.51,0.88-3.83,0.8
				c-1.19-0.07-2.41-0.3-3.53-0.82c-0.27-0.12-1.44-0.8-2.08-1.48c-0.04-0.7-0.13-1.31-0.61-1.93c-0.5-0.65-1.37-0.39-1.6,0.27
				c-0.25,0.71,0.03,1.48,0.47,2.16c0.03,0.78-0.06,1.72-0.04,2.17c0.07,1.38,0.08,2.75,0.13,4.12c0.02,0.54,0.05,1.07,0.09,1.61
				c0.05,0.76,0.12,1.51,0.21,2.27c0.16,1.44,0.38,2.87,0.65,4.33c0.27,1.46,2.26,1.1,2.03-0.34c-0.04-0.23-0.07-0.45-0.11-0.68
				c0,0,0,0,0,0c-0.13-0.84-0.25-1.68-0.36-2.51l0,0c-0.28-2.15-0.48-4.28-0.56-6.46c-0.03-0.86-0.1-1.73-0.16-2.59
				c1.28,0.88,2.81,1.29,4.26,1.47c2.1,0.26,4.27-0.17,6.04-1.26c0.73,0.81,1.46,1.61,2.19,2.41c1.07,1.17,2.04,2.45,3.5,3
				C461.19,257.49,461.72,256.77,461.29,256.29z"/>
			<g>
				<path d="M433.77,234.76c-20.33,18.19,9.94,52.04,30.25,35.45c8.45-6.59,9.97-21.9,3.49-30.92
					c-8.57-11.56-23.17-10.91-33.41-4.35c-0.4,0.26,0.04,0.92,0.45,0.66c8.21-5.05,16.84-6.38,26.07-0.54
					c10.63,6.86,12.65,23.22,4.54,32.25c-17.26,20.4-50.94-13.09-30.28-31.54C435.56,235.2,434.44,234.19,433.77,234.76
					L433.77,234.76z"/>
			</g>
			<g>
				<path d="M435.87,237.01c-17.76,15.84,8.55,45.31,26.34,30.87c7.36-5.74,8.62-19.08,2.94-26.94c-7.47-10.06-20.11-9.5-29-3.79
					c-0.35,0.23,0.04,0.8,0.39,0.58c7.13-4.4,14.6-5.56,22.62-0.47c9.25,5.97,11.08,20.22,4.04,28.09
					c-15.11,17.76-44.41-11.4-26.37-27.46C437.41,237.39,436.45,236.51,435.87,237.01L435.87,237.01z"/>
			</g>
		</g>
		<g>
			<path d="M398.96,328.05c-2.3-0.51-4.61-0.94-6.92-1.41c0,0,0,0,0,0c0.19-1.01,0.21-2.06,0.03-3.13l0,0
				c1.82,0.3,3.63,0.59,5.42,1.02c1.17,0.28,1.55-1.49,0.4-1.88c-2.9-0.99-6.08-1.17-9.07-1.74c-2.95-0.56-5.95-0.82-8.92-1.29
				c-0.99-0.16-1.22,1.15-0.29,1.54c2.76,1.18,5.96,1.11,8.82,1.7c0.85,0.17,1.7,0.32,2.55,0.47c0.12,1.03,0.03,2.06-0.23,3.04
				c0,0,0,0,0,0c-0.66-0.14-1.33-0.29-1.99-0.44c-3.24-0.76-6.54-1.43-9.82-1.61c-0.6-0.03-0.66,1-0.06,1.12
				c3.48,0.68,6.96,1.49,10.41,2.33c0.29,0.07,0.58,0.14,0.87,0.21c0,0,0,0,0,0c-0.59,1.24-1.46,2.32-2.52,3.08
				c-0.95,0.68-2.02,1.25-3.16,1.52c-0.27,0.06-1.53,0.22-2.39,0.03c-0.41-0.57-0.82-1.04-1.52-1.28c-0.73-0.25-1.25,0.52-1.06,1.23
				c0.2,0.76,0.83,1.26,1.53,1.57c0.45,0.66,0.89,1.51,1.15,1.89c0.8,1.14,1.54,2.31,2.31,3.46c0.3,0.45,0.61,0.89,0.92,1.33
				c0.44,0.62,0.9,1.22,1.36,1.81c0.89,1.13,1.81,2.22,2.77,3.3c0.97,1.08,2.32-0.5,1.38-1.59c-0.15-0.17-0.29-0.34-0.44-0.51
				c0,0,0,0,0,0c-0.54-0.63-1.08-1.27-1.6-1.92l0,0c-1.35-1.66-2.64-3.36-3.88-5.18c-0.49-0.72-1.01-1.42-1.52-2.12
				c1.45-0.06,2.85-0.66,4.07-1.42c1.76-1.1,3.22-2.82,4-4.86c1.01,0.23,2.03,0.44,3.04,0.66c1.48,0.32,2.95,0.78,4.4,0.32
				C399.54,329.12,399.57,328.19,398.96,328.05z"/>
			<g>
				<path d="M366.02,326.67c-2.06,11.71,4.61,24.5,16.7,27.34c11.17,2.64,22.55-4.6,25.9-15.86c3.45-11.1-4.26-26.35-16.56-28.79
					c-13.43-2.66-22.21,6.48-25.72,17.39c-0.12,0.4,0.59,0.69,0.72,0.29c3.05-8.92,8.7-15.97,19.34-16.43
					c15.39-0.66,25.74,16.38,19.86,29.73c-3.83,9.06-13.79,14.9-23.35,12.57c-11.46-2.79-17.48-14.86-15.5-25.87
					C367.58,326.16,366.18,325.78,366.02,326.67L366.02,326.67z"/>
			</g>
			<g>
				<path d="M368.82,327.34c-1.85,10.19,3.92,21.33,14.5,23.81c9.78,2.3,19.72-4,22.61-13.81c2.96-9.67-3.81-22.95-14.47-25.08
					c-11.63-2.31-19.27,5.65-22.35,15.15c-0.11,0.35,0.51,0.6,0.63,0.26c2.68-7.76,7.6-13.91,16.82-14.31
					c13.34-0.58,22.4,14.26,17.33,25.89c-3.31,7.89-12.03,12.98-20.38,10.94c-10.02-2.43-15.23-12.94-13.46-22.53
					C370.18,326.9,368.97,326.57,368.82,327.34L368.82,327.34z"/>
			</g>
		</g>
		<g>
			<path d="M343.68,283c0.09-0.26,0.18-0.52,0.28-0.78c0-0.44-0.23-0.89-0.76-1.09c-0.21-0.08-0.42-0.15-0.63-0.24c0,0,0,0,0,0
				c-0.78-0.29-1.56-0.59-2.33-0.9l0,0c-1.99-0.8-3.93-1.66-5.88-2.66c-0.77-0.39-1.56-0.75-2.34-1.12
				c1.33-0.79,2.37-2.04,3.17-3.33c1.16-1.87,1.76-4.15,1.6-6.36c1.04-0.31,2.08-0.63,3.12-0.95c1.52-0.47,3.09-0.8,4.25-1.94
				c0.43-0.42,0.04-1.26-0.58-1.07c-2.36,0.71-4.71,1.5-7.07,2.25c0,0,0,0,0,0c-0.26-0.99-0.7-1.94-1.34-2.8l0,0
				c1.82-0.66,3.64-1.32,5.5-1.84c1.21-0.34,0.79-2.11-0.45-1.88c-3.13,0.59-6.18,2.04-9.21,3.05c-3,1-5.9,2.29-8.88,3.37
				c-0.99,0.36-0.64,1.64,0.41,1.52c3.09-0.35,6.04-2.03,8.96-2.96c0.87-0.27,1.72-0.57,2.58-0.88c0.56,0.86,0.93,1.82,1.11,2.83
				c0,0,0,0,0,0c-0.68,0.21-1.36,0.42-2.05,0.61c-3.36,0.97-6.73,2.04-9.86,3.55c-0.57,0.27-0.18,1.23,0.44,1.02
				c3.54-1.16,7.14-2.2,10.72-3.2c0.3-0.08,0.6-0.17,0.9-0.26c0,0,0,0,0,0c-0.01,1.41-0.35,2.81-1.01,4.02
				c-0.59,1.09-1.33,2.14-2.28,2.95c-0.23,0.2-1.33,0.97-2.22,1.24c-0.63-0.3-1.22-0.51-1.98-0.37c-0.79,0.15-0.93,1.1-0.45,1.63
				c0.52,0.58,1.32,0.7,2.11,0.62c0.7,0.36,1.49,0.9,1.9,1.1c1.24,0.61,2.45,1.28,3.67,1.91c0.48,0.25,0.96,0.49,1.44,0.72
				c0.68,0.33,1.37,0.64,2.06,0.93c1.32,0.56,2.66,1.07,4.03,1.54C343.07,283.41,343.44,283.27,343.68,283z"/>
			<g>
				<path d="M343.21,250.21c-4.95-1.98-10.48-2.36-15.24-0.49c-5.64,2.21-10.28,6.33-13.18,11.45c-2.7,4.82-2.96,9.2-2.47,14.35
					c0.16-0.01,0.32-0.03,0.47-0.03c0.11,0,0.22,0.02,0.34,0.02c-0.34-3.41-0.47-6.71,0.82-10.02c2.07-5.25,5.81-9.37,10.71-12.33
					c5.6-3.37,12.78-3.64,18.84-1.22C343.38,251.37,343.28,250.79,343.21,250.21z"/>
				<path d="M355.63,267.13c0.27,1.83,0.3,3.68,0.12,5.49c0.44-0.05,0.88-0.08,1.33-0.08c0.15-1.61,0.15-3.24-0.01-4.89
					C356.59,267.51,356.11,267.34,355.63,267.13z"/>
				<path d="M343.42,292.1l-0.1-0.75c-0.08,0.04-0.15,0.08-0.23,0.12c-3.14,1.52-6.59,2.16-9.99,1.99c0.09,0.41,0.16,0.82,0.23,1.23
					c2.7,0.09,5.43-0.3,8.02-1.19c0.76-0.26,1.5-0.57,2.22-0.92C343.51,292.43,343.46,292.27,343.42,292.1z"/>
			</g>
			<g>
				<path d="M344.08,253.94c-4.79-2.51-10.5-3.26-15.27-1.37c-5.16,2.05-9.31,5.89-11.82,10.68c-2.16,4.18-2.18,8-1.69,12.49
					c0.24,0.05,0.48,0.1,0.72,0.16c-0.31-2.84-0.6-5.67,0.18-8.45c1.39-4.89,5.1-9,9.4-11.68c5.74-3.58,13.43-3.44,19.23-0.06
					C344.54,255.14,344.3,254.55,344.08,253.94z"/>
				<path d="M353.91,266.25c-0.05-0.03-0.1-0.06-0.16-0.09c-0.49-0.4-0.99-0.8-1.48-1.21c0.9,2.77,1.07,5.65,0.67,8.43
					c0.39-0.17,0.8-0.31,1.21-0.42c0.25-2.08,0.22-4.22-0.16-6.37C353.96,266.47,353.93,266.37,353.91,266.25z"/>
				<path d="M342.95,288.42c-0.32,0.18-0.64,0.35-0.97,0.51c-3.1,1.5-6.5,2.02-9.79,1.67c0.17,0.38,0.31,0.77,0.44,1.15
					c2.61,0.19,5.28-0.14,7.82-1.04c0.91-0.33,1.79-0.74,2.64-1.19L342.95,288.42z"/>
			</g>
		</g>
		<g>
			<path d="M394.17,263.56c-2.36,0.71-4.71,1.5-7.07,2.25c0,0,0,0,0,0c-0.26-0.99-0.7-1.94-1.34-2.8l0,0
				c1.82-0.66,3.64-1.32,5.5-1.84c1.21-0.34,0.79-2.11-0.45-1.88c-3.13,0.59-6.18,2.04-9.21,3.05c-0.38,0.13-0.76,0.27-1.14,0.41
				c-0.82,1.09-1.67,2.16-2.62,3.12c-0.02,0.02-0.05,0.05-0.07,0.07c1.46-0.57,2.89-1.2,4.32-1.66c0.87-0.27,1.72-0.57,2.58-0.88
				c0.56,0.86,0.93,1.82,1.11,2.83v0c-0.68,0.21-1.36,0.42-2.05,0.61c-3.36,0.97-6.73,2.04-9.86,3.55
				c-0.57,0.27-0.18,1.23,0.44,1.02c3.54-1.16,7.14-2.2,10.72-3.2c0.3-0.08,0.6-0.17,0.9-0.26c0,0,0,0,0,0
				c-0.01,1.41-0.35,2.81-1.01,4.02c-0.59,1.09-1.33,2.14-2.28,2.95c-0.23,0.2-1.33,0.97-2.22,1.24c-0.63-0.3-1.22-0.51-1.98-0.37
				c-0.07,0.01-0.12,0.04-0.18,0.06c0.46,0.69,0.85,1.42,1.16,2.2c0.22,0.02,0.45,0.02,0.68-0.01c0.7,0.36,1.49,0.9,1.9,1.1
				c1.24,0.61,2.45,1.28,3.67,1.91c0.48,0.25,0.96,0.49,1.44,0.72c0.68,0.33,1.37,0.64,2.06,0.93c0.1,0.04,0.2,0.08,0.3,0.12
				c0.13-0.74,0.3-1.47,0.53-2.19c-1.7-0.7-3.39-1.45-5.07-2.31c-0.77-0.39-1.56-0.75-2.34-1.12c1.33-0.79,2.37-2.04,3.17-3.33
				c1.16-1.87,1.76-4.15,1.6-6.36c1.04-0.31,2.08-0.63,3.12-0.95c1.52-0.47,3.09-0.8,4.25-1.94
				C395.19,264.21,394.8,263.37,394.17,263.56z"/>
			<g>
				<path d="M387.72,252.69c-0.78-0.11-1.56-0.17-2.34-0.17c-0.05,0.55-0.13,1.1-0.23,1.64c1.08-0.03,2.16,0.03,3.23,0.18
					C388.14,253.8,387.92,253.25,387.72,252.69z"/>
				<path d="M403.9,270.18c0.33-0.01,0.65,0.01,0.97,0.02c-0.04-0.87-0.13-1.74-0.28-2.61c-0.02-0.11-0.05-0.22-0.08-0.34
					c-0.05-0.03-0.1-0.06-0.16-0.09c-0.49-0.4-0.99-0.8-1.48-1.21c0.45,1.4,0.72,2.82,0.82,4.24
					C403.77,270.19,403.84,270.19,403.9,270.18z"/>
			</g>
		</g>
		<g>
			<path d="M426.34,280.26c0.09,0.67,0.17,1.34,0.26,2.01c0.1,0.05,0.2,0.11,0.3,0.16c0.48,0.25,0.96,0.49,1.44,0.72
				c0.68,0.33,1.37,0.64,2.06,0.93c0.1,0.04,0.2,0.08,0.3,0.12c0.13-0.74,0.3-1.47,0.53-2.19c-1.7-0.7-3.38-1.45-5.06-2.31
				C426.23,279.89,426.29,280.07,426.34,280.26z"/>
			<path d="M434.23,265.28c-1.97,0.62-3.94,1.26-5.92,1.89c0,0,0,0,0,0c-0.26-0.99-0.7-1.94-1.34-2.8l0,0
				c1.73-0.62,3.46-1.24,5.22-1.75c-0.38-0.58-0.74-1.17-1.07-1.77c-2.82,0.67-5.57,1.94-8.31,2.85c-0.38,0.13-0.76,0.27-1.14,0.41
				c-0.82,1.09-1.67,2.16-2.62,3.12c-0.02,0.02-0.05,0.05-0.07,0.07c1.46-0.57,2.89-1.2,4.32-1.66c0.87-0.27,1.72-0.57,2.58-0.88
				c0.56,0.86,0.93,1.82,1.11,2.83v0c-0.68,0.21-1.36,0.42-2.05,0.61c-2.21,0.64-4.43,1.33-6.58,2.16c0.42,0.2,0.83,0.42,1.23,0.67
				c0.14,0.12,0.28,0.23,0.43,0.35c2.07-0.62,4.15-1.22,6.22-1.8c0.3-0.08,0.6-0.17,0.9-0.26c0,0,0,0,0,0
				c-0.01,1.41-0.35,2.81-1.01,4.02c-0.47,0.88-1.05,1.72-1.75,2.44c0.33,0.52,0.63,1.06,0.9,1.63c0.66-0.65,1.23-1.39,1.71-2.16
				c1.16-1.87,1.76-4.15,1.6-6.36c1.04-0.31,2.08-0.63,3.12-0.95c1.27-0.39,2.57-0.7,3.64-1.45
				C434.98,266.1,434.6,265.7,434.23,265.28z"/>
			<g>
				<path d="M428.87,254.04c-0.76-0.1-1.51-0.16-2.27-0.17c-0.05,0.55-0.13,1.1-0.23,1.64c0.94-0.03,1.87,0.03,2.81,0.14
					C429.05,255.12,428.94,254.58,428.87,254.04z"/>
			</g>
		</g>
		<g>
			<path d="M419.92,287.73c-2.3-0.51-4.61-0.94-6.92-1.41c0,0,0,0,0,0c0.19-1.01,0.21-2.06,0.03-3.13l0,0
				c1.82,0.3,3.63,0.59,5.42,1.02c1.17,0.28,1.55-1.49,0.4-1.88c-2.9-0.99-6.08-1.17-9.07-1.74c-2.95-0.56-5.95-0.82-8.92-1.29
				c-0.99-0.16-1.22,1.15-0.29,1.54c2.76,1.18,5.96,1.11,8.82,1.7c0.85,0.17,1.7,0.32,2.55,0.47c0.12,1.03,0.03,2.06-0.23,3.04
				c0,0,0,0,0,0c-0.66-0.14-1.33-0.29-1.99-0.44c-3.24-0.76-6.54-1.43-9.82-1.61c-0.6-0.03-0.66,1-0.06,1.12
				c3.48,0.68,6.96,1.49,10.41,2.33c0.29,0.07,0.58,0.14,0.87,0.21c0,0,0,0,0,0c-0.59,1.24-1.46,2.32-2.52,3.08
				c-0.95,0.68-2.02,1.25-3.16,1.52c-0.27,0.06-1.53,0.22-2.39,0.03c-0.41-0.57-0.82-1.04-1.52-1.28c-0.73-0.25-1.25,0.52-1.06,1.23
				c0.2,0.76,0.83,1.26,1.53,1.57c0.45,0.66,0.89,1.51,1.15,1.89c0.8,1.14,1.54,2.31,2.31,3.46c0.3,0.45,0.61,0.89,0.92,1.33
				c0.44,0.62,0.9,1.22,1.36,1.81c0.89,1.13,1.81,2.22,2.77,3.3c0.97,1.08,2.32-0.5,1.38-1.59c-0.15-0.17-0.29-0.34-0.44-0.52
				c0,0,0,0,0,0c-0.54-0.63-1.08-1.27-1.6-1.92l0,0c-1.35-1.66-2.64-3.36-3.88-5.18c-0.49-0.72-1.01-1.42-1.52-2.12
				c1.45-0.06,2.85-0.66,4.07-1.42c1.76-1.1,3.22-2.82,4-4.86c1.01,0.23,2.03,0.44,3.04,0.66c1.48,0.32,2.95,0.78,4.4,0.32
				C420.51,288.8,420.53,287.87,419.92,287.73z"/>
			<g>
				<path d="M386.98,286.35c-2.06,11.71,4.61,24.5,16.7,27.34c11.17,2.64,22.55-4.6,25.9-15.86c3.45-11.1-4.26-26.35-16.56-28.79
					c-13.43-2.66-22.21,6.48-25.72,17.39c-0.12,0.4,0.59,0.69,0.72,0.29c3.05-8.92,8.7-15.97,19.34-16.43
					c15.39-0.66,25.74,16.38,19.86,29.73c-3.83,9.06-13.79,14.9-23.35,12.57c-11.46-2.79-17.48-14.86-15.5-25.87
					C388.55,285.84,387.14,285.47,386.98,286.35L386.98,286.35z"/>
			</g>
			<g>
				<path d="M389.78,287.02c-1.85,10.19,3.92,21.33,14.5,23.81c9.78,2.3,19.72-4,22.61-13.81c2.96-9.67-3.81-22.95-14.47-25.08
					c-11.63-2.31-19.27,5.65-22.35,15.15c-0.11,0.35,0.51,0.6,0.63,0.26c2.68-7.76,7.6-13.91,16.82-14.31
					c13.34-0.58,22.4,14.26,17.33,25.89c-3.31,7.89-12.03,12.98-20.38,10.94c-10.02-2.43-15.23-12.94-13.46-22.53
					C391.15,286.58,389.93,286.25,389.78,287.02L389.78,287.02z"/>
			</g>
		</g>
		<g>
			<path d="M375.83,288.69c-2.3-0.51-4.61-0.94-6.92-1.41c0,0,0,0,0,0c0.19-1.01,0.21-2.06,0.03-3.13l0,0
				c1.82,0.3,3.63,0.59,5.42,1.02c1.17,0.28,1.55-1.49,0.4-1.88c-2.9-0.99-6.08-1.17-9.07-1.74c-2.95-0.56-5.95-0.82-8.92-1.29
				c-0.99-0.16-1.22,1.15-0.29,1.54c2.76,1.18,5.96,1.11,8.82,1.7c0.85,0.17,1.7,0.32,2.55,0.47c0.12,1.03,0.03,2.06-0.23,3.04
				c0,0,0,0,0,0c-0.66-0.14-1.33-0.29-1.99-0.44c-3.24-0.76-6.54-1.43-9.82-1.61c-0.6-0.03-0.66,1-0.06,1.12
				c3.48,0.68,6.96,1.49,10.41,2.33c0.29,0.07,0.58,0.14,0.87,0.21c0,0,0,0,0,0c-0.59,1.24-1.46,2.32-2.52,3.08
				c-0.95,0.68-2.02,1.25-3.16,1.52c-0.27,0.06-1.53,0.22-2.39,0.03c-0.41-0.57-0.82-1.04-1.52-1.28c-0.73-0.25-1.25,0.52-1.06,1.23
				c0.2,0.76,0.83,1.26,1.53,1.57c0.45,0.66,0.89,1.51,1.15,1.89c0.8,1.14,1.54,2.31,2.31,3.46c0.3,0.45,0.61,0.89,0.92,1.33
				c0.44,0.62,0.9,1.22,1.36,1.81c0.89,1.13,1.81,2.22,2.77,3.3c0.97,1.08,2.32-0.5,1.38-1.59c-0.15-0.17-0.29-0.34-0.44-0.51
				c0,0,0,0,0,0c-0.54-0.63-1.08-1.27-1.6-1.92l0,0c-1.35-1.66-2.64-3.36-3.88-5.18c-0.49-0.72-1.01-1.42-1.52-2.12
				c1.45-0.06,2.85-0.66,4.07-1.42c1.76-1.1,3.22-2.82,4-4.86c1.01,0.23,2.03,0.44,3.04,0.66c1.48,0.32,2.95,0.78,4.4,0.32
				C376.41,289.76,376.44,288.83,375.83,288.69z"/>
			<g>
				<path d="M342.89,287.31c-2.06,11.71,4.61,24.5,16.7,27.34c11.17,2.64,22.55-4.6,25.9-15.86c3.45-11.1-4.26-26.35-16.56-28.79
					c-13.43-2.66-22.21,6.48-25.72,17.39c-0.12,0.4,0.59,0.69,0.72,0.29c3.05-8.92,8.7-15.97,19.34-16.43
					c15.39-0.66,25.74,16.38,19.86,29.73c-3.83,9.06-13.79,14.9-23.35,12.57c-11.46-2.79-17.48-14.86-15.5-25.87
					C344.45,286.8,343.05,286.42,342.89,287.31L342.89,287.31z"/>
			</g>
			<g>
				<path d="M345.69,287.98c-1.85,10.19,3.92,21.33,14.5,23.81c9.78,2.3,19.72-4,22.61-13.81c2.96-9.67-3.81-22.95-14.47-25.08
					c-11.63-2.31-19.27,5.65-22.35,15.15c-0.11,0.35,0.51,0.6,0.63,0.26c2.68-7.76,7.6-13.91,16.82-14.31
					c13.34-0.58,22.4,14.26,17.33,25.89c-3.31,7.89-12.03,12.98-20.38,10.94c-10.02-2.43-15.23-12.94-13.46-22.53
					C347.05,287.54,345.83,287.21,345.69,287.98L345.69,287.98z"/>
			</g>
		</g>
		<g>
			<path d="M444.47,341.82c-2.3-0.51-4.61-0.94-6.92-1.41c0,0,0,0,0,0c0.19-1.01,0.21-2.06,0.03-3.13l0,0
				c1.82,0.3,3.63,0.59,5.42,1.02c1.17,0.28,1.55-1.49,0.4-1.88c-2.9-0.99-6.08-1.17-9.07-1.74c-2.95-0.56-5.95-0.82-8.92-1.29
				c-0.99-0.16-1.22,1.15-0.29,1.54c2.76,1.18,5.96,1.11,8.82,1.7c0.85,0.17,1.7,0.32,2.55,0.47c0.12,1.03,0.03,2.06-0.23,3.04
				c0,0,0,0,0,0c-0.66-0.14-1.33-0.29-1.99-0.44c-3.25-0.76-6.54-1.44-9.82-1.61c-0.6-0.03-0.66,1-0.06,1.12
				c3.48,0.68,6.96,1.49,10.41,2.33c0.29,0.07,0.58,0.14,0.87,0.21c0,0,0,0,0,0c-0.59,1.24-1.46,2.32-2.52,3.07
				c-0.95,0.68-2.02,1.25-3.16,1.52c-0.27,0.06-1.53,0.22-2.39,0.03c-0.41-0.57-0.82-1.04-1.52-1.28c-0.73-0.25-1.25,0.52-1.06,1.23
				c0.2,0.76,0.83,1.26,1.53,1.57c0.45,0.66,0.89,1.51,1.15,1.89c0.8,1.14,1.54,2.31,2.31,3.46c0.3,0.45,0.61,0.89,0.92,1.33
				c0.44,0.62,0.9,1.22,1.36,1.81c0.89,1.13,1.81,2.22,2.77,3.3c0.97,1.08,2.32-0.5,1.38-1.59c-0.15-0.17-0.29-0.34-0.44-0.52
				c0,0,0,0,0,0c-0.54-0.63-1.08-1.27-1.6-1.92l0,0c-1.35-1.66-2.64-3.36-3.88-5.18c-0.49-0.72-1.01-1.42-1.52-2.12
				c1.45-0.06,2.85-0.66,4.07-1.42c1.76-1.1,3.22-2.82,4-4.86c1.01,0.23,2.03,0.44,3.04,0.66c1.48,0.32,2.95,0.78,4.41,0.32
				C445.06,342.89,445.08,341.95,444.47,341.82z"/>
			<g>
				<path d="M453.48,348.56c-0.03,0.23-0.08,0.45-0.12,0.67c0.47,0.04,0.94,0.07,1.41,0.14c1.98-11.03-6.6-24.39-17.46-26.28
					c-6.18-1.07-12.37,0.58-17.2,4.06c-4.52,3.3-6.32,7.52-8.07,12.79c-0.23,0.04-0.44,0.18-0.5,0.49
					c-0.24,1.17-0.39,2.33-0.45,3.49c0.47-0.07,0.94-0.11,1.4-0.13c0.07-0.99,0.2-1.98,0.41-2.97c0.05-0.24-0.01-0.44-0.14-0.6
					c1.29-3.75,2.5-7.36,5.4-10.08c3.98-3.68,8.96-5.57,14.52-5.76C444.5,323.98,455.36,336.18,453.48,348.56z"/>
			</g>
			<g>
				<path d="M450.86,348.05c-0.06,0.48-0.15,0.95-0.25,1.42l1.3-0.18c2-9.88-5.93-22.13-15.79-23.39
					c-5.26-0.67-10.37,0.75-14.45,3.76c-3.82,2.85-5.37,6.5-6.88,11.02c-0.2,0.03-0.38,0.16-0.44,0.43c-0.18,0.9-0.3,1.8-0.36,2.7
					c0.4,0.03,0.8,0.07,1.2,0.13c0.06-0.83,0.17-1.66,0.34-2.49c0.05-0.21-0.01-0.39-0.12-0.52c0.98-2.84,1.9-5.7,3.85-7.95
					c3.15-3.6,8.02-5.52,12.8-5.82C442.52,326.49,452.37,336.91,450.86,348.05z"/>
			</g>
		</g>
		<g>
			<path d="M406.89,359.47c0.46-0.31,0.92-0.61,1.39-0.88c0.73-0.42,1.44-0.86,2.16-1.31c0.65,0.71,1.16,1.55,1.54,2.45
				c1.24,0.06,2.48,0.12,3.73,0.17c0.26-0.15,0.52-0.29,0.78-0.44c1.3-0.73,2.68-1.34,3.52-2.68c0.31-0.49-0.23-1.26-0.77-0.96
				c-2.04,1.12-4.03,2.31-6.04,3.47l0,0c-0.46-0.95-1.07-1.82-1.85-2.57l0,0c1.53-0.96,3.06-1.93,4.66-2.77
				c1.05-0.55,0.27-2.23-0.83-1.79c-2.77,1.11-5.24,3.07-7.78,4.58c-1.32,0.79-2.6,1.66-3.87,2.54
				C404.65,359.34,405.77,359.41,406.89,359.47z"/>
			<g>
				<path d="M394.31,358.49c0.92-3.11,2.58-6.02,5.15-8.68c8.66-8.69,23.35-5.58,30,4.94c1.07,1.74,1.84,3.59,2.36,5.5
					c0.54,0,1.08-0.02,1.62-0.03c-0.32-1.42-0.76-2.81-1.34-4.18c-4.27-9.72-17.51-15.63-27.41-11.83
					c-6.7,2.62-10.24,7.95-11.54,14.14C393.54,358.4,393.93,358.44,394.31,358.49z"/>
			</g>
			<g>
				<path d="M397,358.75c0.85-2.41,2.22-4.69,4.24-6.78c7.52-7.57,20.25-4.87,26.05,4.3c0.78,1.26,1.37,2.6,1.82,3.98
					c0.48,0,0.97,0,1.45,0c-0.25-0.96-0.57-1.92-0.97-2.85c-3.74-8.47-15.23-13.61-23.8-10.3c-5.54,2.17-8.6,6.48-9.87,11.54
					C396.28,358.68,396.64,358.72,397,358.75z"/>
			</g>
		</g>
		<g>
			<path d="M314.31,350.65c3.44-7.29,3.56-15.05-0.17-22.28c-0.6-1.13-2.31-0.14-1.71,0.99c3.43,6.59,3.35,13.69,0.25,20.34
				C312.17,350.85,313.79,351.8,314.31,350.65L314.31,350.65z"/>
		</g>
		<g>
			<path d="M313.71,299.33c1.25-1.74,2.02-3.96,2.06-6.21c1-0.18,2.01-0.37,3.01-0.56c1.47-0.28,2.97-0.41,4.17-1.41
				c0.44-0.37,0.15-1.26-0.46-1.15c-2.29,0.41-4.56,0.91-6.84,1.36c0,0,0,0,0,0c-0.16-1.03-0.49-2.05-1.02-2.99l0,0
				c1.76-0.42,3.53-0.84,5.32-1.13c1.17-0.19,0.93-2.01-0.27-1.94c-3,0.18-5.98,1.23-8.9,1.85c-1.6,0.34-3.17,0.76-4.74,1.19
				c0.21,0.66,0.4,1.33,0.6,1.99c1.5-0.39,2.99-0.88,4.45-1.17c0.83-0.16,1.66-0.35,2.48-0.54c0.45,0.93,0.72,1.95,0.81,2.99
				c0,0,0,0,0,0c-0.65,0.12-1.31,0.24-1.96,0.35c-1.68,0.28-3.36,0.63-5.02,1.02c0.14,0.51,0.26,1.03,0.39,1.54
				c1.9-0.35,3.81-0.71,5.72-1.01c0.29-0.05,0.58-0.09,0.86-0.14c0,0,0,0,0,0c-0.13,1.42-0.57,2.79-1.29,3.93
				c-0.65,1.03-1.43,1.99-2.38,2.7c-0.17,0.13-0.82,0.51-1.48,0.77c0.23,1.18,0.45,2.36,0.66,3.54c1.04,0.74,2.04,1.53,3.06,2.29
				c0.42,0.31,0.84,0.61,1.26,0.9c0.6,0.42,1.2,0.81,1.82,1.19c1.17,0.73,2.35,1.4,3.58,2.04c1.23,0.64,1.98-1.41,0.78-2.08
				c-0.19-0.1-0.38-0.21-0.57-0.31c0,0,0,0,0,0c-0.7-0.39-1.39-0.78-2.08-1.19l0,0c-1.76-1.05-3.49-2.16-5.2-3.41
				c-0.68-0.5-1.37-0.96-2.06-1.43C311.77,301.67,312.84,300.53,313.71,299.33z"/>
			<g>
				<path d="M313.94,321.99c25.37-3.37,28.02-48.01-2.28-47.62c-1.29,0.02-1.19,1.98,0.1,1.97c27.67-0.37,25.18,40.63,2.08,43.68
					C312.67,320.18,312.76,322.15,313.94,321.99L313.94,321.99z"/>
			</g>
			<g>
				<path d="M314.39,318.81c22.09-3.44,23.18-42.73-3.12-41.32c-1.11,0.06-1.02,1.77,0.09,1.71c24.39-1.32,22.77,34.82,2.52,37.96
					C312.85,317.33,313.37,318.97,314.39,318.81L314.39,318.81z"/>
			</g>
		</g>
	</g>
	<g>
		<path class="st26" d="M306.13,276.01c1.24,14.49,2.16,29.01,2.62,43.54c0.31,9.72,0.32,19.45,0.46,29.17
			c1.67,1.08,3.19,2.38,4.47,3.94c0.22,0.3,0.47,0.59,0.72,0.87c0.01,0.01,0.02,0.01,0.03,0.02c-0.18-8.94-0.24-17.89-0.44-26.84
			c-0.31-14.15-1.08-28.28-2.18-42.39c-0.87-11.2-2.32-22.3-3.39-33.47c-1.06-10.96-2.23-23.94,3.02-34.07
			c1.38-2.66-2.59-5.02-4.04-2.36c-4.91,8.97-5.06,19.73-4.49,29.68C303.52,254.78,305.21,265.36,306.13,276.01z"/>
	</g>
	<g>
		<path class="st26" d="M501.19,321.6c0.21,6.33,0.32,12.66,0.38,19c1.8-0.39,3.58-0.85,5.28-1.48c-0.51-18.2-1.39-36.39-2.39-54.59
			c-0.94-17.08-1.06-34.28-2.49-51.33c-0.21-2.46-3.71-2.5-3.85,0c-0.84,14.65,0.36,29.52,1.05,44.16
			C499.87,292.1,500.7,306.84,501.19,321.6z"/>
	</g>
</g>
<g>
	<g>
		<g>
			<g>
				<path d="M373.33,355.12c5.52,3,12.12,3.33,18.25,4.14c8.46,1.13,16.96,1.8,25.46,2.43c13.24,0.99,27.32,1.93,39.19-5.11
					c11.71-6.96,18.86-18.52,26.25-29.52c2.13-3.17,4.86-6.88,8.36-8.7c6.1-3.17,3.42,5.72,2.17,8.56
					c-2.44,5.54-7.16,10.93-7.14,17.24c0.01,2.11,2.85,2.33,3.52,0.48c2.52-6.93,7.18-13.11,9.19-20.17
					c1.11-3.89,1.54-10.29-3.53-11.54c-5.21-1.28-10.65,4.19-13.53,7.7c-4.48,5.45-7.61,11.87-11.76,17.56
					c-4.91,6.71-10.74,13.05-18.23,16.88c-7.7,3.93-16.62,4.37-25.1,4.22c-8.43-0.15-16.92-0.68-25.32-1.37
					c-8.52-0.69-19.21-0.37-26.95-4.25C373.22,353.21,372.38,354.61,373.33,355.12L373.33,355.12z"/>
			</g>
		</g>
		<g>
			<g>
				<path d="M487.71,346.91c16.02-5.13,31.83-11.05,48.57-13.42c2.56-0.36,5.2-0.77,7.8-0.57c1.72,0.13,3.15,0.1,3.24,1.92
					c0.09,1.86-1.8,2.79-3.24,3.68c-5.47,3.4-11.99,5.01-18.02,7.03c-3.66,1.22-11.97,2.82-14.44,6.36c-2.4,3.44,1.74,5.91,4.77,6.5
					c11.35,2.21,22.95-5.45,34.39-4.58c3.17,0.24,6.22,2.07,4.53,5.67c-0.85,1.8-3.25,3.11-4.96,3.98
					c-4.02,2.05-8.6,2.82-13.05,3.21c-7.9,0.7-15.91,0.18-23.73,1.73c-2.98,0.59-1.7,5.04,1.25,4.53
					c13.26-2.29,34.6,1.67,43.79-10.94c3.32-4.56,1.69-9.8-3.74-11.62c-6.21-2.08-13.51,0.13-19.68,1.35
					c-2.94,0.58-5.87,1.26-8.81,1.82c-1.97,0.37-3.96,0.73-5.97,0.81c-0.75,0.03-1.6,0.08-2.36-0.01c-2.23-0.26-1.98-0.07-1.1-0.89
					c0.93-0.87,3.84-1.55,5.02-2.01c2.29-0.9,4.62-1.71,6.95-2.51c3.63-1.25,7.29-2.45,10.83-3.95c3.92-1.66,10.15-4.08,11.75-8.48
					c1.69-4.66-2.89-7.09-6.84-7.45c-7.98-0.72-17.03,1.75-24.64,3.66c-11.3,2.84-22.3,6.72-33.27,10.6
					C484.47,344.1,485.39,347.65,487.71,346.91L487.71,346.91z"/>
			</g>
		</g>
		<g>
			<g>
				<path d="M553.72,367.66c4.27,1.75,1.52,4.87-1.06,6.81c-2.52,1.89-5.44,2.57-8.52,3.08c-7.15,1.17-14.49,0.59-21.62,1.89
					c-3.06,0.56-8.01,1.4-9.86,4.27c-1.95,3,0.77,5.36,3.38,6.56c4.53,2.09,9.73,1.76,14.59,1.54c5.24-0.23,12.93-1.57,17.29,2.12
					c6.05,5.12-6.41,6.42-9.62,6.81c-5.97,0.73-12.06,0.87-18.07,0.82c-2.73-0.02-2.73,4.22,0,4.25c6.32,0.06,12.61,0.07,18.9-0.7
					c4.75-0.57,15.27-1.63,15.34-8.34c0.04-3.35-3.11-6.41-5.83-7.87c-5.16-2.76-11.74-2.04-17.36-1.78
					c-3.16,0.15-6.43,0.42-9.58-0.05c-1.63-0.24-3.23-0.66-4.68-1.48c0.34,0.2-2.01,1.49,0.19,0.25c0.79-0.44,1.68-0.7,2.54-0.98
					c7.1-2.26,14.78-1.44,22.08-2.45c6.4-0.88,12.83-2.6,16.71-8.2c3.03-4.38,1.5-8.94-3.94-9.83
					C552.45,364.04,551.7,366.84,553.72,367.66L553.72,367.66z"/>
			</g>
		</g>
		<g>
			<g>
				<path d="M402.76,411.03c19.57,3.22,39.2,2.82,58.92,1.26c10.11-0.8,20.18-1.89,30.26-3.03c9.36-1.06,19.64-1.45,28.68-4.16
					c1.66-0.5,1.21-2.72-0.39-2.88c-9.18-0.94-19.17,0.95-28.29,1.98c-10.08,1.14-20.16,2.27-30.26,3.2
					c-19.35,1.77-39.21,3.17-58.6,1.24C401.74,408.51,401.41,410.81,402.76,411.03L402.76,411.03z"/>
			</g>
		</g>
	</g>
	<g>
		<g>
			<g>
				<path d="M408.65,411.33c-11.5-3.48-24.51-6.34-33.71-14.56c-10.32-9.23-13.98-23.5-16.74-36.52
					c-1.15-5.39-5.95-23.73-15.17-19.05c-3.95,2-4.47,8-4.26,11.85c0.15,2.86,0.76,5.69,1.3,8.5c0.73,3.79,0.65,7.23,0.82,11.02
					c0.09,2.09,2.82,2.35,3.52,0.48c1.76-4.67,0.04-10.26-0.64-15.03c-0.45-3.14-0.91-6.63-0.13-9.77c1.21-4.89,4.16-1.93,5.96,0.93
					c3.36,5.33,4.36,11.65,5.95,17.63c1.33,4.99,3.06,9.93,5.13,14.67c4,9.16,10.12,17.08,18.97,21.92
					c8.87,4.85,18.85,7.04,28.55,9.54C409.24,413.21,409.67,411.64,408.65,411.33L408.65,411.33z"/>
			</g>
		</g>
		<g>
			<g>
				<path d="M344.14,372.27c-14.27-11.39-28.83-23.39-45.61-30.92c-3.68-1.65-10.8-4.36-13.18,0.76c-2.03,4.38,2.92,9.34,5.68,12.09
					c5.72,5.73,12.55,10.29,18.68,15.57c0.45,0.39,3.49,2.52,3.56,2.69c0.14-0.04,0.27-0.09,0.41-0.13c-0.81,0.21-1.6,0.21-2.39,0
					c-0.96-0.13-1.84-0.48-2.74-0.83c-3.69-1.44-7.01-3.68-10.39-5.71c-5.76-3.46-12.08-8.05-18.84-9.16
					c-4.95-0.81-10.31,1.44-9.97,7.14c0.41,7.03,7.5,12.51,13.07,15.65c8.11,4.58,17.21,7.02,25.36,11.53
					c2.65,1.47,4.99-2.52,2.37-4.06c-10.9-6.4-28.87-7.93-35.52-19.91c-1.26-2.27-1.78-4.01,0.38-5.53
					c1.91-1.34,3.48-0.88,5.65-0.23c3.51,1.06,6.76,3.1,9.89,4.95c4.93,2.91,9.75,6.26,14.96,8.63c3,1.36,9.26,3.72,11.7,0.1
					c2.33-3.46-3.06-6.94-5.2-8.73c-5.6-4.67-11.74-8.75-17.11-13.68c-1.68-1.54-4.61-3.83-5.29-6.06
					c-1.63-5.34,4.73-2.72,7.49-1.47c16.46,7.5,30.43,19.48,44.77,30.24C343.55,376.47,345.79,373.6,344.14,372.27L344.14,372.27z"
					/>
			</g>
		</g>
		<g>
			<g>
				<path d="M273.14,369.8c-11.05-1.98-7.64,10.62-2.8,15.51c5.44,5.5,13.77,7.83,20.67,10.83c2.69,1.17,5.34,2.43,7.73,4.15
					c0.48,0.34,1.6,0.97,1.86,1.48c0.51,1,0.84,0.04,0.01,0.42c-1.34,0.62-3.98-0.17-5.25-0.49c-8.87-2.19-23.46-12.65-31.63-3.46
					c-5.16,5.81,2.61,12.1,7.03,15.19c6.4,4.47,13.72,8.18,21.04,10.9c2.56,0.95,3.67-3.15,1.13-4.09c0.67,0.25-0.96-0.45-1.27-0.59
					c-1.22-0.56-2.45-1.1-3.66-1.67c-3.33-1.58-6.62-3.27-9.81-5.14c-2.69-1.58-15.51-8.63-9.98-12.36
					c4.61-3.12,11.49,0.32,15.99,2.1c4.98,1.97,10.17,4.5,15.66,4.3c2.98-0.11,7.08-1.18,6.3-5.03c-0.69-3.38-5.45-5.97-8.12-7.47
					c-6.66-3.75-14.21-5.62-20.84-9.45c-2.9-1.67-13.03-11.41-4.52-11.81C274.5,373.04,275.12,370.15,273.14,369.8L273.14,369.8z"/>
			</g>
		</g>
	</g>
	<g>
		<g>
			<path d="M291.58,423.1c10.54,13.25,28.94,19.97,44.57,25c16.54,5.33,33.61,9.34,50.53,13.29c31.5,7.34,64.62,12.29,96.87,7.25
				c18.08-2.83,35.21-9.23,49.81-20.4c2.03-1.55,0.19-5.02-2.07-3.53c-54.72,36.1-126.57,16.7-184.9,1.23
				c-19.52-5.17-37.17-12.52-53.42-24.62C291.83,420.48,290.85,422.18,291.58,423.1L291.58,423.1z"/>
		</g>
	</g>
	<g>
		<g>
			<path d="M533.28,402.76c0.69,14.73,5.67,28.8-3.69,42c-1.01,1.42,1.27,3.19,2.42,1.87c9.73-11.17,8.08-31.03,3.95-44.23
				C535.51,400.99,533.2,401.17,533.28,402.76L533.28,402.76z"/>
		</g>
	</g>
	<g>
		<g>
			<path d="M348.95,345.27c3.3,2.8,7.96,4.33,11.91,6.05c3.66,1.59,7.46,3.05,11.5,2.58c0.41-0.05,0.6-0.56,0.22-0.8
				c-3.61-2.32-7.86-3.69-11.79-5.34c-3.61-1.52-7.25-3.72-11.21-4C348.83,343.7,348.37,344.78,348.95,345.27L348.95,345.27z"/>
		</g>
	</g>
</g>
<g>
	<g>
		<path d="M303.15,257.57c-12.7,12.07-19.52,29.22-23.25,46.04c-3.88,17.52-4.85,35.68-3.41,53.55c0.29,3.58,5.78,3.69,5.66,0
			c-0.09-2.91-0.07-5.67-0.62-8.55c-0.36-1.86-3.09-1.31-3.18,0.43c-0.11,2.29-0.33,4.64-1.48,6.69c1.76,0.48,3.52,0.95,5.28,1.43
			c-1.15-16.86-0.6-34.1,2.72-50.71c3.32-16.62,9.45-33.26,22.14-45.02C309.59,259.04,305.7,255.14,303.15,257.57L303.15,257.57z"/>
	</g>
</g>
<g>
	<g>
		<path d="M293.36,346.91c1.56,0,1.56-2.43,0-2.43C291.8,344.48,291.8,346.91,293.36,346.91L293.36,346.91z"/>
	</g>
</g>
<g>
	<g>
		<path d="M503.65,251.97c1.83,4,5.4,7.26,7.95,10.85c2.47,3.49,4.85,7.02,6.96,10.74c4.49,7.92,7.82,16.41,10.47,25.1
			c0.5,1.63,2.12,5.04,0.93,6.59c-1.24,1.62-5.82,1.81-7.71,2.23c-2.89,0.65-5.76,1.37-8.65,2.04c-1.47,0.34-2.94,0.57-4.42,0.85
			c-1.24,0.24-2.45-0.12-1.34,0.78c-0.96-0.78-2.62-0.35-2.59,1.07c0.11,5.4,12.58,1.64,15.13,1.07c5.23-1.16,14.54-1.61,15.16-8.49
			c0.35-3.93-1.7-8.4-2.92-12.01c-1.82-5.41-3.95-10.74-6.45-15.88c-2.52-5.16-5.43-10.17-8.8-14.82c-3.1-4.27-6.8-9.78-11.43-12.41
			C504.38,248.81,502.99,250.51,503.65,251.97L503.65,251.97z"/>
	</g>
</g>
<g>
	<g>
		<path d="M516.78,311.85c1.19,7.3,3.39,15.21,6.34,22c0.56,1.29,2.73,0.63,2.64-0.71c-0.52-7.53-4.25-14.79-5.57-22.23
			C519.79,308.66,516.41,309.63,516.78,311.85L516.78,311.85z"/>
	</g>
</g>
<g>
	<g>
		<path d="M279.97,325.09c9.39-0.83,18.54-2.44,27.92-0.88c2.09,0.35,3.75-2.56,1.56-3.69c-3.9-2.02-9.05-1.57-13.28-1.28
			c-5.42,0.37-10.79,1.28-16.19,1.87C277.46,321.37,277.4,325.32,279.97,325.09L279.97,325.09z"/>
	</g>
</g>
</svg>
